<svg width="387" height="455" viewBox="0 0 387 455" fill="none" xmlns="http://www.w3.org/2000/svg">
<path d="M326.397 165.418C317.585 142.424 299.629 123.466 280.291 105.245C274.197 98.8851 267.113 93.5535 259.314 89.4563C249.092 84.4529 237.893 81.7601 226.511 81.5693C227.116 82.2182 227.58 82.9854 227.874 83.8222C228.165 84.6589 228.282 85.5475 228.218 86.4316C228.151 87.3159 227.902 88.1767 227.486 88.9602C227.071 89.7436 226.497 90.4327 225.802 90.9838C225.108 91.5349 224.305 91.9362 223.45 92.1628C222.592 92.3891 221.698 92.4357 220.821 92.2992C219.944 92.163 219.105 91.8468 218.357 91.3707C217.609 90.8946 216.968 90.2689 216.473 89.5328C214.705 90.3165 212.793 90.723 210.859 90.7269C208.926 90.7304 207.011 90.3311 205.24 89.5543C204.526 90.5871 203.522 91.387 202.356 91.8545C201.189 92.3219 199.913 92.4367 198.682 92.1841C197.451 91.9314 196.323 91.3227 195.434 90.4336C194.547 89.5448 193.94 88.4145 193.689 87.1835C185.84 90.5545 178.83 95.6137 173.157 102.001C167.741 108.058 81.4933 220.476 81.3188 220.718C81.4541 220.506 81.6642 220.354 81.9068 220.29C82.1496 220.227 82.4075 220.257 82.6286 220.376C84.5214 221.186 103.696 228.672 109.342 230.918C114.839 233.108 120.412 235.591 126.146 238.141C126.255 238.203 126.35 238.289 126.427 238.389C126.503 238.49 126.559 238.602 126.591 238.724C126.623 238.846 126.63 238.975 126.613 239.099C126.596 239.224 126.554 239.343 126.49 239.453C128.88 235.899 138.256 224.396 140.519 221.621L116.084 211.186C114.951 210.708 115.928 209.052 117.052 209.53L119.748 210.682C136.753 203.821 155.643 203.228 173.045 209.009C181.136 212.063 188.521 216.731 194.751 222.73C200.981 228.729 205.924 235.933 209.282 243.903C212.986 232.034 219.272 221.135 227.687 211.984C236.102 202.833 246.439 195.659 257.957 190.976C259.104 190.515 259.596 192.37 258.466 192.824C247.225 197.439 237.142 204.482 228.94 213.447C220.735 222.413 214.614 233.081 211.015 244.687C211.182 244.687 211.352 244.706 211.521 244.716C220.725 222.637 242.859 209.678 265.882 202.871C267.213 202.477 263.771 205.785 281.558 182.999C273.919 170.336 267.866 156.783 263.535 142.643C263.501 142.522 263.492 142.395 263.509 142.27C263.523 142.146 263.564 142.025 263.626 141.915C263.75 141.694 263.958 141.532 264.204 141.464C264.448 141.396 264.711 141.428 264.931 141.554C265.153 141.679 265.315 141.887 265.382 142.132C269.663 156.341 275.764 169.938 283.532 182.583C283.635 182.748 283.683 182.943 283.663 183.137C283.644 183.331 283.561 183.514 283.427 183.656C283.319 183.895 245.395 233.774 240.933 239.482C240.5 240.115 239.556 239.735 239.391 238.965L239.219 238.772C239.016 239.059 238.784 239.322 238.523 239.556C238.748 239.415 239.018 239.367 239.276 239.427C239.537 239.484 239.762 239.642 239.903 239.866C246.848 249.36 254.862 256.293 263.418 267.079C263.528 267.194 263.609 267.335 263.652 267.488C263.695 267.641 263.697 267.803 263.662 267.959C263.626 268.114 263.552 268.257 263.444 268.377C263.339 268.496 263.205 268.587 263.054 268.642L263.129 268.628C278.405 262.693 292.516 254.106 304.805 243.265C313.354 235.407 320.259 225.931 325.12 215.385C328.681 207.57 330.629 199.117 330.849 190.532C331.067 181.946 329.554 173.405 326.397 165.418ZM125.651 178.649L118.467 186.641C117.642 187.561 116.289 186.201 117.111 185.286C119.501 182.622 121.896 179.958 124.293 177.294C125.125 176.373 126.473 177.733 125.651 178.649ZM154.761 201.067C154.044 202.052 152.371 201.093 153.105 200.099C163.485 186 173.594 171.632 183.649 156.575C184.33 155.554 185.991 156.515 185.303 157.543C175.463 172.267 165.401 186.615 154.761 201.067ZM203.582 217.367C198.9 204.867 192.103 193.265 183.489 183.068C182.698 182.131 184.048 180.769 184.846 181.713C193.687 192.151 200.652 204.042 205.429 216.858C205.857 218.017 203.995 218.512 203.575 217.367H203.582ZM259.309 90.8712C259.154 91.0433 229.379 124.073 225.579 128.291C225.398 128.467 225.154 128.565 224.903 128.565C224.65 128.565 224.406 128.467 224.224 128.291C222.666 126.798 186.362 92.6446 186.175 92.4677C185.274 91.6217 186.632 90.2689 187.53 91.1126L224.846 126.246L257.952 89.5161C258.774 88.5959 260.127 89.9582 259.302 90.8712H259.309ZM324.834 191.729C324.834 191.983 324.733 192.226 324.554 192.405C324.375 192.584 324.131 192.685 323.878 192.685C323.624 192.685 323.38 192.584 323.201 192.405C323.022 192.226 322.922 191.983 322.922 191.729V177.97C322.922 177.716 323.022 177.473 323.201 177.294C323.38 177.115 323.624 177.014 323.878 177.014C324.131 177.014 324.375 177.115 324.554 177.294C324.733 177.473 324.834 177.716 324.834 177.97C324.884 181.407 324.886 188.123 324.826 191.729H324.834Z" fill="#EAEAEA"/>
<path d="M65.7 304.516C65.8386 303.66 65.9923 302.81 66.1612 301.968C66.2497 301.512 66.3022 301.92 64.3496 304.177C64.8126 304.232 65.2664 304.344 65.7 304.516Z" fill="white"/>
<path d="M88.6107 306.151C89.8392 303.371 93.1254 301.301 92.3941 298.503C92.3124 298.187 92.163 297.896 91.9567 297.645C91.7502 297.396 91.4916 297.193 91.1991 297.054C90.279 296.744 89.4496 297.795 88.8593 298.345L86.0964 300.926C84.352 302.277 82.8504 303.916 81.6558 305.773C81.3994 306.172 81.2531 306.633 81.2321 307.109C81.2113 307.585 81.3162 308.058 81.5363 308.481C81.9433 309.05 82.456 309.537 83.0468 309.915L89.2274 311.827C88.5443 311.062 88.1174 310.106 88.0068 309.088C87.8961 308.07 88.1074 307.042 88.6107 306.151Z" fill="white"/>
<path d="M289.237 285.819L212.154 318.617C211.132 319.052 209.846 319.91 208.756 319.506C208.469 319.399 105.137 275.253 103.402 274.51C102.602 275.736 100.709 278.596 100.587 278.812C99.5329 282.53 101.949 285.962 103.273 288.278C105.168 291.61 106.684 295.145 107.793 298.816C110.183 305.36 105.668 309.016 99.0716 311.571C97.2045 312.319 95.2483 312.821 93.252 313.067C94.1315 313.34 95.0086 313.62 95.881 313.885C96.081 313.945 96.2569 314.066 96.3833 314.231C96.5095 314.399 96.5798 314.602 96.5836 314.81V329.979C128.289 342.809 127.056 342.235 127.298 342.407C127.489 342.467 127.657 342.586 127.778 342.749C127.898 342.909 127.964 343.105 127.967 343.306V400.173C127.961 400.381 127.89 400.582 127.764 400.747C127.638 400.914 127.463 401.036 127.264 401.098L126.946 401.227C136.028 405.106 202.807 433.958 208.746 436.162C209.846 436.571 211.148 435.696 212.176 435.256L265.234 412.594L240.992 346.444C240.928 346.198 240.961 345.937 241.088 345.717C241.212 345.497 241.418 345.335 241.661 345.266C243.573 344.549 298.859 324.757 309.989 320.792C310.19 320.715 310.412 320.723 310.611 320.809C310.807 320.895 310.962 321.055 311.043 321.253C311.234 321.492 309.542 316.913 333.366 383.494L359.137 372.5C359.283 372.416 359.405 372.296 359.488 372.151C359.574 372.005 359.617 371.84 359.615 371.673V256.391C346.979 273.023 309.576 282.428 289.237 285.819Z" fill="white"/>
<path d="M232.116 76.2707C231.184 77.0809 232.544 78.4337 233.471 77.6258C238.098 73.6035 249.553 63.6324 250.66 62.6788C251.604 61.7307 252.758 61.0175 254.03 60.5971C254.529 60.496 255.043 60.497 255.54 60.6C256.038 60.7027 256.511 60.9054 256.929 61.1958C257.345 61.4862 257.701 61.8581 257.971 62.2892C258.241 62.7201 258.42 63.2015 258.499 63.7041C258.662 64.9134 260.55 64.9326 260.411 63.7041C260.311 62.7072 259.948 61.7548 259.36 60.9434C258.772 60.132 257.978 59.4905 257.063 59.084C256.147 58.6772 255.141 58.5199 254.145 58.6277C253.148 58.7358 252.199 59.105 251.391 59.6985C248.471 61.7993 250.488 60.2983 232.116 76.2707Z" fill="#EAEAEA"/>
<path d="M169.974 60.2956C169.169 59.5855 168.203 59.0824 167.16 58.83C166.116 58.5776 165.027 58.5836 163.987 58.8472C162.918 59.1845 161.97 59.8235 161.256 60.6873C160.543 61.551 160.094 62.6029 159.964 63.7157C159.821 64.9393 161.742 64.9298 161.876 63.7157C161.962 63.2183 162.146 62.7429 162.415 62.3163C162.685 61.8899 163.037 61.5207 163.449 61.2301C163.862 60.9392 164.328 60.7327 164.82 60.622C165.313 60.5111 165.822 60.4987 166.319 60.5848C167.595 60.9382 168.762 61.6062 169.713 62.5278C170.894 63.5173 182.691 73.5983 187.42 77.6326C188.353 78.4285 189.715 77.0805 188.776 76.2775C187.026 74.7718 170.953 61.0317 169.974 60.2956Z" fill="#EAEAEA"/>
<path d="M338.356 397.413C317.324 338.619 311.206 321.456 311.06 321.275C310.979 321.076 310.823 320.916 310.627 320.83C310.429 320.744 310.207 320.737 310.006 320.813C298.876 324.778 243.595 344.572 241.678 345.287C241.435 345.356 241.229 345.519 241.105 345.739C240.978 345.959 240.945 346.219 241.009 346.465C241.009 346.465 268.109 420.4 268.126 420.443C268.183 420.644 268.303 420.823 268.47 420.952C268.635 421.081 268.838 421.155 269.049 421.16L276.039 420.964C282.784 420.773 283.759 421.136 285.915 419.953L337.687 398.603C337.933 398.531 338.139 398.367 338.265 398.144C338.39 397.922 338.423 397.659 338.356 397.413Z" fill="#62908A"/>
<path d="M256.814 340.822C256.405 339.668 254.551 340.165 254.967 341.332C255.079 341.652 282.896 419.984 282.911 420.029C283.322 421.184 285.174 420.687 284.76 419.518C248.129 316.401 259.766 349.178 256.814 340.822Z" fill="white"/>
<path d="M282.848 371.455L308.474 361.343C309.609 360.896 309.114 359.041 307.965 359.496L282.339 369.608C281.204 370.055 281.699 371.914 282.848 371.455Z" fill="white"/>
<path d="M285.207 376.01C284.077 376.465 284.569 378.319 285.716 377.86L310.517 367.918C311.648 367.464 311.153 365.609 310.006 366.07L285.207 376.01Z" fill="white"/>
<path d="M127.307 342.429C127.5 342.493 127.668 342.617 127.785 342.785C127.902 342.95 127.963 343.148 127.96 343.354C127.956 343.557 127.887 343.753 127.764 343.915C127.641 344.075 127.469 344.195 127.274 344.252L69.6486 367.495V423.225C69.6486 423.478 69.5478 423.722 69.3685 423.901C69.1893 424.081 68.946 424.181 68.6927 424.181C68.4391 424.181 68.1958 424.081 68.0165 423.901C67.8373 423.722 67.7367 423.478 67.7367 423.225V367.507L10.3121 344.252C10.1133 344.192 9.94 344.068 9.81906 343.898C9.69813 343.731 9.63599 343.528 9.64292 343.32C9.10517 345.844 9.00718 356.133 9.60946 400.283C9.61329 400.491 9.68355 400.694 9.80974 400.859C9.93617 401.027 10.1121 401.149 10.3121 401.208C71.0564 425.789 68.2027 424.649 68.37 424.7C69.1491 424.795 65.2152 426.241 127.284 401.12C127.482 401.058 127.657 400.936 127.783 400.768C127.908 400.604 127.98 400.403 127.986 400.195V343.327C127.983 343.124 127.915 342.928 127.793 342.768C127.671 342.605 127.501 342.486 127.307 342.429Z" fill="white"/>
<path d="M268.927 403.811C269.333 404.968 271.185 404.468 270.776 403.3C269.087 398.498 255.76 360.571 255.76 360.571C255.354 359.414 253.502 359.914 253.913 361.083C255.6 365.884 268.31 402.052 268.927 403.811Z" fill="white"/>
<path d="M127.307 342.429C127.068 342.242 127.965 342.684 96.5934 330.001V342.593C96.5936 342.761 96.5497 342.926 96.4658 343.071C96.3819 343.217 96.2609 343.339 96.1154 343.423C95.1331 343.901 93.4553 344.618 92.4515 345.026C91.7345 345.328 90.6232 346.064 89.8369 345.887C89.5548 345.798 90.714 346.238 58.1502 333.203C57.9507 333.143 57.7753 333.021 57.6486 332.857C57.5222 332.689 57.4509 332.489 57.4452 332.281V323.397C9.45162 342.756 10.5056 342.247 10.269 342.433C10.0761 342.498 9.90834 342.622 9.79075 342.787C9.67293 342.954 9.61126 343.153 9.61437 343.356C9.61772 343.559 9.68559 343.755 9.80844 343.918C9.93128 344.08 10.1026 344.2 10.2977 344.257C10.6944 344.417 64.8709 366.362 67.7222 367.512V423.23C67.7222 423.483 67.8231 423.727 68.0023 423.906C68.1816 424.085 68.4246 424.186 68.6782 424.186C68.9318 424.186 69.1748 424.085 69.3543 423.906C69.5336 423.727 69.6342 423.483 69.6342 423.23C69.8278 412.059 69.9592 387.141 69.6342 367.5C73.0089 366.13 127.028 344.35 127.259 344.257C127.457 344.202 127.632 344.085 127.758 343.925C127.884 343.762 127.955 343.566 127.96 343.361C127.966 343.155 127.905 342.954 127.788 342.787C127.67 342.62 127.502 342.493 127.307 342.429Z" fill="#EAEAEA"/>
<path d="M129.217 279.488C121.197 277.246 113.382 274.326 105.857 270.76L103.402 274.51C105.933 275.592 202.786 317.291 208.756 319.506C209.846 319.91 211.132 319.052 212.155 318.617L289.237 285.819C241.265 294.065 178.076 293.211 129.217 279.488Z" fill="white"/>
<path d="M356.874 230.684C349.027 222.797 336.415 217.269 325.904 213.608C321.007 224.89 313.789 235.015 304.717 243.32C310.238 241.984 315.83 240.963 321.466 240.261C322.69 240.108 322.673 242.027 321.466 242.173C314.681 243.028 307.963 244.364 301.366 246.171C289.889 255.631 276.983 263.205 263.126 268.606L263.052 268.621C263.028 268.621 263.016 268.649 262.992 268.659C246.759 275.009 232.878 276.498 221.571 275.25C228.636 279.593 235.636 284.038 242.572 288.582C243.574 289.392 242.589 290.881 241.604 290.236C240.902 289.777 217.821 275.207 216.691 274.521C204.064 272.218 192.558 265.798 183.967 256.262C171.27 249.847 157.728 245.258 143.746 242.639C142.531 242.421 143.048 240.579 144.255 240.789C156.869 243.107 169.123 247.079 180.7 252.6C178.972 250.641 177.435 248.518 176.109 246.267C175.469 245.414 175.057 244.41 174.913 243.353C174.769 242.297 174.898 241.222 175.286 240.227C175.679 239.618 176.198 239.102 176.809 238.714C177.42 238.327 178.109 238.076 178.826 237.981L140.519 221.621C137.904 224.826 128.772 236.035 126.49 239.453C122.941 244.761 106.206 270.227 105.857 270.762C145.184 289.457 207.511 293.132 251.422 290.14C284.629 287.879 305.271 283.357 325.034 276.885C336.399 273.166 352.354 265.965 359.625 256.393C365.707 248.389 365.385 239.25 356.874 230.684ZM354.835 247.689C353.779 248.893 352.722 250.098 351.664 251.305C350.849 252.235 349.498 250.872 350.309 249.947L353.48 246.334C354.295 245.404 355.645 246.764 354.835 247.689Z" fill="#62908A"/>
<path d="M95.8907 313.894C95.0088 313.629 94.1316 313.349 93.2617 313.077C92.5423 313.165 91.8121 313.101 91.1198 312.888C90.4274 312.673 89.7888 312.312 89.2465 311.832L83.0659 309.92L83.1376 309.972C83.8792 310.391 84.5018 310.993 84.9469 311.719C85.3916 312.446 85.6443 313.275 85.6806 314.126C85.5859 315.053 85.2301 315.935 84.6543 316.669C84.0786 317.403 83.3066 317.96 82.4278 318.273C80.4568 318.937 78.3521 319.107 76.2998 318.768C74.51 318.646 72.749 318.254 71.0777 317.601C69.3681 316.932 67.8978 315.768 66.857 314.255C65.2846 311.268 64.8759 307.802 65.7098 304.53C65.2779 304.353 64.8233 304.239 64.3594 304.191C62.4113 306.5 60.0768 308.455 57.4595 309.965V332.271C57.4659 332.479 57.5374 332.68 57.6638 332.845C57.7902 333.01 57.9654 333.131 58.1645 333.194C62.488 334.924 89.409 345.739 89.8511 345.877C90.6374 346.054 91.7464 345.318 92.4658 345.017C93.4744 344.596 95.1378 343.886 96.1297 343.413C96.2752 343.33 96.3962 343.208 96.48 343.062C96.5639 342.916 96.6079 342.751 96.6077 342.584V314.819C96.6024 314.609 96.53 314.406 96.4009 314.238C96.2721 314.071 96.0933 313.952 95.8907 313.894Z" fill="#62908A"/>
<path d="M224.217 128.291C224.398 128.467 224.642 128.565 224.895 128.565C225.146 128.565 225.39 128.467 225.572 128.291L259.302 90.8707C260.124 89.9578 258.774 88.5955 257.944 89.5156L224.838 126.245L187.523 91.1121C186.624 90.2685 185.267 91.6212 186.168 92.4673C186.438 92.723 223.81 127.894 224.217 128.291Z" fill="white"/>
<path d="M224.674 74.7725C224.322 72.2649 223.297 69.8992 221.71 67.9261C220.123 65.9531 218.032 64.4457 215.658 63.5638C213.285 62.6822 210.716 62.4587 208.226 62.9171C205.735 63.3757 203.417 64.499 201.512 66.1685C199.6 67.8907 198.188 70.0976 197.425 72.556C196.663 75.0146 196.579 77.6333 197.181 80.1356C198.46 79.5073 199.911 79.3228 201.304 79.6108C202.698 79.899 203.957 80.6435 204.882 81.7269C205.805 82.81 206.342 84.1704 206.407 85.5927C206.471 87.015 206.06 88.4184 205.238 89.5809C207.009 90.3579 208.923 90.7572 210.857 90.7534C212.791 90.7498 214.703 90.3431 216.471 89.5594C215.768 88.5398 215.374 87.3386 215.336 86.1003C215.298 84.8618 215.62 83.6391 216.261 82.5789C216.901 81.5185 217.836 80.666 218.95 80.1237C220.063 79.5811 221.308 79.3722 222.539 79.5214C223.189 79.5752 223.82 79.7527 224.404 80.0448C224.862 78.3259 224.953 76.5296 224.674 74.7725Z" fill="white"/>
<path d="M202.138 79.8247C201.01 79.423 199.791 79.3446 198.622 79.5982C197.451 79.8517 196.376 80.4272 195.515 81.2597C194.655 82.0924 194.043 83.1487 193.751 84.3098C193.458 85.4711 193.496 86.6907 193.859 87.8315C194.225 88.9724 194.899 89.9889 195.809 90.7664C196.72 91.5441 197.829 92.0517 199.014 92.2324C200.197 92.4131 201.409 92.2592 202.508 91.7886C203.61 91.318 204.557 90.5491 205.245 89.5687C205.823 88.7612 206.206 87.8298 206.361 86.8485C206.516 85.8671 206.44 84.8633 206.136 83.9166C205.835 82.9702 205.317 82.1074 204.624 81.3969C203.928 80.6863 203.077 80.1481 202.138 79.8247Z" fill="#EAEAEA"/>
<path d="M222.534 79.5188C221.502 79.3957 220.452 79.5245 219.482 79.8947C218.509 80.2649 217.642 80.8651 216.951 81.6442C216.26 82.4231 215.77 83.3576 215.522 84.3676C215.271 85.3776 215.271 86.433 215.517 87.4438C215.766 88.4543 216.253 89.3897 216.941 90.17C217.63 90.9506 218.497 91.5527 219.468 91.9248C220.44 92.2969 221.487 92.4281 222.52 92.3069C223.555 92.186 224.542 91.8163 225.402 91.2298C226.49 90.4936 227.326 89.4425 227.797 88.2172C228.27 86.9921 228.356 85.6518 228.043 84.3764C227.73 83.1009 227.034 81.9518 226.05 81.0835C225.065 80.215 223.839 79.6691 222.534 79.5188Z" fill="#EAEAEA"/>
<path d="M69.1705 356.064L38.7339 343.067C37.613 342.589 36.6355 344.238 37.7779 344.721L68.2124 357.72C69.3237 358.198 70.301 356.549 69.1705 356.064Z" fill="white"/>
<path d="M80.4324 350.746L49.415 337.498C48.2941 337.02 47.3166 338.669 48.447 339.154L79.4597 352.397C80.583 352.88 81.5605 351.229 80.4324 350.746Z" fill="white"/>
<path d="M208.481 446.898V453.764C208.481 454.02 208.581 454.261 208.761 454.441C208.94 454.62 209.184 454.72 209.437 454.72C209.69 454.72 209.934 454.62 210.113 454.441C210.293 454.261 210.393 454.02 210.393 453.764V446.898C210.393 446.645 210.293 446.403 210.113 446.224C209.934 446.045 209.69 445.942 209.437 445.942C209.184 445.942 208.94 446.045 208.761 446.224C208.581 446.403 208.481 446.645 208.481 446.898Z" fill="white"/>
<path d="M357.641 378.996V386.254C357.641 386.507 357.742 386.751 357.921 386.93C358.1 387.11 358.344 387.21 358.597 387.21C358.85 387.21 359.094 387.11 359.273 386.93C359.453 386.751 359.553 386.507 359.553 386.254V379.005C359.553 378.752 359.453 378.508 359.273 378.329C359.094 378.149 358.85 378.049 358.597 378.049C358.344 378.049 358.1 378.149 357.921 378.329C357.742 378.508 357.641 378.752 357.641 379.005V378.996Z" fill="white"/>
<path d="M210.369 325.01C210.369 324.757 210.269 324.513 210.089 324.334C209.91 324.155 209.666 324.054 209.413 324.054C209.16 324.054 208.916 324.155 208.737 324.334C208.558 324.513 208.457 324.757 208.457 325.01V377.043L131.843 344.123C130.725 343.645 129.745 345.292 130.887 345.777L208.462 379.11V433.865C208.462 434.118 208.562 434.362 208.742 434.542C208.921 434.721 209.165 434.821 209.418 434.821C209.671 434.821 209.915 434.721 210.094 434.542C210.274 434.362 210.374 434.118 210.374 433.865C211.189 385.351 210.814 351.487 210.369 325.01Z" fill="white"/>
<path d="M156.809 377.595L175.463 385.563C176.587 386.041 177.564 384.392 176.431 383.909L157.775 375.941C156.654 375.461 155.677 377.11 156.809 377.595Z" fill="white"/>
<path d="M176.431 338.215L157.775 330.249C156.654 329.771 155.676 331.42 156.819 331.903L175.473 339.871C176.587 340.366 177.564 338.693 176.431 338.215Z" fill="white"/>
<path d="M46.3605 379.758L27.7041 371.79C26.5832 371.312 25.6057 372.961 26.7481 373.444L45.4021 381.412C46.5158 381.892 47.4933 380.241 46.3605 379.758Z" fill="white"/>
<path d="M191.51 229.207C173.661 213.964 152.032 210.173 130.197 215.14L136.889 218.008C162.34 215.393 183.164 224.924 197.012 242.409C197.49 242.531 199.471 243.095 203.051 243.714C200.2 238.165 196.275 233.234 191.51 229.207Z" fill="white"/>
<path d="M140.701 219.625C189.058 240.282 186.728 239.53 193.778 241.544C187.318 233.925 179.131 227.96 169.898 224.148C160.665 220.335 150.655 218.784 140.701 219.625Z" fill="white"/>
<path d="M209.277 243.891C205.917 235.925 200.972 228.724 194.743 222.727C188.513 216.731 181.129 212.063 173.04 209.009C155.638 203.229 136.748 203.822 119.743 210.682L127.152 213.84C151.938 207.812 175.468 211.928 194.437 229.267C198.809 233.232 202.384 237.993 204.972 243.296C205.08 243.521 205.094 243.779 205.015 244.013C206.488 244.231 208.075 244.415 209.215 244.52C209.165 244.309 209.186 244.087 209.277 243.891Z" fill="white"/>
<path d="M223.29 244.262C228.172 243.609 232.924 242.201 237.374 240.089C238.705 239.451 238.476 239.673 239.214 238.755L239.386 238.949C239.2 238.095 239.13 238.875 250.38 224.054C241.547 227.291 228.631 236.372 223.29 244.262Z" fill="white"/>
<path d="M265.877 202.855C242.933 209.635 220.756 222.537 211.517 244.699C212.661 244.766 213.328 244.785 214.062 244.797C213.974 244.663 213.933 244.505 213.945 244.348C213.954 244.188 214.017 244.037 214.122 243.918C225.861 228.387 241.807 216.547 260.069 209.8C260.222 209.734 260.394 209.718 260.557 209.756C260.72 209.793 260.865 209.882 260.975 210.008C262.773 207.618 264.57 205.228 266.37 202.838C266.207 202.799 266.037 202.805 265.877 202.855Z" fill="white"/>
<path d="M215.842 244.804C217.534 244.79 219.219 244.704 220.9 244.544C220.916 244.434 220.957 244.326 221.014 244.231C226.124 235.866 241.458 224.341 252.39 221.394C254.73 218.3 257.067 215.203 259.4 212.104C242.135 218.764 227.056 230.084 215.842 244.804Z" fill="white"/>
<path d="M128.232 291.574V339.047C128.232 339.3 128.333 339.541 128.512 339.723C128.691 339.902 128.934 340.003 129.188 340.003C129.442 340.003 129.685 339.902 129.864 339.723C130.043 339.541 130.144 339.3 130.144 339.047V291.574C130.144 291.321 130.043 291.077 129.864 290.898C129.685 290.719 129.442 290.618 129.188 290.618C128.934 290.618 128.691 290.719 128.512 290.898C128.333 291.077 128.232 291.321 128.232 291.574Z" fill="white"/>
<path d="M91.3759 316.815C91.3759 316.562 91.2752 316.318 91.0958 316.139C90.9165 315.959 90.6734 315.859 90.4199 315.859C90.1663 315.859 89.9232 315.959 89.744 316.139C89.5645 316.318 89.4639 316.562 89.4639 316.815V344.281C89.4639 344.534 89.5645 344.778 89.744 344.957C89.9232 345.136 90.1663 345.237 90.4199 345.237C90.6734 345.237 90.9165 345.136 91.0958 344.957C91.2752 344.778 91.3759 344.534 91.3759 344.281V316.815Z" fill="white"/>
<path d="M79.2371 327.245L67.5858 323.244C66.4171 322.843 65.9128 324.692 67.0768 325.092L78.728 329.092C79.8848 329.494 80.3891 327.642 79.2371 327.245Z" fill="white"/>
<path d="M79.2369 333.246L67.5856 328.688C66.436 328.239 65.9389 330.091 67.0766 330.538L78.7278 335.094C79.8654 335.543 80.365 333.691 79.2369 333.246Z" fill="white"/>
<path d="M126.146 238.141C120.503 235.631 114.872 233.122 109.342 230.918C103.696 228.672 84.5215 221.186 82.6286 220.376C82.4073 220.258 82.1494 220.227 81.9068 220.29C81.664 220.354 81.4539 220.507 81.3189 220.718C69.4411 236.764 58.4019 253.415 48.2461 270.604C38.5355 286.338 35.8635 286.101 34.4223 291.235C34.1506 292.212 34.1267 293.245 34.3528 294.234C34.5789 295.224 35.048 296.144 35.7177 296.906C36.5542 297.664 37.5912 298.166 38.7047 298.35C39.8182 298.536 40.9616 298.398 41.9986 297.951C45.5186 296.88 48.8273 295.209 51.7785 293.011C50.4891 295.513 48.9313 297.869 47.1324 300.035C44.9001 302.721 42.1133 306.674 44.6802 310.104C47.596 313.999 53.1599 312.467 57.45 309.963C60.8325 307.876 63.7885 305.168 66.1615 301.98C65.2772 306.473 64.6319 310.601 66.8475 314.253C67.8883 315.766 69.3584 316.93 71.0682 317.599C72.7395 318.251 74.5005 318.643 76.2903 318.765C78.3426 319.107 80.4473 318.937 82.4183 318.27C83.2969 317.957 84.0691 317.403 84.6448 316.669C85.2206 315.933 85.5765 315.051 85.6711 314.124C85.9531 311.256 82.6836 310.061 81.546 308.491C81.3256 308.068 81.2207 307.597 81.2417 307.121C81.2627 306.645 81.4088 306.184 81.6655 305.783C82.8597 303.926 84.3614 302.288 86.1061 300.936L88.8689 298.355C89.4592 297.805 90.2886 296.753 91.2087 297.064C91.5412 297.274 91.8268 297.554 92.0474 297.879C92.268 298.206 92.4188 298.574 92.4905 298.962C92.5622 299.349 92.5533 299.748 92.4644 300.133C92.3755 300.515 92.2082 300.878 91.9735 301.194C91.0175 302.958 89.4306 304.301 88.6108 306.155C88.1713 306.961 87.9578 307.869 87.9927 308.785C88.0276 309.7 88.3097 310.589 88.8092 311.359C89.3409 312.001 90.0285 312.496 90.8063 312.797C91.584 313.101 92.426 313.196 93.2522 313.082C95.2473 312.831 97.2029 312.329 99.0718 311.586C105.647 309.04 110.178 305.372 107.793 298.83C104.581 288.13 100.527 285.776 100.384 281.213C100.305 280.41 100.377 279.6 100.597 278.823C100.774 278.496 126.335 239.704 126.499 239.455C126.563 239.345 126.605 239.226 126.622 239.099C126.639 238.975 126.63 238.846 126.597 238.724C126.564 238.602 126.508 238.487 126.43 238.387C126.352 238.287 126.256 238.203 126.146 238.141Z" fill="white"/>
<path d="M263.413 267.062C255.234 256.752 246.75 249.216 239.898 239.85C239.757 239.625 239.532 239.467 239.272 239.408C239.013 239.35 238.743 239.398 238.519 239.539C224.817 246.635 208.644 245.796 193.778 241.544C184.182 238.801 183.582 237.226 178.826 237.981C178.111 238.084 177.426 238.339 176.817 238.727C176.207 239.114 175.685 239.625 175.287 240.227C174.898 241.219 174.769 242.297 174.913 243.354C175.057 244.41 175.469 245.414 176.109 246.267C178.351 249.878 180.987 253.229 183.967 256.262C204.982 278.871 234.36 279.885 262.99 268.664C263.148 268.611 263.289 268.523 263.401 268.403C263.516 268.284 263.597 268.138 263.638 267.978C263.681 267.818 263.683 267.65 263.642 267.49C263.604 267.33 263.525 267.184 263.413 267.062Z" fill="white"/>
<path d="M204.791 265.349C202.035 263.661 199.397 261.792 196.892 259.754C193.501 256.611 190.487 251.546 193.355 248.007C193.881 247.474 194.543 247.094 195.269 246.912C195.996 246.731 196.758 246.752 197.473 246.974C199.421 247.589 201.328 248.32 203.187 249.166C206.397 250.588 209.908 251.205 213.412 250.958C214.846 250.858 214.846 248.623 213.412 248.721C205.429 249.264 201.065 244.828 196.467 244.594C194.861 244.522 193.289 245.084 192.089 246.155C190.89 247.225 190.157 248.724 190.047 250.33C190.01 252.134 190.344 253.924 191.03 255.595C191.716 257.263 192.738 258.771 194.034 260.029C196.942 262.822 200.173 265.258 203.663 267.282C204.844 268.109 205.962 266.171 204.791 265.349Z" fill="black"/>
<path d="M240.596 54.7866C239.131 51.0037 236.404 47.8431 232.876 45.8398C229.348 43.8365 225.235 43.1133 221.237 43.7926C216.815 44.5404 212.669 46.4359 209.21 49.2896C205.871 51.7998 203.336 55.228 201.911 59.1555C200.178 63.4862 199.127 68.0487 197.406 72.3793C197.375 72.4797 197.365 72.5861 197.382 72.69C198.092 70.1535 199.524 67.8778 201.503 66.1391C203.41 64.4763 205.728 63.3583 208.216 62.9035C210.706 62.4487 213.271 62.6733 215.642 63.5543C218.013 64.4352 220.104 65.9395 221.691 67.9086C223.278 69.878 224.306 72.2391 224.664 74.7431C225.895 75.0597 227.188 75.0408 228.409 74.6881C230.295 74.1264 230.56 72.3889 230.221 70.7016C230.749 70.9826 231.332 71.143 231.93 71.1712C232.527 71.1994 233.122 71.0947 233.674 70.8646C234.226 70.6346 234.721 70.285 235.12 69.8412C235.522 69.3971 235.818 68.8699 235.99 68.2972C236.284 67.0023 236.201 65.6503 235.749 64.4013C235.3 63.1523 234.499 62.0586 233.447 61.2491C235.213 61.1832 236.953 60.8036 238.586 60.1282C239.532 59.6545 240.264 58.8414 240.636 57.8513C241.009 56.8608 240.995 55.7665 240.596 54.7866Z" fill="black"/>
<path d="M28.2035 267.371C29.2766 268.327 30.8635 266.747 29.7856 265.788L10.5868 248.752C9.51366 247.796 7.9267 249.376 9.00698 250.335C11.6623 252.694 26.1983 265.592 28.2035 267.371Z" fill="black"/>
<path d="M25.9807 277.748C26.2773 277.748 26.5615 277.629 26.7711 277.418C26.9807 277.21 27.0987 276.926 27.0992 276.629C27.0937 276.333 26.9742 276.053 26.7656 275.843C26.5569 275.635 26.2756 275.516 25.9807 275.511L1.50231 272.275C1.20595 272.275 0.921777 272.394 0.712174 272.602C0.502571 272.813 0.384506 273.097 0.383789 273.393C0.389286 273.687 0.509025 273.969 0.717672 274.177C0.92608 274.388 1.20738 274.507 1.50231 274.512L25.9807 277.748Z" fill="black"/>
<path d="M26.5446 286.216C27.8424 285.597 26.7096 283.668 25.4166 284.285C20.0964 286.813 7.94089 292.599 7.18087 292.96C5.88071 293.577 7.01596 295.506 8.30895 294.891L26.5446 286.216Z" fill="black"/>
<path d="M360.062 156.426C360.062 156.723 360.179 157.007 360.389 157.217C360.6 157.427 360.884 157.545 361.18 157.545C361.477 157.545 361.761 157.427 361.971 157.217C362.182 157.007 362.299 156.723 362.299 156.426C362.404 143.272 359.505 130.268 353.826 118.404C353.224 117.099 351.293 118.234 351.895 119.532C357.356 131.059 360.148 143.67 360.062 156.426Z" fill="black"/>
<path d="M365.337 114.733C365.251 114.451 365.062 114.213 364.806 114.067C364.551 113.922 364.249 113.88 363.963 113.951C363.822 113.99 363.688 114.056 363.573 114.146C363.456 114.236 363.36 114.348 363.286 114.476C363.215 114.604 363.167 114.744 363.15 114.89C363.131 115.036 363.143 115.184 363.181 115.325C370.609 132.61 372.113 142.399 371.866 156.433C371.881 156.721 372.003 156.992 372.211 157.19C372.419 157.389 372.696 157.5 372.985 157.5C373.272 157.5 373.549 157.389 373.757 157.19C373.965 156.992 374.089 156.721 374.101 156.433C374.641 139.505 371.276 129.104 365.337 114.733Z" fill="black"/>
<path d="M378.298 110.302C378.147 110.045 377.901 109.86 377.614 109.784C377.328 109.709 377.022 109.751 376.766 109.9C376.515 110.054 376.333 110.3 376.259 110.585C376.183 110.87 376.223 111.173 376.367 111.43C379.075 117.456 381.147 123.748 382.55 130.203C384.053 138.859 384.653 147.647 384.337 156.426C384.337 156.723 384.454 157.008 384.665 157.217C384.875 157.427 385.16 157.545 385.456 157.545C385.752 157.545 386.037 157.427 386.247 157.217C386.457 157.008 386.574 156.723 386.574 156.426C386.904 137.34 385.42 126.972 378.298 110.302Z" fill="black"/>
<path d="M202.513 33.5375C202.666 33.7866 202.91 33.9656 203.194 34.0365C203.479 34.1078 203.778 34.065 204.031 33.9175C204.282 33.7701 204.468 33.5296 204.545 33.2478C204.621 32.9661 204.585 32.6652 204.444 32.4094C202.31 28.6428 196.854 19.6468 196.854 19.6468C196.703 19.3909 196.459 19.2047 196.17 19.1296C195.883 19.0546 195.58 19.0967 195.324 19.2465C195.066 19.3964 194.882 19.6418 194.806 19.9291C194.731 20.2161 194.772 20.5213 194.923 20.7773C196.502 23.564 202.365 33.2961 202.513 33.5375Z" fill="black"/>
<path d="M209.545 32.9735C209.545 33.2701 209.662 33.5545 209.872 33.7644C210.082 33.9742 210.367 34.092 210.663 34.092C210.959 34.092 211.244 33.9742 211.454 33.7644C211.665 33.5545 211.782 33.2701 211.782 32.9735C211.782 32.9735 211.61 3.11523 211.583 1.82702C211.583 1.53037 211.466 1.24586 211.256 1.03609C211.046 0.826324 210.761 0.708496 210.465 0.708496C210.168 0.708496 209.884 0.826324 209.674 1.03609C209.463 1.24586 209.346 1.53037 209.346 1.82702C208.756 43.0832 209.492 30.4951 209.545 32.9735Z" fill="black"/>
<path d="M219.413 33.5371L226.523 20.7768C227.226 19.5173 225.295 18.3868 224.592 19.6464L217.482 32.409C216.779 33.6685 218.71 34.7966 219.413 33.5371Z" fill="black"/>
<path d="M57.5769 284.316C57.8341 284.459 58.1374 284.5 58.4227 284.423C58.7081 284.349 58.9533 284.168 59.1065 283.914L63.6642 277.853C63.8129 277.597 63.8542 277.291 63.7792 277.005C63.7039 276.718 63.5182 276.474 63.2627 276.324C63.0056 276.178 62.702 276.139 62.4164 276.214C62.1308 276.29 61.8856 276.472 61.7331 276.725L57.1754 282.786C57.027 283.042 56.9861 283.348 57.0611 283.635C57.1364 283.919 57.3217 284.165 57.5769 284.316Z" fill="black"/>
<path d="M79.3235 280.499C79.0661 280.353 78.7628 280.315 78.4774 280.389C78.1921 280.465 77.9469 280.647 77.7939 280.9L73.1836 287.095C73.0337 287.351 72.9917 287.655 73.0665 287.941C73.1413 288.228 73.327 288.474 73.5827 288.625C73.8399 288.771 74.1434 288.809 74.4295 288.735C74.7154 288.661 74.961 288.477 75.1147 288.226L79.725 282.029C79.8732 281.77 79.9141 281.467 79.839 281.18C79.7638 280.893 79.5785 280.65 79.3235 280.499Z" fill="black"/>
<path d="M28.3159 267.256C29.2361 268.073 30.5984 266.723 29.6711 265.901L10.4746 248.867C9.55443 248.05 8.19451 249.403 9.11944 250.222L28.3159 267.256Z" fill="black"/>
<path d="M0.543945 273.396C0.548725 273.647 0.651017 273.888 0.829311 274.065C1.00761 274.244 1.2478 274.347 1.49994 274.352L25.9783 277.588C26.2319 277.588 26.475 277.488 26.6542 277.308C26.8335 277.129 26.9343 276.885 26.9343 276.632C26.9288 276.379 26.8263 276.14 26.6482 275.96C26.4702 275.783 26.2302 275.681 25.9783 275.676L1.49994 272.44C1.24637 272.44 1.0033 272.54 0.823814 272.719C0.644564 272.899 0.543945 273.142 0.543945 273.396Z" fill="black"/>
<path d="M25.4956 284.423L7.26227 293.097C6.14853 293.627 7.11887 295.281 8.21827 294.753L26.4516 286.077C27.5773 285.547 26.6069 283.895 25.4956 284.423Z" fill="black"/>
<path d="M362.141 156.426C362.258 143.3 359.366 130.321 353.69 118.485C353.174 117.366 351.523 118.337 352.036 119.453C357.514 131.004 360.313 143.642 360.225 156.426C360.186 157.659 362.103 157.657 362.141 156.426Z" fill="black"/>
<path d="M363.334 115.282C370.681 132.373 372.275 142.205 372.026 156.426C372.026 156.679 372.127 156.922 372.306 157.102C372.485 157.281 372.729 157.382 372.982 157.382C373.236 157.382 373.479 157.281 373.659 157.102C373.838 156.922 373.938 156.679 373.938 156.426C374.433 139.074 370.939 128.702 365.179 114.775C364.718 113.65 362.863 114.142 363.334 115.282Z" fill="black"/>
<path d="M384.498 156.427C384.498 156.68 384.598 156.923 384.777 157.103C384.957 157.282 385.2 157.383 385.454 157.383C385.707 157.383 385.951 157.282 386.13 157.103C386.309 156.923 386.41 156.68 386.41 156.427C386.766 135.959 384.82 125.978 378.155 110.381C377.677 109.251 376.018 110.226 376.501 111.349C379.175 117.402 381.252 123.703 382.698 130.161C384.208 138.83 384.811 147.633 384.498 156.427Z" fill="black"/>
<path d="M203.976 33.7526C204.181 33.6231 204.327 33.4207 204.389 33.1865C204.451 32.9525 204.42 32.7037 204.306 32.4907C202.174 28.7241 196.715 19.7281 196.715 19.7281C196.648 19.6213 196.56 19.5288 196.457 19.4561C196.354 19.3835 196.237 19.3319 196.115 19.3041C195.991 19.2767 195.864 19.2738 195.74 19.2955C195.616 19.3175 195.496 19.3637 195.391 19.4318C195.185 19.5613 195.037 19.764 194.975 19.9987C194.915 20.2334 194.946 20.4827 195.061 20.6961C197.212 24.4866 198.703 27.0367 202.652 33.4587C202.719 33.565 202.807 33.6573 202.91 33.7297C203.013 33.8024 203.13 33.8537 203.252 33.881C203.376 33.9082 203.503 33.9111 203.627 33.8891C203.751 33.8669 203.871 33.8205 203.976 33.7526Z" fill="black"/>
<path d="M210.699 33.8982C210.94 33.8899 211.172 33.7895 211.342 33.6179C211.514 33.446 211.614 33.2156 211.622 32.9733C211.672 29.4552 211.433 3.11494 211.423 1.82673C211.423 1.57317 211.323 1.33001 211.144 1.15074C210.964 0.971442 210.721 0.870728 210.467 0.870728C210.214 0.870728 209.97 0.971442 209.791 1.15074C209.612 1.33001 209.511 1.57317 209.511 1.82673C209.461 5.37827 209.638 21.6638 209.712 32.9733C209.717 33.0988 209.745 33.2223 209.796 33.3368C209.848 33.4513 209.922 33.5543 210.013 33.6404C210.106 33.7262 210.214 33.7931 210.331 33.8373C210.448 33.8817 210.572 33.9023 210.699 33.8982Z" fill="black"/>
<path d="M219.275 33.4583C221.349 29.7347 226.088 21.2263 226.387 20.6957C226.987 19.6178 225.333 18.6498 224.731 19.7397L217.621 32.5023C217.018 33.5682 218.672 34.5362 219.275 33.4583Z" fill="black"/>
<path d="M58.9673 283.833L63.525 277.772C64.2659 276.787 62.6025 275.829 61.8687 276.816L57.3134 282.877C56.5725 283.852 58.2359 284.81 58.9673 283.833Z" fill="black"/>
<path d="M74.9759 288.144L79.5862 281.95C80.3247 280.958 78.6589 280.002 77.9323 280.982L73.3196 287.177C72.5835 288.166 74.2469 289.124 74.9759 288.144Z" fill="black"/>
<path d="M190.207 250.328C190.169 252.111 190.499 253.881 191.177 255.531C191.855 257.18 192.867 258.671 194.148 259.914C197.045 262.698 200.267 265.124 203.742 267.141C204.755 267.858 205.713 266.185 204.712 265.487C201.944 263.793 199.294 261.914 196.777 259.866C193.252 256.597 190.307 251.501 193.24 247.892C193.785 247.335 194.473 246.943 195.226 246.755C195.981 246.566 196.772 246.587 197.516 246.821C203.082 248.478 206.146 251.303 213.412 250.798C214.635 250.712 214.645 248.796 213.412 248.886C205.455 249.427 201.058 245.036 196.466 244.761C194.903 244.692 193.378 245.237 192.209 246.277C191.041 247.314 190.323 248.767 190.207 250.328Z" fill="black"/>
<path d="M233.586 77.7447C238.21 73.7223 249.666 63.7512 250.775 62.7976C251.699 61.8703 252.828 61.1722 254.07 60.7589C254.546 60.6629 255.036 60.6638 255.509 60.7618C255.985 60.8596 256.434 61.0524 256.833 61.3285C257.232 61.6045 257.572 61.9583 257.83 62.3684C258.088 62.7785 258.262 63.2367 258.339 63.7154C258.346 64.0098 258.466 64.2904 258.674 64.4988C258.881 64.7072 259.163 64.8272 259.457 64.8339C259.603 64.8341 259.749 64.8055 259.885 64.7493C260.021 64.6931 260.146 64.6109 260.249 64.5069C260.354 64.403 260.435 64.2797 260.492 64.1437C260.547 64.0079 260.576 63.8624 260.576 63.7154C260.471 62.6917 260.1 61.7138 259.498 60.8799C258.893 60.0458 258.083 59.3854 257.144 58.9653C256.205 58.5451 255.172 58.3797 254.147 58.4861C253.124 58.5924 252.146 58.9667 251.315 59.5711C248.475 61.6122 249.859 60.6275 232.004 76.1649C230.916 77.1113 232.503 78.6863 233.586 77.7447Z" fill="black"/>
<path d="M162.041 63.7154C162.127 63.2394 162.306 62.7848 162.568 62.378C162.829 61.971 163.168 61.6196 163.566 61.3438C163.964 61.0683 164.412 60.8735 164.884 60.7712C165.357 60.6689 165.846 60.6605 166.322 60.7471C167.554 61.0984 168.682 61.7487 169.603 62.6399C170.786 63.6294 182.581 73.7104 187.311 77.7447C188.401 78.6744 189.99 77.0994 188.893 76.1649C187.115 74.6473 171.09 60.9359 170.055 60.152C169.232 59.4292 168.246 58.9178 167.181 58.662C166.116 58.4063 165.005 58.4142 163.944 58.6845C162.842 59.0318 161.866 59.6907 161.131 60.5812C160.396 61.4719 159.935 62.5565 159.804 63.7035C159.806 63.9996 159.924 64.2831 160.134 64.4924C160.343 64.7018 160.627 64.8203 160.923 64.822C161.215 64.8156 161.494 64.6973 161.702 64.4915C161.91 64.2857 162.031 64.008 162.041 63.7154Z" fill="black"/>
<path d="M307.922 359.338L282.296 369.45C280.972 369.973 281.55 372.136 282.891 371.601C289.492 368.998 304.537 363.057 308.517 361.489C309.838 360.973 309.263 358.81 307.922 359.338Z" fill="black"/>
<path d="M284.385 377.232C284.423 377.375 284.49 377.507 284.581 377.621C284.672 377.738 284.782 377.834 284.911 377.908C285.038 377.98 285.179 378.025 285.324 378.044C285.47 378.061 285.618 378.052 285.759 378.011L310.558 368.071C310.84 367.987 311.079 367.796 311.225 367.54C311.371 367.285 311.411 366.981 311.34 366.694C311.301 366.553 311.234 366.422 311.144 366.305C311.055 366.19 310.943 366.092 310.814 366.02C310.687 365.946 310.546 365.901 310.4 365.882C310.255 365.863 310.106 365.874 309.965 365.913L285.164 375.855C284.882 375.941 284.643 376.132 284.5 376.388C284.354 376.644 284.313 376.947 284.385 377.232Z" fill="black"/>
<path d="M253.757 361.123L268.771 403.852C269.249 405.202 271.4 404.621 270.922 403.259C270.719 402.68 269.347 398.768 255.906 360.528C255.44 359.18 253.279 359.761 253.757 361.123Z" fill="black"/>
<path d="M34.2693 291.194C33.9911 292.2 33.9676 293.259 34.2009 294.275C34.4342 295.293 34.9167 296.237 35.6053 297.021C36.4628 297.795 37.5244 298.312 38.665 298.503C39.8052 298.694 40.9768 298.558 42.0415 298.106C45.3603 297.088 48.4931 295.542 51.3195 293.527C47.7752 300.138 45.6959 300.317 43.8938 304.798C42.1539 309.473 46.3436 315.109 54.8687 311.457C55.6975 311.103 56.5065 310.704 57.2921 310.262V323.294C8.71539 342.892 10.4481 342.156 10.2091 342.29C9.98878 342.362 9.79662 342.503 9.65968 342.691C9.52249 342.878 9.4472 343.105 9.44434 343.337V400.283C9.45079 400.525 9.53372 400.761 9.68143 400.955C9.82889 401.149 10.0337 401.29 10.2665 401.361C33.2607 410.656 68.1045 424.783 68.322 424.853C69.168 424.974 65.3034 426.375 126.958 401.431C136.019 405.298 202.743 434.116 208.682 436.325C209.855 436.762 211.167 435.89 212.267 435.419L265.158 412.828C266.071 415.343 267.956 420.445 267.971 420.476C268.04 420.711 268.181 420.916 268.375 421.064C268.571 421.213 268.807 421.294 269.051 421.296C277.837 421.265 281.4 421.256 283.283 421.012C284.232 420.911 285.148 420.596 285.955 420.087L337.728 398.737C338.012 398.653 338.251 398.462 338.397 398.206C338.543 397.948 338.583 397.645 338.509 397.36L333.583 383.594L359.235 372.638C359.405 372.543 359.543 372.404 359.641 372.234C359.739 372.067 359.79 371.876 359.787 371.682V256.448C362.364 253.212 363.822 249.228 363.943 245.096C363.85 229.224 341.179 218.779 326.119 213.514C338.547 183.806 326.119 155.876 305.742 131.463C296.914 121.276 287.521 111.594 277.607 102.462C263.054 88.2801 245.98 82.1473 226.581 81.4303C226.005 80.8221 225.323 80.3219 224.571 79.9533C225.02 78.3322 225.113 76.6334 224.848 74.9726C226.043 75.2405 227.283 75.2068 228.462 74.8746C229.236 74.6141 229.876 74.0593 230.244 73.3301C230.613 72.6012 230.679 71.7563 230.428 70.9789C230.971 71.2353 231.561 71.3706 232.161 71.3751C232.761 71.3799 233.354 71.2537 233.901 71.0059C234.446 70.758 234.931 70.394 235.323 69.9395C235.713 69.4849 236.002 68.9507 236.165 68.3738C236.466 67.1059 236.406 65.7787 235.988 64.5443C235.569 63.3098 234.812 62.2183 233.801 61.395C235.483 61.3357 237.14 60.9645 238.686 60.3003C239.668 59.8068 240.428 58.9605 240.811 57.9311C241.195 56.9018 241.179 55.7648 240.76 54.7484C239.269 50.938 236.513 47.7562 232.955 45.7362C229.396 43.7161 225.252 42.9812 221.215 43.654C216.774 44.4336 212.609 46.343 209.119 49.1988C205.757 51.7257 203.206 55.1786 201.777 59.134C200.446 62.3677 198.453 69.0716 198.453 69.0716C196.808 72.4819 196.302 76.3289 197.002 80.0489C195.74 80.6913 194.717 81.7253 194.091 82.996C193.463 84.2665 193.264 85.706 193.522 87.0994C189.258 88.933 185.231 91.2755 181.529 94.0758C175.905 98.52 170.941 103.74 166.785 109.58C162.156 115.383 81.5267 220.093 81.1873 220.638C69.3093 236.685 58.2711 253.337 48.1169 270.525C38.6669 285.79 35.6531 286.261 34.2693 291.194ZM67.5667 422.152L11.6766 399.538V344.979L67.5667 367.612V422.152ZM13.5265 343.33L57.2921 325.682V332.269C57.2986 332.51 57.381 332.747 57.5283 332.94C57.6752 333.132 57.8796 333.275 58.1119 333.347C62.4354 335.077 89.3588 345.887 89.7985 346.028C90.6231 346.222 91.7464 345.483 92.4992 345.17C93.503 344.749 95.219 344.018 96.199 343.547C96.3674 343.449 96.5073 343.311 96.6048 343.143C96.702 342.976 96.7534 342.785 96.7534 342.591V332.288L124.052 343.334C97.284 354.147 68.8191 365.588 68.69 365.645C68.69 365.636 64.933 364.158 13.5265 343.33ZM66.7087 314.332C67.7725 315.878 69.2775 317.068 71.0275 317.747C72.7103 318.402 74.4834 318.799 76.2855 318.921C78.3516 319.26 80.4699 319.088 82.4541 318.419C83.5695 318.046 84.5133 317.283 85.111 316.272C85.7088 315.259 85.9205 314.064 85.7068 312.91L94.5116 315.644V341.862C93.7731 342.18 92.5207 342.706 91.5313 343.124V316.815C91.5313 316.519 91.4134 316.234 91.2036 316.024C90.9938 315.814 90.7093 315.696 90.4128 315.696C90.1161 315.696 89.8315 315.814 89.6219 316.024C89.4121 316.234 89.2942 316.519 89.2942 316.815V343.435L59.5268 331.523V308.837C60.4718 308.158 61.3723 307.422 62.2227 306.629C63.2368 306.55 64.2556 306.55 65.27 306.629C64.8701 309.284 65.377 311.999 66.7087 314.332ZM88.7374 311.509L83.128 309.769C82.5681 309.408 82.0815 308.947 81.694 308.407C81.4885 308.008 81.3915 307.563 81.4123 307.116C81.4333 306.669 81.5717 306.234 81.8135 305.859C83.0033 304.017 84.4956 302.389 86.2279 301.043L88.9907 298.465C89.5237 297.965 90.3339 296.923 91.1752 297.215C91.4402 297.346 91.6735 297.532 91.8589 297.764C92.0442 297.994 92.1771 298.264 92.2483 298.551C92.9653 301.199 89.6957 303.331 88.4816 306.07C88.017 306.911 87.795 307.864 87.8401 308.825C87.8853 309.786 88.1958 310.713 88.7374 311.509ZM125.899 399.449L69.8038 422.154V367.598C70.0141 367.516 118.103 348.129 125.899 344.981V399.449ZM269.818 419.047C269.022 416.875 243.65 347.548 243.387 346.869C247.321 345.404 251.257 343.949 255.198 342.505C255.994 344.747 281.249 415.947 282.253 418.708L269.818 419.047ZM336.002 397.059L284.562 418.28C284.306 418.388 261.601 353.454 257.294 341.736C257.756 341.566 303.88 325.051 309.581 323.16C335.347 395.097 336.002 397.057 336.002 397.057V397.059ZM357.553 370.958L332.835 381.515C318.643 341.841 311.363 321.418 311.194 321.203C311.101 320.969 310.919 320.782 310.689 320.682C310.46 320.582 310.2 320.574 309.965 320.665C298.833 324.63 243.552 344.424 241.635 345.139C241.351 345.22 241.112 345.411 240.966 345.667C240.818 345.925 240.78 346.229 240.854 346.516C240.854 346.516 262.223 404.805 264.398 410.742L214.925 431.867C213.531 432.462 211.954 432.964 210.52 433.619V325.01C210.52 324.714 210.403 324.43 210.192 324.219C209.982 324.009 209.698 323.892 209.401 323.892C209.105 323.892 208.821 324.009 208.61 324.219C208.4 324.43 208.283 324.714 208.283 325.01V376.799L131.917 343.984C131.659 343.841 131.356 343.803 131.071 343.879C130.786 343.953 130.541 344.135 130.385 344.386C130.311 344.513 130.262 344.651 130.243 344.797C130.222 344.943 130.231 345.091 130.269 345.234C130.306 345.375 130.371 345.509 130.46 345.626C130.549 345.744 130.66 345.842 130.787 345.916L208.297 379.215V433.746L128.137 399.511V343.327C128.129 343.083 128.046 342.849 127.898 342.656C127.751 342.462 127.547 342.321 127.314 342.249L96.7534 329.884V314.827C96.7489 314.583 96.6669 314.346 96.5194 314.153C96.3722 313.959 96.1669 313.818 95.9337 313.749L94.0432 313.163C95.779 312.869 97.4788 312.393 99.1147 311.743C103.116 310.29 108.278 307.513 108.615 302.702C108.629 301.368 108.403 300.044 107.946 298.792C104.71 288.013 100.685 285.75 100.537 281.216C100.464 280.442 100.528 279.66 100.726 278.907C100.867 278.651 100.726 278.922 103.465 274.718C103.465 274.718 202.709 317.424 208.68 319.65C209.846 320.082 211.141 319.226 212.238 318.76L289.254 285.989C301.414 283.957 313.395 280.967 325.082 277.043C333.6 274.326 341.738 270.542 349.305 265.781C352.299 263.857 355.067 261.604 357.555 259.061L357.553 370.958ZM220.876 244.154C220.837 244.228 220.806 244.31 220.787 244.393C219.255 244.537 217.716 244.623 216.172 244.647C226.839 230.744 240.971 219.888 257.153 213.165C254.802 216.09 252.448 219.015 250.091 221.938C239.716 225.76 226.521 235.299 220.876 244.149V244.154ZM247.166 225.574C236.74 238.523 237.367 237.73 237.257 237.876C237.202 237.895 224.238 243.423 223.99 243.528C230.309 235.916 238.222 229.786 247.173 225.569L247.166 225.574ZM214.394 243.322C218.06 235.89 223.199 229.279 229.496 223.891C239.348 215.76 250.717 209.667 262.942 205.966L259.957 209.675C241.898 216.358 226.1 228.022 214.401 243.318L214.394 243.322ZM238.736 241.736C245.732 251.057 254.171 258.783 260.911 267.23C251.582 270.874 241.733 273.009 231.733 273.554C221.198 274.108 210.704 271.883 201.302 267.101C193.357 262.822 186.436 256.869 181.02 249.654C179.957 248.327 178.972 246.941 178.071 245.5C177.462 244.589 177.055 243.559 176.876 242.479C176.763 241.171 177.447 240.521 178.69 240.158C183.181 238.999 184.758 241.453 196.182 244.341C210.596 248.002 225.398 248.296 238.743 241.731L238.736 241.736ZM141.415 219.764C151.141 219.042 160.899 220.609 169.91 224.338C178.92 228.067 186.932 233.856 193.302 241.241C186.883 239.372 190.26 240.617 141.423 219.759L141.415 219.764ZM205.19 243.887C205.233 243.659 205.204 243.425 205.109 243.215C202.525 237.892 198.94 233.117 194.55 229.155C177.906 213.726 154.778 206.97 127.171 213.676C126.117 213.224 123.201 211.965 122.795 211.779C135.048 207.381 148.202 206.102 161.073 208.057C171.165 209.71 180.676 213.885 188.725 220.193C196.773 226.502 203.099 234.74 207.114 244.147C206.481 244.063 205.84 243.98 205.19 243.887ZM161.214 214.525C179.565 218.153 195.63 229.769 202.752 243.487C199.065 242.828 197.494 242.359 197.088 242.257C183.281 224.838 162.321 215.23 136.913 217.835L130.722 215.189C140.744 212.966 151.105 212.74 161.214 214.525ZM178.324 237.947C177.671 238.074 177.052 238.337 176.506 238.717C175.96 239.097 175.498 239.585 175.15 240.153C174.74 241.169 174.6 242.273 174.744 243.361C174.888 244.446 175.31 245.478 175.97 246.353C177.19 248.413 178.586 250.363 180.143 252.185C168.748 246.79 156.695 242.909 144.293 240.643C142.885 240.404 142.281 242.555 143.698 242.794C157.661 245.411 171.184 249.991 183.867 256.396C192.487 265.922 204.002 272.349 216.636 274.686C224.071 279.208 231.038 283.565 238.975 288.744C199.423 290.231 142.943 286.235 107.133 269.103C129.704 234.647 127.247 238.425 132.957 231.243C135.381 228.196 140.471 221.922 140.562 221.817L178.324 237.947ZM280.322 287.377C275.043 289.624 211.179 316.674 209.385 317.539L104.703 272.829C104.903 272.523 105.718 271.283 105.921 270.97C151.8 292.709 229.386 294.574 280.322 287.37V287.377ZM347.063 225.638C354.233 230.161 361.608 236.602 361.706 245.103C361.601 263.695 325.197 275.724 307.097 279.918C285.977 284.861 264.431 287.755 242.756 288.56C241.786 287.71 226.107 277.868 222.274 275.506C236.198 276.522 250.165 274.23 263.033 268.814C263.057 268.814 263.069 268.786 263.093 268.774L263.167 268.762C277.034 263.355 289.951 255.779 301.44 246.317C308.015 244.522 314.705 243.191 321.466 242.333C321.76 242.326 322.04 242.204 322.25 241.996C322.458 241.788 322.577 241.508 322.585 241.214C322.585 241.066 322.556 240.921 322.498 240.787C322.444 240.65 322.36 240.526 322.257 240.423C322.152 240.318 322.03 240.237 321.894 240.18C321.758 240.125 321.612 240.096 321.466 240.096C316.045 240.775 310.663 241.747 305.348 243.009C313.658 235.208 320.4 225.893 325.214 215.562C332.859 218.07 340.189 221.449 347.063 225.631V225.638ZM226.129 85.9116C226.129 86.8112 225.852 87.6888 225.335 88.4254C224.819 89.162 224.09 89.7215 223.244 90.0279C222.398 90.3343 221.478 90.3728 220.61 90.1378C219.74 89.9029 218.966 89.406 218.39 88.7151C217.814 88.0241 217.465 87.1723 217.391 86.2761C217.317 85.3796 217.52 84.4819 217.974 83.7054C218.428 82.9289 219.112 82.311 219.929 81.9361C220.747 81.5608 221.66 81.4471 222.544 81.6096C223.548 81.8005 224.454 82.3326 225.108 83.1153C225.763 83.8982 226.127 84.8836 226.138 85.9044L226.129 85.9116ZM208.648 52.5615C220.567 41.111 235.032 45.2792 238.583 55.3459C239.245 56.7631 238.583 58.1685 236.76 58.6919C234.315 59.4089 229.809 58.9309 230.44 61.0819C230.491 61.2606 230.586 61.4246 230.713 61.5599C232.309 62.9652 234.537 64.8031 234.14 67.2003C234.109 67.6374 233.944 68.0542 233.665 68.3924C233.385 68.7306 233.007 68.9729 232.584 69.086C231.258 69.325 229.922 68.2782 228.913 67.5564C227.969 66.8824 226.851 68.1754 227.381 69.086C227.749 69.5814 228.007 70.15 228.139 70.7535C228.27 71.357 228.27 71.9815 228.139 72.5849C226.882 73.0297 225.498 72.9628 224.289 72.3985C223.591 70.1909 222.362 68.1883 220.711 66.5662C219.057 64.9441 217.033 63.752 214.812 63.0945C212.592 62.437 210.245 62.3342 207.977 62.795C205.706 63.2558 203.586 64.2663 201.799 65.7376C202.91 60.8257 205.274 56.2844 208.658 52.5544L208.648 52.5615ZM207.848 64.8246C209.855 64.3263 211.959 64.355 213.952 64.9078C215.945 65.4606 217.762 66.5189 219.224 67.9801C220.689 69.4414 221.75 71.2559 222.307 73.2482C222.864 75.2402 222.898 77.3425 222.403 79.351C221.332 79.2435 220.254 79.3998 219.258 79.8061C218.263 80.2124 217.381 80.8565 216.693 81.6818C216.005 82.5073 215.529 83.4888 215.307 84.5407C215.085 85.5925 215.125 86.6828 215.422 87.716C213.976 88.3252 212.422 88.6414 210.852 88.6465C209.282 88.6515 207.726 88.3448 206.275 87.7447C206.593 86.6931 206.641 85.5784 206.416 84.5032C206.189 83.4279 205.697 82.4267 204.982 81.5919C204.27 80.7568 203.357 80.1149 202.329 79.7251C201.302 79.335 200.193 79.2098 199.105 79.3606C198.725 77.831 198.649 76.2414 198.883 74.6824C199.117 73.1236 199.655 71.6261 200.467 70.2755C201.28 68.9249 202.351 67.7476 203.62 66.8112C204.887 65.8745 206.328 65.1972 207.857 64.8174L207.848 64.8246ZM197.406 82.4843C198.097 81.938 198.938 81.6165 199.815 81.5632C200.695 81.5097 201.567 81.7272 202.32 82.1858C203.07 82.6447 203.663 83.3227 204.017 84.1289C204.37 84.9348 204.468 85.8298 204.296 86.6931C204.179 87.3943 203.89 88.0561 203.457 88.6202C203.022 89.1842 202.458 89.6335 201.811 89.9287C201.165 90.2236 200.456 90.3555 199.746 90.3128C199.036 90.27 198.345 90.0537 197.74 89.683C197.133 89.3121 196.627 88.7982 196.263 88.1861C195.9 87.5741 195.695 86.8826 195.661 86.1721C195.628 85.4618 195.771 84.7541 196.075 84.1112C196.378 83.4681 196.835 82.9095 197.406 82.4843ZM194.258 89.1763C194.803 90.134 195.58 90.9392 196.517 91.5178C197.454 92.0964 198.522 92.4298 199.621 92.4874C200.723 92.545 201.818 92.3249 202.812 91.8474C203.804 91.3699 204.662 90.6502 205.302 89.7547C207.059 90.5054 208.95 90.8914 210.859 90.8892C212.769 90.8871 214.659 90.497 216.414 89.7427C216.918 90.4478 217.554 91.047 218.29 91.5059C219.023 91.9645 219.841 92.274 220.696 92.4164C221.55 92.5591 222.424 92.5319 223.268 92.3361C224.114 92.1406 224.91 91.7809 225.615 91.2771C226.779 90.4519 227.639 89.2683 228.065 87.9075C228.493 86.5466 228.462 85.0832 227.979 83.7415C237.938 84.0914 247.732 86.4054 256.795 90.5506L224.829 126.018C220.814 122.235 189.918 93.1485 188.699 92.0037C190.499 90.9614 192.355 90.0174 194.258 89.1763ZM164.622 115.851C171.85 106.769 176.572 99.6278 186.711 93.1939L224.105 128.401C224.315 128.608 224.599 128.724 224.896 128.724C225.192 128.724 225.476 128.608 225.687 128.401C229.489 124.185 257.67 92.9191 258.877 91.5807C265.17 94.8774 270.949 99.0755 276.027 104.042C293.434 120.734 312.143 138.549 322.336 161.003C331.138 180.403 331.399 200.555 320.596 219.816C313.5 232.651 303.314 243.511 290.96 251.415C282.289 257.4 272.98 262.407 263.205 266.341C256.592 258.105 248.702 249.204 240.419 239.874C240.538 239.869 240.653 239.84 240.76 239.788C240.868 239.737 240.964 239.663 241.04 239.575C245.722 233.882 275.638 193.892 283.491 183.839C283.518 183.801 283.532 183.761 283.558 183.722C283.673 183.591 283.752 183.432 283.785 183.261C283.821 183.09 283.809 182.913 283.754 182.747C283.565 181.925 271.613 163.357 265.533 142.069C265.44 141.801 265.246 141.578 264.995 141.446C264.744 141.314 264.45 141.283 264.178 141.36C263.903 141.436 263.669 141.613 263.52 141.856C263.372 142.099 263.324 142.389 263.382 142.667C267.669 156.798 273.711 170.336 281.367 182.965C263.941 205.297 267.062 202.324 265.832 202.699C243.103 209.152 220.532 222.828 211.409 244.525C211.356 244.525 211.301 244.525 211.249 244.525C214.846 232.981 220.945 222.376 229.114 213.462C237.283 204.549 247.316 197.548 258.501 192.96C258.783 192.875 259.022 192.685 259.168 192.429C259.314 192.173 259.355 191.871 259.283 191.585C259.245 191.444 259.178 191.311 259.087 191.195C258.996 191.079 258.884 190.982 258.757 190.909C258.628 190.837 258.487 190.79 258.341 190.772C258.196 190.754 258.047 190.765 257.906 190.804C246.43 195.465 236.119 202.597 227.711 211.693C219.301 220.79 213.001 231.626 209.253 243.435C205.869 235.529 200.919 228.39 194.703 222.447C188.487 216.504 181.132 211.88 173.083 208.853C155.67 203.073 136.771 203.66 119.75 210.509L117.121 209.391C116.863 209.249 116.561 209.211 116.276 209.286C115.991 209.361 115.746 209.542 115.591 209.792C115.517 209.919 115.468 210.059 115.448 210.205C115.428 210.351 115.437 210.498 115.475 210.641C115.512 210.783 115.577 210.916 115.666 211.033C115.755 211.15 115.866 211.248 115.993 211.322C138.301 220.846 136.203 220.031 136.442 220.055L138.435 220.906C135.29 224.751 128.158 233.543 125.273 237.586C120.015 235.242 114.733 232.897 109.373 230.765C103.73 228.516 85.3651 221.355 83.8689 220.727C106.791 189.262 140.287 146.443 164.62 115.854L164.622 115.851ZM82.5377 222.56C98.5913 229.362 100.857 229.174 124.004 239.453C118.208 248.22 98.9092 277.55 98.7706 277.805C98.3624 278.84 98.1989 279.954 98.2926 281.063C98.3715 285.628 101.457 288.063 104.368 295.298C105.202 297.234 105.848 299.246 106.297 301.306C107.05 305.398 102.473 308.034 99.2749 309.294C96.5933 310.458 91.1489 312.305 90.1714 309.576C89.55 307.857 91.0126 305.974 91.9997 304.719C93.2932 303.374 94.1868 301.693 94.5809 299.87C94.6775 299.038 94.5513 298.197 94.2152 297.43C93.8792 296.662 93.3455 296 92.6689 295.508C91.9354 295.056 91.0638 294.887 90.2144 295.028C89.365 295.169 88.5952 295.611 88.0467 296.275C86.302 297.841 84.617 299.476 82.9058 301.074C81.3719 302.332 80.1716 303.95 79.4116 305.783C79.1202 306.619 79.0808 307.523 79.2978 308.381C79.5151 309.239 79.9792 310.015 80.6329 310.613C81.5506 311.488 83.4531 312.272 83.5989 313.694C83.7829 315.474 81.7825 316.495 80.3341 316.698C78.4647 316.942 76.5675 316.868 74.7224 316.48C72.8699 316.251 71.1166 315.515 69.6556 314.353C68.9367 313.658 68.3674 312.826 67.9828 311.904C67.5981 310.981 67.4061 309.992 67.4186 308.993C67.6043 304.774 68.327 300.599 69.5696 296.564C70.6953 293.995 68.0686 293.505 67.6241 294.937C65.345 300.733 61.12 305.553 55.6741 308.574C53.1168 309.946 48.9821 311.698 46.5634 309.153C44.0109 306.476 47.5409 302.793 49.1924 300.747C51.8033 297.532 53.8783 293.916 55.3371 290.042C55.7506 288.924 54.2282 288.264 53.4681 288.955C50.2978 291.837 46.5981 294.077 42.5745 295.551C40.9421 296.144 38.545 296.968 37.1683 295.424C36.6827 294.765 36.3839 293.99 36.3032 293.175C36.2224 292.363 36.3627 291.541 36.7095 290.802C37.6463 288.912 38.854 287.167 40.2945 285.625C53.081 269.529 52.4691 264.017 82.5377 222.56Z" fill="black"/>
<path d="M351.776 251.417C352.835 250.213 353.891 249.006 354.948 247.801C355.904 246.723 354.317 245.137 353.365 246.219L350.196 249.835C349.25 250.916 350.825 252.502 351.776 251.417Z" fill="black"/>
<path d="M69.2493 355.927L38.815 342.928C38.5571 342.785 38.2545 342.749 37.9699 342.823C37.6852 342.897 37.44 343.079 37.2854 343.33C37.2111 343.456 37.1623 343.597 37.1422 343.743C37.1222 343.886 37.1312 344.035 37.1685 344.178C37.2058 344.319 37.2708 344.453 37.3597 344.57C37.4486 344.687 37.5598 344.785 37.6869 344.859L68.1212 357.858C68.3791 357.999 68.6814 358.038 68.9658 357.961C69.2505 357.887 69.4954 357.708 69.6508 357.457C69.7251 357.33 69.7736 357.189 69.7937 357.043C69.8138 356.898 69.8049 356.752 69.7677 356.608C69.7304 356.467 69.6654 356.334 69.5762 356.216C69.4873 356.099 69.3762 356.001 69.2493 355.927Z" fill="black"/>
<path d="M80.5087 350.605L49.496 337.359C49.2381 337.218 48.9356 337.183 48.6512 337.257C48.3665 337.331 48.1215 337.512 47.9664 337.761C47.8916 337.888 47.8429 338.029 47.8225 338.174C47.8025 338.32 47.8111 338.468 47.8486 338.609C47.8859 338.753 47.9509 338.887 48.04 339.004C48.1292 339.121 48.2406 339.219 48.3679 339.291L79.3806 352.536C79.6382 352.679 79.9408 352.718 80.2254 352.641C80.5103 352.567 80.7553 352.385 80.9102 352.134C80.9845 352.008 81.033 351.869 81.0531 351.723C81.0732 351.578 81.0643 351.429 81.027 351.288C80.9898 351.145 80.9248 351.011 80.8356 350.894C80.7467 350.779 80.6356 350.679 80.5087 350.605Z" fill="black"/>
<path d="M210.558 453.767V446.9C210.558 446.604 210.441 446.319 210.23 446.109C210.02 445.899 209.736 445.782 209.439 445.782C209.143 445.782 208.859 445.899 208.648 446.109C208.438 446.319 208.321 446.604 208.321 446.9V453.767C208.321 454.063 208.438 454.347 208.648 454.558C208.859 454.768 209.143 454.885 209.439 454.885C209.736 454.885 210.02 454.768 210.23 454.558C210.441 454.347 210.558 454.063 210.558 453.767Z" fill="black"/>
<path d="M359.718 386.254V379.005C359.718 378.709 359.601 378.424 359.391 378.214C359.18 378.004 358.896 377.887 358.599 377.887C358.303 377.887 358.019 378.004 357.808 378.214C357.598 378.424 357.481 378.709 357.481 379.005V386.254C357.481 386.55 357.598 386.835 357.808 387.045C358.019 387.255 358.303 387.373 358.599 387.373C358.896 387.373 359.18 387.255 359.391 387.045C359.601 386.835 359.718 386.55 359.718 386.254Z" fill="black"/>
<path d="M156.728 377.734L175.384 385.7C175.642 385.843 175.945 385.879 176.229 385.805C176.514 385.731 176.759 385.549 176.914 385.298C176.988 385.171 177.037 385.033 177.057 384.887C177.077 384.741 177.068 384.593 177.031 384.452C176.994 384.309 176.929 384.175 176.84 384.058C176.751 383.941 176.639 383.843 176.513 383.768L157.868 375.8C157.61 375.659 157.308 375.623 157.023 375.697C156.739 375.772 156.494 375.953 156.339 376.202C156.188 376.457 156.144 376.763 156.217 377.05C156.29 377.337 156.474 377.583 156.728 377.734Z" fill="black"/>
<path d="M176.51 338.081L157.868 330.113C157.61 329.972 157.308 329.934 157.023 330.008C156.739 330.084 156.494 330.263 156.339 330.514C156.264 330.641 156.216 330.78 156.196 330.925C156.175 331.071 156.184 331.219 156.222 331.363C156.259 331.504 156.324 331.638 156.413 331.755C156.502 331.872 156.613 331.97 156.74 332.044L175.397 340.012C175.654 340.153 175.957 340.191 176.241 340.115C176.526 340.041 176.771 339.859 176.926 339.611C177 339.482 177.048 339.341 177.067 339.195C177.086 339.049 177.076 338.901 177.037 338.76C176.998 338.616 176.932 338.483 176.841 338.368C176.751 338.251 176.638 338.153 176.51 338.081Z" fill="black"/>
<path d="M26.657 373.585L45.3134 381.553C45.5713 381.696 45.8736 381.732 46.1582 381.658C46.4426 381.584 46.6879 381.402 46.843 381.151C46.9173 381.025 46.9658 380.886 46.9859 380.74C47.006 380.595 46.9971 380.446 46.9598 380.305C46.9226 380.162 46.8575 380.028 46.7686 379.911C46.6795 379.794 46.5684 379.696 46.4415 379.622L27.7851 371.654C27.5272 371.513 27.2247 371.474 26.94 371.551C26.6554 371.625 26.4101 371.807 26.2555 372.055C26.1812 372.182 26.1324 372.323 26.1124 372.469C26.0925 372.614 26.1014 372.763 26.1386 372.904C26.1759 373.047 26.2409 373.181 26.3298 373.298C26.4188 373.413 26.5299 373.513 26.657 373.585Z" fill="black"/>
<path d="M323.906 192.81C324.188 192.8 324.458 192.682 324.659 192.482C324.857 192.281 324.975 192.013 324.984 191.729V177.97C324.97 177.683 324.848 177.412 324.64 177.213C324.432 177.014 324.155 176.903 323.868 176.903C323.579 176.903 323.302 177.014 323.094 177.213C322.886 177.412 322.764 177.683 322.75 177.97V191.729C322.754 191.876 322.788 192.021 322.85 192.155C322.91 192.289 322.996 192.409 323.103 192.509C323.211 192.61 323.337 192.688 323.476 192.739C323.612 192.791 323.761 192.815 323.906 192.81Z" fill="black"/>
<path d="M129.15 290.494C128.866 290.503 128.597 290.621 128.397 290.821C128.197 291.022 128.081 291.29 128.072 291.574V339.047C128.085 339.334 128.208 339.604 128.417 339.804C128.625 340.003 128.901 340.113 129.189 340.113C129.477 340.113 129.753 340.003 129.962 339.804C130.169 339.604 130.293 339.334 130.306 339.047V291.574C130.302 291.426 130.268 291.283 130.207 291.149C130.147 291.015 130.06 290.893 129.953 290.793C129.845 290.692 129.719 290.613 129.581 290.563C129.443 290.511 129.297 290.487 129.15 290.494Z" fill="black"/>
<path d="M154.893 201.148C165.409 186.865 175.591 172.358 185.441 157.626C186.245 156.431 184.309 155.305 183.51 156.498C173.532 171.426 163.415 185.826 152.961 200.02C152.106 201.179 154.044 202.295 154.893 201.148Z" fill="black"/>
<path d="M118.581 186.755L125.751 178.761C126.707 177.693 125.134 176.106 124.169 177.179L116.999 185.173C116.043 186.242 117.615 187.829 118.581 186.755Z" fill="black"/>
<path d="M67.022 325.247L78.6732 329.245C80.0379 329.723 80.6235 327.556 79.2683 327.094L67.6171 323.093C66.2524 322.62 65.6668 324.781 67.022 325.247Z" fill="black"/>
<path d="M79.2684 333.091L67.6172 328.535C66.2764 328.01 65.7052 330.173 67.022 330.687L78.6733 335.244C80.0141 335.772 80.5972 333.612 79.2684 333.091Z" fill="black"/>
<path d="M183.369 183.18C191.961 193.36 198.742 204.938 203.421 217.41C203.923 218.746 206.084 218.165 205.572 216.815C200.78 203.974 193.804 192.06 184.947 181.6C184.022 180.499 182.447 182.088 183.369 183.18Z" fill="black"/>
</svg>
