<svg width="402" height="373" viewBox="0 0 402 373" fill="none" xmlns="http://www.w3.org/2000/svg">
<path d="M74.3756 238.226C71.6847 232.652 65.0293 231.296 59.3898 233.63C51.1313 237.051 48.4214 245.688 45.5488 254.071C44.7356 256.441 33.1208 288.734 32.4238 290.664C35.742 285.866 39.8065 281.629 44.4632 278.114C53.9899 271.794 64.9102 267.887 76.2829 266.727C76.04 245.648 76.3505 242.317 74.3756 238.226ZM69.6887 256.857C68.4347 258.126 66.8086 258.965 65.0464 259.248C63.284 259.531 61.4773 259.246 59.8883 258.433C58.7294 257.922 57.7037 257.151 56.8907 256.179C56.0777 255.207 55.4994 254.063 55.2004 252.831C54.9015 251.6 54.8899 250.318 55.1668 249.08C55.4435 247.844 56.0011 246.689 56.7965 245.703C57.592 244.718 58.6037 243.929 59.7531 243.396C60.9028 242.864 62.1593 242.604 63.4255 242.636C64.692 242.668 65.9337 242.991 67.0551 243.58C68.1764 244.169 69.147 245.01 69.8915 246.034C71.147 247.57 71.8161 249.5 71.7789 251.484C71.7418 253.465 71.0008 255.37 69.6887 256.857Z" fill="black"/>
<path d="M346.097 154.774C345.223 143.14 339.317 133.329 332.592 123.869C331.671 122.392 330.619 121.001 329.451 119.712C326.581 122.022 323.355 123.853 319.902 125.134C318.462 125.686 316.943 126.008 315.403 126.091C314.56 126.143 313.715 126.027 312.917 125.749C312.119 125.472 311.384 125.038 310.756 124.473C310.116 123.797 309.69 122.948 309.529 122.031C309.371 121.115 309.485 120.171 309.859 119.319C311.654 115.165 314.294 115.672 309.966 116.461C308.942 116.756 307.854 116.761 306.828 116.475C305.799 116.19 304.87 115.626 304.143 114.846C302.908 113.149 302.388 111.033 302.701 108.957C303.013 106.881 304.131 105.011 305.81 103.753C298.047 105.32 294.047 97.3295 301.56 91.4851C301.56 89.2631 301.56 75.7918 301.56 71.2781C301.446 70.6366 301.19 70.0287 300.81 69.4986C300.432 68.9682 299.94 68.5293 299.37 68.2131C298.799 67.8969 298.168 67.7117 297.517 67.6707C296.867 67.6299 296.214 67.7345 295.61 67.9768C294.911 68.4311 294.319 69.0352 293.882 69.7451C293.443 70.4552 293.168 71.2536 293.075 72.0828C291.776 79.543 292.07 93.3776 292.319 100.903C298.295 107.17 301.051 115.936 302.977 124.399C306.372 140.516 307.905 156.97 307.544 173.437C324.221 174.01 347.356 171.507 346.097 154.774ZM336.877 161.613C336.423 162.481 335.118 161.715 335.566 160.849C336.444 159.138 336.82 157.213 336.645 155.298C336.561 154.324 338.084 154.333 338.164 155.298C338.343 157.482 337.896 159.673 336.877 161.613Z" fill="#EAEAEA"/>
<path d="M348.816 18.2017C338.741 24.3967 307.603 43.9701 301.926 47.2524C301.814 47.3226 301.721 47.4193 301.655 47.5338C301.59 47.6485 301.554 47.7773 301.55 47.9093C301.571 55.116 301.55 89.2634 301.55 91.4854C303.797 89.652 306.725 87.8377 308.82 86.1458C309.747 85.4043 310.805 84.8407 311.937 84.4836V55.4624C389.219 105.064 377.603 97.7057 377.415 97.26C377.123 96.5694 376.87 95.8618 376.597 95.1627C369.147 76.0011 366.48 56.7213 370.36 32.0639C370.394 31.1747 371.374 25.9682 371.691 24.4495C373.148 17.2578 375.372 10.2427 378.323 3.52431C379.191 1.55366 379.178 1.42693 379.459 1.28119C368.968 6.39896 358.764 12.0849 348.816 18.2017Z" fill="#62908A"/>
<path d="M377.716 43.8284C376.647 40.5573 374.972 37.5168 372.778 34.8665C371.187 32.9888 370.389 32.8156 370.366 32.0637C368.104 45.659 368.074 59.5321 370.279 73.1368C370.258 73.0042 370.271 72.8681 370.317 72.7418C370.484 71.8695 382.766 59.2071 377.716 43.8284Z" fill="#EAEAEA"/>
<path d="M304.186 91.3734C302.507 92.4295 301.06 93.8155 299.932 95.4478C299.402 96.2143 299.106 97.1185 299.081 98.0499C299.057 98.9816 299.302 99.9002 299.79 100.694C300.346 101.321 301.043 101.804 301.824 102.104C302.606 102.404 303.449 102.51 304.281 102.416C306.399 102.188 308.444 101.512 310.279 100.432C312.803 99.1145 315.45 98.0753 317.961 96.7298C319.338 96.0151 320.382 94.7928 320.874 93.3217C321.366 91.8505 321.265 90.2459 320.595 88.8472C319.822 87.4984 318.605 86.4594 317.152 85.9084C315.699 85.3571 314.098 85.3275 312.626 85.8247C311.031 86.4265 309.557 87.3117 308.277 88.4375C306.915 89.426 305.544 90.387 304.186 91.3734Z" fill="#EAEAEA"/>
<path d="M314.434 116.062C312.769 117.153 311.557 118.809 311.018 120.724C310.889 121.455 311.025 122.208 311.401 122.848C311.776 123.487 312.368 123.972 313.069 124.215C314.389 124.654 315.806 124.708 317.156 124.369C325.417 122.388 337.585 113.238 331.337 108.061C330.473 107.662 329.512 107.513 328.568 107.631C327.622 107.749 326.728 108.13 325.989 108.731C316.89 114.075 317.91 113.245 314.434 116.062Z" fill="#EAEAEA"/>
<path d="M305.9 105.77C304.8 106.88 304.158 108.364 304.105 109.926C304.05 111.489 304.586 113.014 305.609 114.197C307.087 115.644 309.28 115.078 311.081 114.668C313.168 114.186 315.16 113.365 316.981 112.237C319.657 110.594 322.407 109.069 325.115 107.491C326.204 106.582 326.918 105.3 327.119 103.894C327.318 102.488 326.986 101.058 326.192 99.8819C325.396 98.7058 324.192 97.8671 322.812 97.5285C321.433 97.1901 319.978 97.3758 318.727 98.05C314.102 100.515 310.196 101.241 305.9 105.77Z" fill="#EAEAEA"/>
<path d="M386.871 21.7544C385.455 14.817 383.326 8.04494 380.515 1.54729C380.405 1.3779 380.234 1.25623 380.04 1.20681C379.843 1.1576 379.636 1.184 379.459 1.28116C379.176 1.43535 379.195 1.54518 378.323 3.52428C374.574 12.1297 371.976 21.1923 370.596 30.4776C370.459 30.9961 370.381 31.528 370.36 32.0638C370.364 32.2047 370.398 32.3431 370.461 32.4694C370.808 32.9003 371.205 33.2895 371.642 33.629C374.652 36.7294 376.829 40.5402 377.972 44.7073C379.113 48.8746 379.184 53.2628 378.177 57.4647C376.732 62.9471 374.1 68.0454 370.47 72.3998C370.315 72.6123 370.244 72.8753 370.273 73.137C371.665 80.6658 373.781 88.0423 376.597 95.1626C376.869 95.8618 377.123 96.5693 377.414 97.26C377.664 97.8493 378.538 98.0415 378.802 97.4417C384.066 85.7409 387.445 73.2817 388.816 60.5253C390.153 47.5781 389.498 34.5023 386.871 21.7544Z" fill="black"/>
<path d="M394.643 33.0585C394.556 32.0932 393.038 32.0848 393.124 33.0585C394.491 48.566 395.769 64.5994 389.411 78.8354C389.016 79.7204 390.321 80.4913 390.721 79.6C397.239 65.0916 396.018 48.661 394.643 33.0585Z" fill="black"/>
<path d="M399.592 26.5258C399.566 26.4295 399.52 26.3395 399.459 26.2607C399.397 26.1821 399.321 26.1162 399.235 26.067C399.148 26.0178 399.053 25.9861 398.954 25.9739C398.855 25.9616 398.755 25.969 398.658 25.9956C398.466 26.0522 398.303 26.1811 398.204 26.3553C398.105 26.5294 398.077 26.7351 398.128 26.9292C400.755 46.3168 402.449 66.771 393.164 84.3674C392.708 85.2313 394.009 86.0001 394.474 85.1341C404.008 67.1406 402.274 46.3252 399.592 26.5258Z" fill="black"/>
<path d="M292.778 37.9019L297.463 43.3449C298.096 44.0884 299.171 43.0091 298.536 42.272L293.853 36.8331C293.213 36.0854 292.144 37.1648 292.778 37.9019Z" fill="black"/>
<path d="M139.682 311.254C139.301 311.619 125.49 324.879 119.124 330.95C118.979 331.087 118.787 331.163 118.587 331.163C118.388 331.163 118.196 331.087 118.051 330.95L117.981 330.888C117.77 330.707 94.796 310.058 79.9475 296.72C79.8064 296.576 79.7274 296.384 79.7274 296.181C79.7274 295.981 79.8064 295.789 79.9475 295.645L105.251 272.608C96.5176 267.477 86.3215 265.407 76.2786 266.727C64.9065 267.891 53.9871 271.799 44.4589 278.114C28.4656 289.693 17.4232 315.922 16.3101 335.937C16.3122 336.137 16.3929 336.329 16.5346 336.471C16.6763 336.612 16.8679 336.693 17.0683 336.695H143.9C144.1 336.693 144.292 336.612 144.433 336.471C144.575 336.329 144.656 336.137 144.658 335.937C144.755 328.143 143.357 318.021 139.682 311.254ZM35.4442 326.062C50.1093 317.32 64.1014 307.496 77.303 296.671C78.0528 296.057 79.1322 297.126 78.376 297.744C65.1334 308.73 51.0334 318.638 36.2109 327.374C36.0377 327.465 35.8358 327.486 35.6473 327.433C35.4589 327.378 35.2986 327.253 35.1998 327.084C35.1009 326.915 35.0711 326.715 35.1166 326.525C35.1622 326.335 35.2794 326.168 35.4442 326.062ZM113.805 336.338C113.083 336.995 112.008 335.915 112.732 335.265L116.211 332.097C116.934 331.442 118.009 332.519 117.284 333.172L113.805 336.338Z" fill="white"/>
<path d="M69.8998 246.034C69.1553 245.01 68.1847 244.169 67.0634 243.58C65.942 242.991 64.7003 242.67 63.4338 242.636C62.1676 242.604 60.911 242.864 59.7614 243.396C58.6117 243.929 57.6002 244.718 56.8048 245.703C56.0093 246.689 55.4517 247.844 55.175 249.082C54.8981 250.318 54.9098 251.6 55.2086 252.831C55.5077 254.063 56.086 255.207 56.899 256.179C57.712 257.151 58.7376 257.922 59.8966 258.433C61.5614 259.343 63.493 259.639 65.3542 259.271C67.2154 258.902 68.8878 257.89 70.0793 256.414C71.2708 254.937 71.9055 253.089 71.8728 251.192C71.84 249.293 71.1415 247.469 69.8998 246.034Z" fill="#EAEAEA"/>
<path d="M302.975 124.399C300.941 115.431 297.946 106.083 291.178 99.7716C284.981 94.3391 277.473 90.6179 269.396 88.9763C260.041 86.8043 250.241 87.6465 241.393 91.382C228.565 96.9096 220.757 104.807 215.485 122.319C221.304 122.203 236.412 121.926 242.069 122.912C247.581 123.871 249.97 129.272 250.671 134.263C251.212 139.011 251.449 143.789 251.383 148.567C267.499 148.567 266.591 148.527 266.802 148.622C266.941 148.68 267.062 148.778 267.15 148.902C267.237 149.027 267.288 149.173 267.294 149.325V188.423H306.53C306.73 188.419 306.92 188.338 307.062 188.197C307.203 188.055 307.284 187.863 307.288 187.663C307.799 165.931 307.865 145.95 302.975 124.399Z" fill="white"/>
<path d="M267.297 149.333C267.295 149.219 267.267 149.108 267.214 149.007C267.164 148.905 267.088 148.818 266.997 148.75C267.092 148.826 267.166 148.924 267.214 149.036C267.265 149.147 267.286 149.268 267.278 149.39C267.271 149.511 267.236 149.629 267.172 149.733C267.111 149.837 267.024 149.926 266.921 149.99C263.068 152.366 221.885 177.025 204.16 188.319C203.754 188.575 203.416 188.338 202.732 187.977C199.955 186.499 130.143 149.99 130.143 149.99C130.032 149.94 129.937 149.86 129.871 149.758C129.804 149.656 129.768 149.537 129.767 149.415C129.767 240.522 129.658 233.834 129.989 233.566C130.426 233.22 160.031 208.488 162.728 206.182C163.469 205.548 164.546 206.621 163.803 207.255C162.85 208.066 131.588 234.217 131.064 234.641C130.969 234.715 130.858 234.768 130.741 234.795C130.623 234.821 130.501 234.823 130.382 234.798C130.264 234.772 130.153 234.722 130.057 234.648C129.96 234.576 129.881 234.481 129.824 234.375C129.88 234.517 129.977 234.639 130.101 234.726C130.226 234.812 130.374 234.859 130.526 234.863H146.709L178.768 205.675C180.529 203.867 182.743 202.562 185.178 201.896C186.291 201.588 187.48 201.719 188.5 202.258C189.521 202.798 190.297 203.707 190.67 204.801C190.898 206.047 190.862 207.327 190.564 208.558C190.266 209.792 189.713 210.947 188.94 211.95C185.505 217.524 181.468 222.701 176.9 227.392C182.787 225.151 188.631 228.793 187.271 234.863H266.503C265.495 234.652 261.588 230.005 232.585 207.327C231.815 206.725 232.896 205.658 233.658 206.252C243.288 213.767 257.976 225.496 267.086 233.566C267.217 233.68 267.301 233.839 267.322 234.012C268.26 233.898 267.514 169.099 267.297 149.333Z" fill="#62908A"/>
<path d="M191.672 239.512C189.249 239.244 186.796 239.55 184.512 240.403C186.167 238.393 187.19 235.936 187.452 233.344C187.617 228.013 182.041 225.43 176.891 227.392C181.458 222.701 185.495 217.524 188.931 211.95C189.704 210.947 190.257 209.792 190.555 208.56C190.853 207.329 190.889 206.047 190.661 204.801C190.288 203.709 189.512 202.798 188.491 202.26C187.471 201.719 186.282 201.59 185.169 201.896C182.733 202.562 180.52 203.867 178.759 205.675L79.9388 295.653C79.7977 295.797 79.7188 295.991 79.7188 296.192C79.7188 296.393 79.7977 296.585 79.9388 296.728L118.057 330.95C118.202 331.087 118.394 331.165 118.594 331.165C118.793 331.165 118.985 331.087 119.13 330.95C154.34 297.303 163.697 287.674 173.818 277.153C183.344 267.243 191.668 259.102 195.873 247.276C196.18 246.495 196.312 245.654 196.26 244.816C196.209 243.977 195.975 243.16 195.575 242.42C195.175 241.681 194.619 241.037 193.945 240.534C193.271 240.034 192.495 239.683 191.672 239.512ZM162.757 238.578L167.866 233.566C168.563 232.882 169.638 233.955 168.939 234.641L163.83 239.651C163.131 240.338 162.058 239.265 162.757 238.578ZM173.037 247.627L177.943 243.639C178.695 243.029 179.777 244.097 179.016 244.712L174.112 248.7C173.36 249.317 172.278 248.248 173.037 247.627ZM136.057 300.095C133.407 302.277 130.825 304.537 128.312 306.875C127.598 307.541 126.523 306.47 127.239 305.802C129.751 303.466 132.332 301.206 134.982 299.022C135.732 298.405 136.811 299.474 136.057 300.095Z" fill="#EAEAEA"/>
<path d="M266.441 148.567C266.217 148.599 208.857 183.656 203.756 186.778L130.91 148.679C129.997 148.206 129.326 149.568 130.143 149.991C206.075 189.276 203.406 188.82 204.16 188.319L266.921 149.991C267.073 149.902 267.191 149.763 267.252 149.598C267.316 149.432 267.318 149.251 267.261 149.083C267.206 148.916 267.092 148.773 266.944 148.679C266.794 148.585 266.616 148.545 266.441 148.567Z" fill="black"/>
<path d="M170.625 141.869H229.668C229.863 141.858 230.047 141.774 230.18 141.632C230.315 141.491 230.389 141.304 230.389 141.109C230.389 140.914 230.315 140.727 230.18 140.586C230.047 140.444 229.863 140.36 229.668 140.35H170.625C170.43 140.36 170.247 140.444 170.113 140.586C169.979 140.727 169.905 140.914 169.905 141.109C169.905 141.304 169.979 141.491 170.113 141.632C170.247 141.774 170.43 141.858 170.625 141.869Z" fill="black"/>
<path d="M229.668 160.219C229.863 160.209 230.047 160.124 230.18 159.983C230.315 159.842 230.389 159.654 230.389 159.46C230.389 159.265 230.315 159.078 230.18 158.936C230.047 158.795 229.863 158.71 229.668 158.7H170.625C170.43 158.71 170.247 158.795 170.113 158.936C169.979 159.078 169.905 159.265 169.905 159.46C169.905 159.654 169.979 159.842 170.113 159.983C170.247 160.124 170.43 160.209 170.625 160.219H229.668Z" fill="black"/>
<path d="M179.904 107.709C180.098 107.699 180.281 107.614 180.415 107.473C180.549 107.331 180.624 107.144 180.624 106.949C180.624 106.755 180.549 106.567 180.415 106.426C180.281 106.285 180.098 106.2 179.904 106.19H121.038C120.843 106.2 120.66 106.285 120.526 106.426C120.392 106.567 120.317 106.755 120.317 106.949C120.317 107.144 120.392 107.331 120.526 107.473C120.66 107.614 120.843 107.699 121.038 107.709H179.904Z" fill="black"/>
<path d="M121.038 91.2594H179.904C180.105 91.2594 180.298 91.1796 180.44 91.0374C180.582 90.8953 180.662 90.7024 180.662 90.5011C180.662 90.3001 180.582 90.1072 180.44 89.9651C180.298 89.8229 180.105 89.7429 179.904 89.7429H121.038C120.836 89.7429 120.644 89.8229 120.501 89.9651C120.359 90.1072 120.279 90.3001 120.279 90.5011C120.279 90.7024 120.359 90.8953 120.501 91.0374C120.644 91.1796 120.836 91.2594 121.038 91.2594Z" fill="black"/>
<path d="M131.064 234.641C131.598 234.219 162.861 208.066 163.803 207.255C164.546 206.621 163.469 205.553 162.727 206.182C160.02 208.488 130.411 233.218 129.989 233.566C129.252 234.151 130.287 235.254 131.064 234.641Z" fill="black"/>
<path d="M336.877 161.613C337.895 159.673 338.343 157.482 338.164 155.298C338.083 154.333 336.561 154.324 336.645 155.298C336.82 157.213 336.444 159.138 335.566 160.849C335.112 161.715 336.417 162.481 336.877 161.613Z" fill="black"/>
<path d="M233.647 206.252C232.887 205.658 231.803 206.725 232.574 207.327C239.302 212.578 257.346 226.945 266.001 234.641C266.08 234.709 266.17 234.762 266.268 234.795C266.367 234.829 266.47 234.842 266.574 234.836C266.677 234.827 266.779 234.802 266.872 234.755C266.962 234.709 267.047 234.645 267.115 234.567C267.178 234.5 267.226 234.419 267.258 234.331C267.292 234.244 267.307 234.151 267.303 234.058C267.298 233.965 267.277 233.875 267.237 233.79C267.199 233.706 267.142 233.63 267.074 233.566C259.555 226.74 241.745 212.58 233.647 206.252Z" fill="black"/>
<path d="M266.16 148.566C265.296 148.55 261.923 148.566 251.375 148.566C251.472 143.785 251.233 139.003 250.663 134.254C249.962 129.263 247.573 123.863 242.06 122.904C237.973 122.192 204.755 122.54 204.13 122.616C204.058 122.405 202.335 120.895 201.703 112.706C201.433 109.116 201.365 105.513 201.505 101.915C201.889 91.1705 198.613 76.0157 189.548 70.203C185.355 67.5142 181.733 67.3685 176.07 67.5375C174.169 67.5966 69.904 67.5924 68.5227 67.5924C61.3118 67.5924 53.5263 69.2399 48.7824 75.1159C43.2042 82.0163 43.3372 91.6246 42.9148 99.9085C42.8641 100.884 44.3933 100.882 44.4335 99.9085C44.4586 94.705 44.9797 89.5158 45.9901 84.4115C46.5163 81.674 47.6636 79.0935 49.3436 76.869C51.0236 74.6445 53.1915 72.835 55.6807 71.5801C59.7076 69.7582 64.1074 68.9123 68.5227 69.111H78.49C85.3693 69.5334 90.4195 72.406 93.8729 79.8366C100.889 94.9343 95.0726 112.911 107.07 125.578C110.252 128.956 114.589 131.013 119.219 131.34C124.037 131.656 127.944 128.987 131.966 126.712C133.843 125.491 135.958 124.684 138.171 124.342C139.187 124.242 140.213 124.36 141.18 124.688C142.147 125.015 143.033 125.546 143.779 126.243C147.832 130.045 147.959 137.116 148.075 148.577H130.682C131.636 149.021 137.096 151.925 149.761 158.544C149.609 152.451 149.535 146.355 149.383 140.261C149.237 134.436 148.485 127.538 143.659 124.317C178.575 124.287 241.253 124.133 243.066 124.72C248.304 126.422 249.55 134.197 249.632 139.731C249.698 144.236 250.108 158.35 250.105 158.481C267.987 147.546 266.707 148.585 266.16 148.566ZM124.503 128.976C116.338 132.077 105.916 126.368 102.25 114.318C98.9421 103.484 100.18 91.7682 96.0695 81.1567C95.2449 78.533 93.8856 76.1088 92.0773 74.0368C90.2691 71.9645 88.0513 70.2896 85.5636 69.1173C85.5636 69.1173 177.02 69.0202 180.324 69.0709C190.462 69.2293 195.221 76.6493 198.087 86.3906C201.044 96.4466 199.669 102.576 200.041 110.338C199.986 114.57 200.776 118.77 202.364 122.692C149.56 122.796 140.655 122.779 139.105 122.8C133.136 122.887 129.712 126.999 124.503 128.976Z" fill="#62908A"/>
<path d="M99.4323 165.886L86.1489 151.969C85.473 151.26 84.4 152.335 85.0738 153.042L98.3593 166.959C99.0352 167.658 100.104 166.586 99.4323 165.886Z" fill="black"/>
<path d="M79.2842 193.743H99.5293C99.7238 193.733 99.907 193.648 100.041 193.507C100.175 193.365 100.25 193.179 100.25 192.983C100.25 192.789 100.175 192.603 100.041 192.461C99.907 192.32 99.7238 192.235 99.5293 192.225H79.2842C79.0897 192.235 78.9066 192.32 78.7726 192.461C78.6385 192.603 78.564 192.789 78.564 192.983C78.564 193.179 78.6385 193.365 78.7726 193.507C78.9066 193.648 79.0897 193.733 79.2842 193.743Z" fill="black"/>
<path d="M88.0457 231.477L101.331 218.192C101.462 218.048 101.532 217.858 101.527 217.664C101.522 217.467 101.442 217.281 101.304 217.144C101.166 217.007 100.98 216.927 100.785 216.922C100.59 216.918 100.401 216.988 100.256 217.119L86.9727 230.404C86.8303 230.548 86.7505 230.74 86.7505 230.941C86.7505 231.144 86.8303 231.336 86.9727 231.477C87.1151 231.621 87.3079 231.699 87.5092 231.699C87.7105 231.699 87.9033 231.621 88.0457 231.477Z" fill="black"/>
<path d="M260.117 60.3373C258.668 59.9045 257.139 59.8158 255.65 60.0783C254.161 60.3409 252.754 60.9473 251.54 61.8496C250.538 62.641 249.712 63.6295 249.108 64.7538C248.506 65.8779 248.141 67.1142 248.035 68.3853C247.93 69.6566 248.086 70.9361 248.496 72.1443C248.906 73.3527 249.558 74.4641 250.414 75.4097C251.945 76.9735 253.969 77.9603 256.144 78.2024C258.32 78.4447 260.51 77.9272 262.347 76.7382C262.519 76.6331 262.641 76.4664 262.692 76.2729C262.742 76.0797 262.717 75.8742 262.62 75.6991C261.519 73.7094 260.377 71.7409 259.217 69.785C261.376 69.5738 265.674 69.2211 266.063 69.0415C266.211 68.9927 266.339 68.9011 266.432 68.7783C266.527 68.6556 266.584 68.5076 266.593 68.353C266.73 66.4446 266.139 64.5553 264.937 63.0673C263.735 61.579 262.012 60.6032 260.117 60.3373Z" fill="#EAEAEA"/>
<path d="M279.965 48.927C279.775 48.3628 279.414 47.8716 278.933 47.5212C278.453 47.1707 277.874 46.9787 277.279 46.9714C274.389 46.6184 271.472 46.5553 268.57 46.7832C270.116 45.4728 271.363 43.8439 272.22 42.0076C272.37 41.526 272.408 41.0165 272.33 40.5181C272.252 40.0196 272.062 39.5456 271.772 39.1323C271.483 38.7189 271.103 38.3774 270.661 38.1336C270.22 37.8899 269.73 37.7507 269.225 37.7262C268.046 37.8219 266.948 38.3617 266.154 39.2364C265.121 40.1193 264.162 41.093 263.197 42.0435C258.747 46.1354 254.896 50.8339 251.757 56.0006C251.7 56.1177 251.673 56.2467 251.677 56.3768C251.681 56.5069 251.717 56.6341 251.781 56.7471C251.846 56.8599 251.939 56.9551 252.049 57.0242C252.159 57.0933 252.285 57.1342 252.414 57.1433C260.301 57.3381 268.165 56.2174 275.684 53.8272C276.953 53.5322 278.13 52.9211 279.102 52.0509C279.497 51.6443 279.782 51.1452 279.932 50.5994C280.084 50.0534 280.094 49.4785 279.965 48.927Z" fill="black"/>
<path d="M316.535 225.437C315.815 225.521 315.086 225.441 314.402 225.198C310.832 224.186 309.819 220.219 312.754 217.172C310.239 217.155 307.768 216.502 305.573 215.271C304.65 214.762 303.919 213.963 303.493 212.998C303.387 212.791 303.332 212.561 303.332 212.326C303.332 212.094 303.387 211.864 303.493 211.655C303.476 211.672 303.45 211.672 303.436 211.691C295.549 221.571 309.973 232.151 316.827 225.265C316.74 225.337 316.641 225.396 316.535 225.437Z" fill="white"/>
<path d="M320.402 216.538C320.191 214.683 319.416 212.939 318.183 211.541C316.949 210.14 315.314 209.152 313.502 208.71C311.952 208.271 310.317 208.216 308.741 208.552C307.165 208.888 305.695 209.604 304.458 210.637C304.092 210.934 303.769 211.283 303.499 211.669C303.395 211.879 303.34 212.107 303.34 212.341C303.34 212.573 303.395 212.804 303.499 213.013C303.925 213.976 304.656 214.774 305.579 215.285C307.774 216.515 310.245 217.17 312.761 217.186C309.804 220.255 310.879 224.207 314.408 225.213C315.09 225.456 315.821 225.536 316.541 225.451C317.008 225.181 317.399 224.797 317.678 224.334C319.46 222.129 320.424 219.372 320.402 216.538Z" fill="black"/>
<path d="M380.428 278.01C379.659 273.036 377.775 268.303 374.915 264.161C372.058 260.021 368.298 256.58 363.919 254.099C359.663 251.874 355.135 250.219 350.448 249.177C330.186 244.319 308.627 246.324 288.536 251.866C284.348 252.774 280.375 254.485 276.837 256.904C287.873 260.321 298.049 266.058 306.686 273.731C315.321 281.405 322.217 290.838 326.908 301.394C327.765 303.335 328.598 305.285 329.442 307.234C329.388 303.677 329.252 301.443 329.472 298.754C330.019 293.127 332.425 287.843 336.309 283.736C340.193 279.63 345.337 276.933 350.923 276.074C356.51 275.214 362.225 276.24 367.164 278.99C372.104 281.74 375.986 286.056 378.2 291.258C379.486 294.454 380.183 297.854 380.257 301.299C380.483 306.227 380.43 311.163 380.096 316.084C382.111 302.571 382.815 290.504 380.428 278.01Z" fill="white"/>
<path d="M284.384 312.432C278.738 315.791 272.592 318.228 266.179 319.652C266.2 323.705 266.39 334.568 266.412 335.947C266.416 336.148 266.496 336.338 266.638 336.479C266.779 336.621 266.969 336.701 267.17 336.705C268.131 336.72 289.77 336.957 289.77 336.957C287.252 328.958 285.451 320.75 284.384 312.432Z" fill="white"/>
<path d="M380.257 301.299C380.183 297.856 379.486 294.454 378.2 291.258C375.988 286.054 372.106 281.736 367.166 278.986C362.226 276.234 356.51 275.208 350.923 276.067C345.335 276.927 340.191 279.624 336.307 283.732C332.423 287.84 330.017 293.127 329.472 298.754C329.261 301.428 329.386 303.612 329.443 307.234C328.598 305.285 327.766 303.335 326.908 301.394C321.102 288.265 311.882 276.931 300.208 268.575C289.2 260.689 271.593 252.903 258.111 254.532C254.258 254.96 250.509 256.063 247.039 257.791C245.613 258.54 244.227 259.368 242.892 260.268C238.987 262.826 233.971 266.001 232.332 270.022C231.821 271.294 231.757 272.703 232.152 274.016C232.547 275.33 233.377 276.468 234.507 277.248C235.764 277.96 237.156 278.399 238.594 278.534C240.03 278.669 241.482 278.5 242.848 278.036C245.892 277.168 248.815 275.928 251.552 274.339C251.791 274.217 252.053 274.149 252.321 274.139C252.589 274.128 252.856 274.177 253.103 274.28C253.35 274.384 253.572 274.54 253.751 274.737C253.933 274.935 254.068 275.17 254.148 275.425C254.228 275.681 254.252 275.951 254.218 276.217C254.184 276.481 254.091 276.737 253.948 276.963C253.804 277.189 253.614 277.383 253.39 277.527C253.164 277.672 252.91 277.767 252.644 277.803C248.889 278.576 245.444 280.441 242.745 283.166C241.864 284.241 241.401 285.597 241.444 286.987C241.486 288.377 242.031 289.703 242.975 290.721C244.593 292.42 246.735 293.524 249.056 293.86C246.228 294.644 243.666 296.099 243.602 299.278C243.53 302.915 246.519 306.436 252.245 306.514C245.662 310.888 247.039 317.723 252.116 319.426C256.319 321.151 261.72 320.528 266.19 319.637C272.602 318.215 278.746 315.782 284.394 312.428C286.773 329.824 291.231 348.867 304.519 360.093C313.587 367.756 328.678 371.174 339.469 370.082C354.789 368.529 368.14 356.116 374.256 341.779C379.672 329.055 380.846 315.235 380.257 301.299ZM333.644 362.328C333.591 362.134 333.618 361.927 333.718 361.751C333.817 361.578 333.98 361.449 334.174 361.394L343.045 360.178C343.239 360.127 343.446 360.155 343.619 360.254C343.795 360.353 343.924 360.516 343.981 360.708C344.033 360.902 344.006 361.109 343.907 361.285C343.807 361.458 343.645 361.587 343.451 361.642L334.579 362.858C334.385 362.909 334.178 362.881 334.005 362.782C333.83 362.683 333.701 362.52 333.644 362.328ZM300.669 295.134C298.301 299.369 295.443 303.312 292.154 306.879C291.496 307.604 290.425 306.527 291.081 305.806C294.216 302.281 296.989 298.448 299.357 294.367C299.463 294.202 299.629 294.084 299.82 294.04C300.01 293.993 300.21 294.023 300.379 294.122C300.548 294.221 300.673 294.382 300.728 294.57C300.781 294.758 300.759 294.96 300.669 295.134ZM263.004 292.094L269.018 290.842C269.973 290.643 270.376 292.109 269.421 292.305L263.408 293.558C262.453 293.757 262.048 292.293 263.004 292.094ZM265.414 303.775C267.835 303.574 270.218 303.048 272.497 302.207C273.417 301.869 273.81 303.339 272.9 303.671C270.49 304.548 267.972 305.093 265.414 305.293C264.43 305.371 264.447 303.855 265.414 303.775Z" fill="#EAEAEA"/>
<path d="M225.93 294.47C225.395 295.292 226.709 296.052 227.241 295.235C229.142 292.312 231.632 287.084 234.235 285.747C234.38 285.656 234.551 285.612 234.723 285.62C234.894 285.629 235.06 285.69 235.196 285.796C236.562 286.797 236.028 289.095 235.633 290.411C234.771 293.117 233.612 295.721 232.177 298.173C231.698 299.018 233.01 299.793 233.487 298.94C234.913 296.473 236.087 293.871 236.993 291.169C237.441 290.206 237.644 289.15 237.585 288.092C237.527 287.031 237.209 286.003 236.659 285.097C233.077 280.904 228.346 290.747 225.93 294.47Z" fill="black"/>
<path d="M233.96 303.874C232.612 301.356 230.551 299.293 228.033 297.943C224.954 296.553 221.553 296.038 218.201 296.45C210.016 297.43 201.697 300.948 192.192 310.027C189.759 312.35 187.545 314.885 185.249 317.352C185.169 317.436 185.109 317.535 185.073 317.645C185.037 317.753 185.026 317.869 185.041 317.985C185.056 318.099 185.096 318.209 185.159 318.304C185.221 318.401 185.305 318.484 185.403 318.543C195.521 324.681 205.386 331.216 215.396 337.525C215.147 340.558 214.534 347.974 214.534 347.974C214.454 348.947 215.973 348.941 216.053 347.974L216.839 338.439C217.17 338.651 223.598 342.607 226.504 344.328C226.586 344.389 226.681 344.43 226.783 344.449C226.884 344.468 226.988 344.463 227.087 344.438C227.186 344.413 227.279 344.364 227.357 344.299C227.435 344.231 227.499 344.149 227.541 344.056C230.593 337.371 233.066 330.434 234.934 323.327C236.6 316.929 237.221 309.91 233.96 303.874Z" fill="#62908A"/>
<path d="M218.431 354.714C217.876 353.888 217.096 353.239 216.184 352.84C215.272 352.443 214.264 352.314 213.28 352.47C212.298 352.625 211.379 353.058 210.633 353.717C209.888 354.378 209.347 355.235 209.072 356.192C208.713 357.39 208.768 358.674 209.233 359.834C209.697 360.993 210.54 361.963 211.626 362.581C212.726 363.179 214.017 363.314 215.217 362.964C216.418 362.611 217.43 361.798 218.034 360.702C218.672 359.848 219.048 358.83 219.12 357.768C219.19 356.703 218.951 355.643 218.431 354.714Z" fill="#62908A"/>
<path d="M244.329 352.044C244.029 351.119 242.561 351.514 242.865 352.447L249.066 371.457C249.368 372.382 250.834 371.985 250.53 371.053L244.329 352.044Z" fill="black"/>
<path d="M248.257 350.462C248.149 350.299 247.985 350.185 247.797 350.141C247.607 350.096 247.408 350.126 247.241 350.225C247.072 350.322 246.95 350.481 246.895 350.667C246.84 350.853 246.857 351.053 246.945 351.226C249.759 356.296 256.364 367.773 256.788 368.479C256.89 368.652 257.056 368.779 257.251 368.829C257.445 368.88 257.652 368.852 257.825 368.749C258.001 368.648 258.125 368.481 258.178 368.286C258.229 368.092 258.199 367.885 258.098 367.712C256.081 364.077 248.378 350.673 248.257 350.462Z" fill="black"/>
<path d="M299.357 294.367C296.989 298.448 294.216 302.281 291.081 305.806C290.425 306.527 291.504 307.604 292.154 306.879C295.443 303.312 298.301 299.369 300.669 295.134C300.759 294.96 300.781 294.76 300.728 294.57C300.673 294.382 300.548 294.221 300.379 294.122C300.21 294.025 300.01 293.995 299.819 294.04C299.629 294.086 299.463 294.202 299.357 294.367Z" fill="black"/>
<path d="M272.497 302.207C270.218 303.048 267.835 303.574 265.415 303.775C264.447 303.855 264.439 305.371 265.415 305.293C267.973 305.093 270.49 304.548 272.9 303.671C273.811 303.339 273.418 301.869 272.497 302.207Z" fill="black"/>
<path d="M269.018 290.842L263.004 292.094C262.047 292.293 262.453 293.757 263.408 293.558L269.421 292.305C270.376 292.107 269.972 290.643 269.018 290.842Z" fill="black"/>
<path d="M343.036 360.178L334.165 361.394C333.971 361.449 333.808 361.578 333.709 361.751C333.61 361.927 333.582 362.134 333.635 362.328C333.692 362.52 333.821 362.683 333.994 362.782C334.17 362.881 334.375 362.909 334.569 362.858L343.44 361.642C343.634 361.587 343.797 361.458 343.896 361.285C343.995 361.109 344.023 360.902 343.97 360.708C343.913 360.516 343.784 360.353 343.609 360.256C343.436 360.157 343.231 360.129 343.036 360.178Z" fill="black"/>
<path d="M134.982 299.022C132.333 301.202 129.752 303.462 127.239 305.802C126.523 306.47 127.598 307.541 128.312 306.875C130.823 304.539 133.404 302.279 136.057 300.095C136.811 299.474 135.732 298.405 134.982 299.022Z" fill="white"/>
<path d="M77.3029 296.671C64.0949 307.488 50.1037 317.311 35.444 326.062C35.2793 326.168 35.1621 326.335 35.1164 326.525C35.071 326.715 35.1008 326.915 35.1997 327.084C35.2985 327.253 35.4588 327.378 35.6472 327.433C35.8356 327.486 36.0376 327.465 36.2108 327.374C51.0316 318.634 65.1316 308.728 78.3759 297.744C79.132 297.125 78.0527 296.057 77.3029 296.671Z" fill="white"/>
<path d="M116.211 332.101L112.732 335.269C112.008 335.928 113.083 336.999 113.805 336.342L117.284 333.174C118.008 332.517 116.933 331.446 116.211 332.101Z" fill="white"/>
<path d="M167.866 233.566L162.757 238.578C162.058 239.265 163.131 240.338 163.83 239.651L168.939 234.641C169.638 233.955 168.563 232.882 167.866 233.566Z" fill="white"/>
<path d="M177.943 243.645L173.037 247.627C172.279 248.242 173.36 249.317 174.112 248.7L179.016 244.712C179.777 244.104 178.695 243.035 177.943 243.645Z" fill="white"/>
<path d="M15.5558 304.132C15.4701 304.081 15.375 304.047 15.2762 304.034C15.1773 304.02 15.0768 304.026 14.9805 304.051C14.884 304.077 14.7936 304.121 14.7144 304.182C14.6349 304.243 14.5686 304.317 14.5188 304.404L7.33741 321.386C7.24137 321.561 7.21609 321.766 7.26676 321.96C7.31745 322.153 7.44023 322.319 7.60988 322.425C7.78386 322.526 7.991 322.556 8.18583 322.505C8.38065 322.452 8.54726 322.328 8.64907 322.153L15.8304 305.169C15.9267 304.993 15.9519 304.788 15.9008 304.596C15.8496 304.402 15.7261 304.237 15.5558 304.132Z" fill="black"/>
<path d="M9.60843 302.573L0.492332 322.064C0.0804598 322.942 1.38789 323.716 1.80187 322.831L10.918 303.339C11.3298 302.461 10.0224 301.698 9.60843 302.573Z" fill="black"/>
<path d="M327.743 106.262C328.37 105.105 328.659 103.797 328.583 102.484C328.507 101.171 328.064 99.9051 327.307 98.8293C326.575 97.9209 325.641 97.1937 324.581 96.7039C323.52 96.2143 322.363 95.9752 321.195 96.0054C321.85 95.0726 322.297 94.0113 322.511 92.8916C322.722 91.7722 322.694 90.6204 322.426 89.5126C321.1 84.0695 313.783 82.1432 308.826 86.1458C306.743 87.8355 304.435 89.1958 301.556 91.4854C293.952 97.5325 298.193 105.288 305.806 103.753C304.124 105.011 303.007 106.881 302.694 108.957C302.384 111.034 302.901 113.149 304.139 114.846C306.131 117.292 309.32 116.747 312.309 115.921C311.249 116.857 310.41 118.018 309.855 119.319C309.481 120.172 309.367 121.115 309.525 122.032C309.686 122.949 310.112 123.798 310.752 124.473C311.38 125.038 312.115 125.472 312.913 125.75C313.711 126.027 314.556 126.143 315.399 126.091C316.939 126.009 318.458 125.686 319.898 125.134C325.109 123.126 330.6 119.854 333.505 115.059C334.206 114.032 334.58 112.818 334.58 111.574C334.58 110.331 334.206 109.116 333.505 108.089C332.867 107.206 331.963 106.552 330.926 106.223C329.889 105.894 328.771 105.908 327.743 106.262ZM304.281 102.416C303.448 102.511 302.606 102.404 301.824 102.104C301.043 101.804 300.346 101.321 299.79 100.694C299.302 99.9004 299.055 98.9816 299.081 98.0502C299.106 97.1187 299.402 96.2145 299.932 95.448C301.06 93.8157 302.506 92.4295 304.186 91.3734C305.544 90.387 306.915 89.4175 308.277 88.4375C309.557 87.3119 311.031 86.4267 312.626 85.8247C314.098 85.3275 315.699 85.3571 317.152 85.9084C318.605 86.4597 319.822 87.4984 320.595 88.8473C321.265 90.2461 321.366 91.8508 320.874 93.3219C320.382 94.793 319.338 96.0151 317.961 96.7298C315.45 98.0753 312.803 99.1145 310.279 100.432C308.444 101.512 306.399 102.188 304.281 102.416ZM311.082 114.666C309.28 115.076 307.079 115.642 305.609 114.195C304.589 113.012 304.053 111.487 304.105 109.925C304.16 108.363 304.8 106.878 305.901 105.768C310.197 101.239 314.104 100.513 318.728 98.0394C319.978 97.3654 321.434 97.1797 322.813 97.5181C324.192 97.8567 325.396 98.6954 326.192 99.8715C326.986 101.048 327.318 102.477 327.119 103.884C326.919 105.29 326.205 106.571 325.115 107.481C322.407 109.069 319.657 110.584 316.981 112.227C315.16 113.358 313.169 114.183 311.082 114.668V114.666ZM317.156 124.368C315.807 124.706 314.389 124.652 313.069 124.213C312.368 123.971 311.777 123.486 311.401 122.846C311.025 122.206 310.89 121.453 311.018 120.722C311.557 118.807 312.769 117.151 314.434 116.06C317.908 113.245 316.996 114.009 325.989 108.729C326.729 108.129 327.622 107.748 328.568 107.629C329.513 107.511 330.474 107.66 331.337 108.06C337.598 113.251 325.423 122.386 317.156 124.37V124.368Z" fill="black"/>
<path d="M191.7 239.248C189.52 239.011 187.316 239.227 185.224 239.882C186.23 238.433 186.986 236.827 187.463 235.129H266.542C266.739 235.129 266.931 235.07 267.094 234.962C267.256 234.852 267.385 234.7 267.461 234.519C267.624 234.308 267.56 234.542 267.56 188.685H306.534C306.804 188.683 307.06 188.575 307.252 188.383C307.442 188.193 307.55 187.937 307.554 187.667C307.554 187.667 307.765 178.179 307.805 173.707C324.673 174.25 347.624 171.564 346.361 154.753C345.759 146.777 342.599 138.489 336.696 129.407C335.975 128.298 331.166 121.127 329.837 119.74C331.384 118.459 332.702 116.924 333.734 115.201C336.691 110.321 332.94 104.796 328.243 105.856C328.754 104.699 328.957 103.429 328.83 102.17C328.701 100.91 328.249 99.7063 327.516 98.6749C326.809 97.802 325.922 97.0902 324.916 96.5868C323.911 96.0835 322.81 95.8003 321.687 95.7559C322.267 94.8754 322.66 93.8848 322.844 92.8458C323.026 91.8066 322.992 90.7412 322.745 89.7156C322.498 88.6901 322.044 87.7261 321.408 86.8838C320.772 86.0415 319.972 85.3387 319.053 84.8191C316.953 83.6936 314.493 83.4475 312.211 84.1348V55.9458C378.662 98.5926 377.997 98.3285 378.335 98.0687C378.491 98.0537 378.639 97.9974 378.766 97.9057C378.89 97.8138 378.99 97.69 379.053 97.547C385.854 82.485 389.512 66.1949 389.806 49.6715C390.1 33.148 387.022 16.738 380.762 1.44357C380.624 1.20721 380.401 1.03296 380.139 0.957767C379.877 0.882573 379.594 0.912145 379.353 1.04014C366.617 7.24991 318.662 35.9774 301.725 47.0853C301.558 47.1952 301.452 47.2458 301.387 47.7528C301.216 49.0686 301.315 53.4556 301.306 69.865C300.783 68.8398 299.889 68.0519 298.806 67.6616C297.722 67.2713 296.533 67.3076 295.475 67.7634C294.742 68.2351 294.123 68.8643 293.662 69.6052C293.204 70.3464 292.917 71.1805 292.82 72.0469C291.878 77.4435 291.614 86.9271 292.036 100.242C285.706 94.4088 277.895 90.4248 269.457 88.7245C260.049 86.523 250.186 87.3715 241.291 91.1472C229.816 96.0918 221 103.25 215.293 122.067C212.731 122.118 205.444 122.306 204.265 122.361C202.759 119.364 201.978 116.056 201.978 112.702C201.709 109.118 201.644 105.521 201.781 101.93C202.189 90.5389 198.585 75.6819 189.702 69.9875C185.372 67.21 181.663 67.1129 176.074 67.2797C175.309 67.3051 68.5353 67.3346 68.5353 67.3346C59.3875 67.3346 52.675 69.9009 48.5901 74.9574C43.0351 81.822 43.0985 91.2739 42.6528 99.9021C42.5831 101.226 44.6319 101.254 44.6974 99.9296C45.0987 92.1145 44.9846 83.6659 49.4181 77.228C54.1599 70.3402 63.0627 69.3518 67.9164 69.3919C77.9365 69.4553 79.4066 69.0518 83.445 70.2368C85.7367 71.0385 87.8309 72.32 89.5879 73.9956C91.345 75.6709 92.7244 77.7018 93.6341 79.9527C98.3316 90.0594 97.2248 101.676 99.827 112.4C101.96 121.21 108.17 130.881 119.202 131.61C124.096 131.923 128.073 129.221 132.114 126.94C133.953 125.74 136.028 124.948 138.199 124.617C139.176 124.518 140.164 124.629 141.096 124.942C142.027 125.256 142.881 125.765 143.599 126.435C146.491 129.141 147.19 133.709 147.463 137.389C147.748 141.142 147.784 145.092 147.807 148.313H130.519C130.268 148.323 130.029 148.423 129.844 148.593C129.66 148.764 129.543 148.995 129.513 149.244C129.513 149.306 129.501 149.314 129.501 233.87C129.472 234.022 129.477 234.179 129.515 234.329C129.553 234.481 129.623 234.62 129.721 234.741C129.818 234.861 129.94 234.958 130.079 235.028C130.218 235.095 130.37 235.133 130.525 235.138H146.024L105.217 272.289C96.5624 267.234 86.4804 265.181 76.5383 266.446C76.3271 246.894 76.6523 242.351 74.6099 238.12C71.6866 232.064 64.6827 231.15 59.2861 233.397C51.1902 236.751 48.3388 245.096 45.5803 253.167C45.5803 253.167 32.8862 288.613 32.1849 290.552C22.8623 303.975 17.2889 319.643 16.0396 335.939C16.044 336.209 16.1532 336.465 16.3439 336.657C16.5349 336.847 16.7923 336.955 17.0618 336.959H143.899C144.169 336.955 144.427 336.847 144.618 336.657C144.809 336.467 144.918 336.209 144.922 335.939C145.013 328.635 143.768 318.361 140.009 311.304C156.049 295.81 164.755 286.93 175.723 275.548C184.535 266.4 192.154 258.509 196.116 247.365C196.437 246.545 196.574 245.665 196.519 244.786C196.463 243.907 196.217 243.052 195.796 242.279C195.375 241.506 194.791 240.834 194.083 240.31C193.376 239.787 192.562 239.425 191.7 239.248ZM134.72 150.357H147.839C147.855 151.912 147.923 155.758 147.957 157.296C146.647 156.616 136.367 151.219 134.72 150.357ZM117.461 333.381C118.441 332.489 117.018 331.028 116.034 331.917L112.726 334.923C107.784 334.923 23.9348 334.859 18.1813 334.899C19.7823 314.327 31.6231 287.293 48.7865 277.425C64.4166 268.438 87.3863 263.844 103.646 273.723L79.7572 295.478C79.5678 295.674 79.463 295.936 79.4655 296.209C79.4678 296.481 79.577 296.741 79.7699 296.933C81.1766 298.201 117.829 331.121 117.871 331.15C118.067 331.332 118.323 331.431 118.589 331.431C118.856 331.431 119.112 331.332 119.307 331.15C125.162 325.553 136.602 314.595 138.467 312.806C141.479 319.785 142.973 327.323 142.85 334.923H115.765L117.461 333.381ZM82.0341 296.152C82.0341 296.152 178.651 208.153 180.522 206.488C182.09 204.822 184.204 203.774 186.479 203.531C188.815 203.531 189.556 205.929 188.84 207.967C188.419 209.177 187.858 210.332 187.169 211.412C182.595 218.764 176.962 225.405 170.451 231.114C169.452 231.997 170.84 233.389 171.862 232.592C174.397 230.615 177.886 227.91 181.749 228.611C182.488 228.734 183.189 229.027 183.795 229.466C184.401 229.906 184.897 230.482 185.243 231.146C185.521 231.9 185.647 232.702 185.613 233.505C185.58 234.308 185.388 235.095 185.049 235.824C184.181 237.763 183.039 239.565 181.656 241.176C181.506 241.341 181.413 241.548 181.391 241.77C181.369 241.99 181.419 242.213 181.534 242.403C181.649 242.594 181.822 242.741 182.028 242.824C182.234 242.908 182.462 242.923 182.677 242.866C186.202 241.717 191.702 239.618 193.812 242.847C194.133 243.36 194.342 243.935 194.424 244.535C194.507 245.135 194.462 245.745 194.291 246.326C193.776 248.113 193.078 249.843 192.209 251.488C187.537 260.648 180.852 267.243 173.292 275.112C162.848 285.986 151.537 297.561 118.566 329.011C115.89 326.622 84.9405 298.771 82.0341 296.152ZM267.205 148.577C266.766 148.184 268.008 148.311 251.635 148.311C251.702 143.605 251.468 138.9 250.933 134.225C250.498 131.13 248.768 123.81 242.113 122.65C236.666 121.702 223.027 121.921 217.449 122.016C222.271 106.551 230.38 95.7116 247.864 90.9909C254.256 89.4334 260.903 89.2169 267.383 90.3549C273.863 91.4931 280.037 93.9614 285.516 97.6041C292.395 102.073 296.729 108.469 299.568 118.343C306.061 140.914 306.086 164.448 305.535 186.634H267.56V149.325C267.554 149.183 267.52 149.043 267.459 148.915C267.398 148.786 267.311 148.671 267.205 148.577ZM251.687 150.357H262.899L251.856 157.102C251.856 156.692 251.829 155.765 251.687 150.357ZM232.412 207.534C237.836 211.758 255.086 225.477 263.818 233.091H187.718C187.701 228.115 182.761 225.502 177.806 226.831C182.092 222.327 185.898 217.391 189.161 212.1C190.999 209.103 191.573 206.691 190.916 204.727C190.523 203.569 189.702 202.608 188.623 202.036C187.543 201.463 186.285 201.326 185.108 201.651C182.631 202.327 180.381 203.654 178.59 205.491L148.274 233.08H133.387C139.248 228.277 162.896 208.383 163.984 207.458C165 206.592 163.562 205.134 162.567 205.979C159.72 208.404 135.643 228.579 131.55 231.944V151.023C204.966 189.439 202.877 188.379 203.336 188.554C203.481 188.643 203.65 188.687 203.819 188.685C203.99 188.683 204.157 188.632 204.301 188.541C208.916 185.603 263.809 152.212 265.514 151.171V231.843C257.276 224.596 241.786 212.276 233.81 206.045C232.773 205.232 231.366 206.718 232.412 207.534ZM249.368 139.733C249.421 143.349 249.833 158.109 249.839 158.333C248.555 159.117 206.354 184.824 203.731 186.486L150.02 158.379C149.573 140.162 150.189 133.638 147.199 127.888C146.529 126.604 145.595 125.477 144.459 124.579C246.561 124.488 240.335 124.099 242.975 124.969C248.576 126.786 249.311 135.893 249.368 139.733ZM371.844 34.3722C375.891 39.2325 378.278 45.2589 378.656 51.5716C378.316 58.4236 375.872 65.0045 371.656 70.4163C369.971 58.4562 370.034 46.3142 371.844 34.3722ZM380.449 47.5225C379.48 41.5033 376.59 35.9589 372.212 31.7172C373.534 22.3633 376.092 13.2261 379.815 4.54422C390.902 33.5804 390.328 65.7792 378.214 94.402C375.54 87.5322 373.496 80.4336 372.106 73.1938C377.156 67.0685 381.98 57.1413 380.449 47.5225ZM368.336 53.0839C368.23 67.2556 370.854 81.3151 376.062 94.495L311.705 53.1874C311.472 53.0524 311.198 53.014 310.938 53.0803C310.678 53.1468 310.454 53.3126 310.317 53.5422C310.106 53.7534 310.161 53.3669 310.161 84.9459C309.759 85.1571 303.552 89.6349 303.338 89.7912C303.338 84.948 303.338 52.5432 303.338 48.4857C316.708 40.7066 365.837 9.96192 377.803 4.0711C371.548 19.6553 368.336 36.2922 368.336 53.0839ZM317.095 124.114C315.794 124.44 314.427 124.389 313.156 123.966C312.516 123.741 311.977 123.296 311.633 122.711C311.288 122.127 311.164 121.439 311.278 120.77C311.81 118.919 312.989 117.321 314.6 116.267C318.073 113.454 317.181 114.212 326.143 108.946C326.838 108.379 327.675 108.015 328.564 107.896C329.453 107.777 330.357 107.907 331.177 108.273C337.262 113.333 324.838 122.257 317.095 124.114ZM324.948 107.276C323.97 107.848 318.542 110.961 316.843 112.005C314.995 113.149 312.968 113.976 310.845 114.451C309.094 114.848 307.113 115.306 305.795 114.009C304.827 112.872 304.323 111.414 304.375 109.923C304.43 108.431 305.043 107.014 306.09 105.951C310.342 101.469 314.277 100.724 318.835 98.2821C320.026 97.6355 321.414 97.4545 322.732 97.7743C324.048 98.0943 325.199 98.8919 325.962 100.013C326.724 101.133 327.041 102.497 326.855 103.84C326.667 105.182 325.987 106.406 324.948 107.276ZM317.836 96.5036C315.337 97.8364 312.691 98.8798 310.144 100.208C308.342 101.272 306.331 101.937 304.251 102.156C303.469 102.246 302.675 102.149 301.938 101.871C301.201 101.593 300.542 101.143 300.014 100.559C299.553 99.8085 299.321 98.9404 299.346 98.0603C299.37 97.1804 299.648 96.3262 300.149 95.6017C301.258 93.9927 302.684 92.627 304.339 91.5886C310.832 86.8743 310.699 86.8363 312.71 86.078C314.121 85.6061 315.652 85.6351 317.046 86.1601C318.438 86.6854 319.608 87.6746 320.356 88.9611C320.996 90.2989 321.091 91.8334 320.622 93.2403C320.151 94.647 319.152 95.8159 317.836 96.4994V96.5036ZM301.292 91.3605C294.062 97.0887 297.49 105.016 304.967 104.156C303.482 105.518 302.553 107.382 302.362 109.388C302.172 111.394 302.732 113.4 303.934 115.017C305.759 117.258 308.553 117.11 311.415 116.428C306.758 121.467 310.11 126.651 315.418 126.355C316.985 126.274 318.531 125.946 319.997 125.383C322.92 124.29 325.685 122.815 328.222 120.996C330.175 123.324 331.958 125.789 333.557 128.372C337.378 133.683 340.417 139.516 342.58 145.692C343.533 148.646 344.116 151.708 344.314 154.806C345.582 170.151 323.247 172.068 307.805 171.669C308.089 155.776 306.553 139.902 303.233 124.357C301.604 117.175 299.253 108.995 294.15 102.629C293.939 96.8247 293.658 85.9893 294.193 77.9462C294.205 75.6882 294.526 73.4426 295.147 71.2717C296.049 68.773 298.28 68.8786 299.583 70.9021C300.081 72.7959 300.409 74.7308 300.559 76.6831C301.27 81.5398 301.515 86.4531 301.292 91.3563V91.3605ZM201.954 122.433C181.783 122.471 143.236 122.517 140.571 122.54C131.976 122.612 130.867 126.277 124.41 128.729C122.619 129.37 120.715 129.633 118.817 129.501C116.919 129.37 115.069 128.846 113.383 127.964C110.733 126.534 108.401 124.579 106.531 122.218C104.66 119.858 103.289 117.142 102.501 114.235C99.2039 103.434 100.442 91.7111 96.3166 81.051C94.7187 76.0991 91.3116 71.9318 86.7759 69.3813C97.624 69.3813 177.255 69.2884 180.319 69.337C188.979 69.4721 194.386 74.7547 197.834 86.4666C199.398 91.8955 200.047 97.5466 199.756 103.189C199.673 109.458 199.574 117.222 201.954 122.433ZM49.8891 247.171C51.0711 244.055 52.8166 241.185 55.0386 238.701C58.644 234.774 65.1262 232.859 69.8533 235.68C71.0946 236.551 72.1154 237.698 72.834 239.032C73.5523 240.367 73.9486 241.852 73.991 243.367C74.3205 246.024 74.2952 247.519 74.4979 266.651C66.6007 267.69 58.9258 270.009 51.7753 273.52C45.7795 276.314 40.4644 280.38 36.2002 285.437C44.8093 261.612 49.2576 248.78 49.8891 247.171Z" fill="black"/>
<path d="M394.905 33.0308C394.789 31.7128 392.744 31.7635 392.86 33.0773C394.151 47.7103 395.606 64.2972 389.17 78.7211C388.632 79.9229 390.417 80.9178 390.962 79.7054C397.708 64.7132 396.149 47.1506 394.905 33.0308Z" fill="black"/>
<path d="M399.854 26.4835C399.822 26.3445 399.761 26.214 399.674 26.1004C399.588 25.9867 399.478 25.8927 399.353 25.8245C399.18 25.7324 398.984 25.6923 398.787 25.7085C398.593 25.725 398.405 25.7973 398.249 25.9166C398.094 26.0361 397.976 26.1979 397.909 26.3827C397.843 26.5674 397.83 26.7674 397.875 26.9587C400.49 46.2534 402.262 66.5703 392.939 84.2385C392.322 85.4044 394.092 86.4288 394.717 85.2524C404.342 67.0772 402.532 46.2576 399.854 26.4835Z" fill="black"/>
<path d="M297.262 43.5182C298.123 44.5193 299.602 43.1084 298.74 42.1009L294.055 36.6557C293.183 35.6398 291.732 37.0782 292.577 38.073L297.262 43.5182Z" fill="black"/>
<path d="M59.7829 258.671C61.503 259.607 63.4975 259.909 65.4179 259.525C67.3383 259.14 69.0627 258.095 70.2902 256.568C71.5176 255.043 72.1703 253.133 72.1342 251.175C72.098 249.217 71.3753 247.333 70.0923 245.855C69.3212 244.801 68.3179 243.939 67.1602 243.335C66.0025 242.729 64.7213 242.399 63.4158 242.37C62.1103 242.34 60.8153 242.611 59.6312 243.162C58.4469 243.713 57.4054 244.528 56.5869 245.546C55.7685 246.562 55.1948 247.756 54.9109 249.029C54.6269 250.305 54.6397 251.627 54.9488 252.897C55.2576 254.166 55.8542 255.347 56.6926 256.348C57.5309 257.349 58.5882 258.143 59.7829 258.671ZM56.7561 250.223C56.9967 248.947 57.6021 247.771 58.4989 246.833C59.3957 245.895 60.5456 245.238 61.8084 244.942C63.0487 244.723 64.324 244.824 65.5149 245.232C66.7059 245.641 67.7736 246.347 68.618 247.281C69.4781 248.364 69.9707 249.693 70.0247 251.074C70.0786 252.455 69.691 253.82 68.918 254.967C68.0849 256.107 66.8971 256.942 65.5402 257.337C64.1833 257.734 62.7338 257.668 61.4177 257.153C60.0067 256.64 58.7952 255.691 57.9575 254.445C57.1196 253.199 56.6991 251.718 56.7561 250.219V250.223Z" fill="black"/>
<path d="M229.668 140.086H170.617C170.353 140.098 170.105 140.211 169.923 140.401C169.74 140.592 169.639 140.845 169.639 141.109C169.639 141.373 169.74 141.626 169.923 141.817C170.105 142.007 170.353 142.12 170.617 142.133H229.679C229.814 142.128 229.945 142.098 230.068 142.042C230.19 141.986 230.3 141.906 230.391 141.807C230.526 141.663 230.615 141.483 230.649 141.289C230.684 141.095 230.661 140.895 230.585 140.713C230.509 140.532 230.382 140.376 230.22 140.265C230.057 140.153 229.865 140.091 229.668 140.086Z" fill="black"/>
<path d="M229.668 158.436H170.617C170.353 158.448 170.105 158.561 169.923 158.752C169.74 158.942 169.639 159.196 169.639 159.46C169.639 159.723 169.74 159.977 169.923 160.167C170.105 160.358 170.353 160.471 170.617 160.483H229.679C229.943 160.471 230.19 160.358 230.374 160.167C230.556 159.977 230.657 159.723 230.657 159.46C230.657 159.196 230.556 158.942 230.374 158.752C230.19 158.561 229.943 158.448 229.679 158.436H229.668Z" fill="black"/>
<path d="M179.904 105.926H121.029C120.766 105.938 120.517 106.051 120.335 106.242C120.153 106.432 120.051 106.686 120.051 106.949C120.051 107.213 120.153 107.466 120.335 107.657C120.517 107.848 120.766 107.961 121.029 107.973H179.912C180.176 107.961 180.424 107.848 180.606 107.657C180.788 107.466 180.89 107.213 180.89 106.949C180.89 106.686 180.788 106.432 180.606 106.242C180.424 106.051 180.176 105.938 179.912 105.926H179.904Z" fill="black"/>
<path d="M179.904 89.479H121.038C120.899 89.4726 120.761 89.4944 120.631 89.543C120.502 89.5916 120.384 89.6659 120.283 89.7616C120.183 89.8573 120.104 89.9722 120.049 90.0995C119.995 90.2267 119.967 90.3638 119.967 90.5023C119.967 90.6407 119.995 90.7777 120.049 90.9049C120.104 91.0323 120.183 91.1472 120.283 91.2428C120.384 91.3385 120.502 91.4129 120.631 91.4615C120.761 91.51 120.899 91.5318 121.038 91.5257H179.912C180.176 91.5136 180.424 91.4006 180.606 91.2099C180.788 91.0194 180.89 90.7659 180.89 90.5023C180.89 90.2385 180.788 89.9851 180.606 89.7945C180.424 89.6038 180.176 89.4908 179.912 89.479H179.904Z" fill="black"/>
<path d="M337.106 161.736C338.147 159.751 338.603 157.511 338.422 155.277C338.314 153.97 336.259 153.991 336.377 155.323C336.546 157.188 336.181 159.063 335.321 160.726C334.717 161.901 336.491 162.912 337.106 161.736Z" fill="black"/>
<path d="M98.8661 167.447C99.0661 167.441 99.2603 167.377 99.4258 167.265C99.5912 167.152 99.7213 166.995 99.8008 166.811C99.8802 166.627 99.9059 166.425 99.8747 166.227C99.8434 166.029 99.7566 165.845 99.6244 165.694L86.3389 151.777C85.4222 150.816 83.969 152.259 84.8836 153.218C99.3942 168.421 98.2979 167.447 98.8661 167.447Z" fill="black"/>
<path d="M78.2876 193.019C78.298 193.277 78.4055 193.524 78.5886 193.705C78.772 193.889 79.0174 193.997 79.2761 194.008H99.5381C99.8015 193.995 100.05 193.883 100.232 193.691C100.414 193.501 100.516 193.247 100.516 192.983C100.516 192.721 100.414 192.468 100.232 192.276C100.05 192.085 99.8015 191.973 99.5381 191.961H79.2761C79.0049 191.971 78.7487 192.088 78.5635 192.286C78.3782 192.485 78.279 192.749 78.2876 193.019Z" fill="black"/>
<path d="M86.7782 230.225C86.6025 230.419 86.5085 230.675 86.5155 230.937C86.5227 231.201 86.6304 231.45 86.8163 231.636C87.0023 231.822 87.2524 231.927 87.515 231.934C87.7775 231.94 88.0325 231.845 88.2272 231.67L101.534 218.363C101.709 218.166 101.802 217.911 101.794 217.649C101.787 217.387 101.678 217.136 101.492 216.952C101.305 216.766 101.055 216.66 100.792 216.654C100.529 216.65 100.275 216.745 100.081 216.922L86.7782 230.225Z" fill="black"/>
<path d="M251.757 76.8607C253.341 77.9259 255.204 78.5032 257.112 78.5211C259.021 78.5393 260.894 77.9971 262.498 76.9621C262.724 76.821 262.888 76.5982 262.956 76.3397C263.024 76.0809 262.99 75.8063 262.861 75.5723C261.948 73.9206 260.96 72.1929 259.667 70.0047C261.739 69.8103 265.763 69.4745 266.185 69.2781C266.376 69.2084 266.54 69.085 266.663 68.923C266.783 68.761 266.855 68.5673 266.868 68.3656C267.001 66.4005 266.388 64.4575 265.155 62.9232C263.919 61.3889 262.151 60.3759 260.204 60.0859C258.713 59.6424 257.139 59.5524 255.608 59.8234C254.076 60.0944 252.63 60.7185 251.381 61.6468C250.211 62.5542 249.269 63.7239 248.635 65.0618C248 66.3996 247.687 67.8682 247.723 69.3488C247.761 70.8292 248.145 72.2805 248.845 73.5854C249.546 74.8903 250.543 76.0123 251.757 76.8607ZM257.961 68.1269C257.783 68.1324 257.61 68.1838 257.458 68.2756C257.306 68.3675 257.181 68.497 257.095 68.6514C257.006 68.806 256.962 68.9803 256.959 69.1579C256.959 69.3353 257.006 69.5098 257.093 69.6646C257.547 70.4588 259.885 74.4486 260.569 75.6695C259.426 76.2645 258.149 76.5505 256.86 76.4991C255.574 76.4478 254.321 76.0611 253.229 75.3769C252.137 74.6928 251.244 73.7352 250.636 72.599C250.029 71.4631 249.727 70.1878 249.765 68.9C249.846 66.9963 250.648 65.1946 252.006 63.8591C253.367 62.5236 255.181 61.7539 257.086 61.706C259.089 61.6861 261.053 62.2602 262.73 63.3556C263.355 63.8411 263.866 64.4577 264.227 65.1619C264.591 65.8661 264.794 66.6408 264.823 67.432C262.242 67.7066 259.794 67.9432 257.95 68.1269H257.961Z" fill="black"/>
<path d="M252.401 57.4077C260.316 57.6088 268.207 56.4845 275.749 54.0811C277.063 53.7729 278.28 53.1378 279.283 52.2351C279.758 51.8181 280.098 51.2677 280.257 50.6556C280.415 50.0437 280.385 49.398 280.174 48.8024C279.961 48.2069 279.574 47.689 279.063 47.3158C278.552 46.9426 277.942 46.7316 277.31 46.7096C274.645 46.3846 271.954 46.3041 269.273 46.4688C270.631 45.2457 271.721 43.7532 272.473 42.0861C272.636 41.5635 272.676 41.0106 272.589 40.4699C272.505 39.9294 272.296 39.4157 271.979 38.969C271.662 38.5222 271.248 38.1543 270.767 37.8939C270.285 37.6334 269.751 37.4873 269.204 37.4668C267.97 37.5627 266.817 38.1245 265.983 39.0382C264.986 39.8831 264.031 40.8526 263.007 41.8559C258.537 45.9826 254.666 50.713 251.504 55.9102C251.432 56.0665 251.398 56.238 251.409 56.4099C251.417 56.5819 251.468 56.749 251.556 56.8966C251.645 57.044 251.768 57.1678 251.916 57.2569C252.063 57.3461 252.23 57.3978 252.401 57.4077ZM265.668 47.0096C265.528 47.1559 265.433 47.3405 265.397 47.5401C265.362 47.7397 265.387 47.9455 265.467 48.1315C265.547 48.3174 265.683 48.4754 265.852 48.5854C266.023 48.6955 266.221 48.7527 266.424 48.75C269.924 48.3649 273.455 48.3537 276.957 48.7162C279.006 48.9633 278.356 50.5432 277.314 51.2254C276.292 51.7896 275.196 52.2063 274.057 52.4632C267.619 54.4135 260.928 55.3944 254.203 55.3737C256.881 51.3192 260.007 47.579 263.522 44.2236C267.51 40.2295 268.591 39.1544 269.666 39.617C269.949 39.7353 270.188 39.9357 270.355 40.1921C270.522 40.4487 270.608 40.7495 270.602 41.0554C270.325 42.6163 267.78 45.2269 265.668 47.0096Z" fill="black"/>
<path d="M313.565 208.455C311.973 208.001 310.292 207.944 308.672 208.288C307.052 208.634 305.541 209.371 304.272 210.436C302.903 211.604 301.892 213.133 301.353 214.85C300.812 216.565 300.768 218.399 301.22 220.141C303.121 226.619 312.049 230.432 316.996 225.475C319.336 223.086 320.648 219.873 320.65 216.53C320.436 214.62 319.642 212.823 318.375 211.38C317.11 209.935 315.43 208.915 313.565 208.455ZM313.688 225.246C308.173 227.504 300.17 220.705 303.868 214.236C304.965 215.442 306.395 216.295 307.977 216.686C309.288 217.093 310.644 217.347 312.015 217.44C311.464 218.004 311.058 218.697 310.841 219.455C310.621 220.215 310.592 221.016 310.758 221.787C310.923 222.56 311.278 223.28 311.789 223.882C312.3 224.484 312.953 224.949 313.688 225.238V225.246ZM312.799 220.971C312.919 220.112 313.268 219.301 313.808 218.625C314.349 217.947 315.061 217.425 315.872 217.119C316.085 217.049 316.269 216.914 316.398 216.73C316.527 216.549 316.592 216.327 316.584 216.103C316.575 215.881 316.495 215.666 316.353 215.492C316.212 215.319 316.018 215.197 315.8 215.144C314.814 215.066 314.427 215.438 312.735 215.395C310.357 215.347 305.898 214.318 305.186 212.438C310.338 207.285 319.076 211.545 318.605 217.493C318.4 219.784 317.452 221.945 315.906 223.65C314.379 223.5 312.799 222.718 312.799 220.971Z" fill="black"/>
<path d="M374.215 262.706C369.504 256.198 362.45 251.934 352.011 249.302C341.362 246.592 330.349 245.599 319.387 246.358C308.93 247.057 298.569 248.818 288.467 251.613C284.293 252.529 280.329 254.225 276.785 256.61C270.792 254.489 264.412 253.691 258.081 254.27C254.197 254.701 250.418 255.814 246.919 257.554C244.008 259.183 241.197 260.978 238.495 262.934C235.773 264.649 233.557 267.061 232.079 269.921C231.538 271.249 231.47 272.719 231.882 274.092C232.294 275.465 233.164 276.654 234.347 277.463C238.007 280.03 243.581 278.427 247.611 276.619C249.005 275.998 250.334 275.218 251.658 274.565C251.863 274.46 252.091 274.401 252.321 274.392C252.552 274.384 252.782 274.426 252.995 274.515C253.209 274.606 253.399 274.741 253.555 274.912C253.709 275.085 253.825 275.288 253.891 275.51C253.958 275.731 253.977 275.964 253.946 276.192C253.912 276.422 253.83 276.642 253.703 276.834C253.578 277.028 253.409 277.191 253.213 277.313C253.016 277.436 252.797 277.512 252.567 277.539C248.741 278.283 245.237 280.186 242.529 282.989C241.613 284.115 241.131 285.534 241.176 286.987C241.222 288.438 241.788 289.826 242.775 290.893C244.185 292.373 245.991 293.419 247.977 293.907C244.901 294.988 243.379 296.745 243.33 299.261C243.258 302.904 246.129 306.366 251.449 306.736C245.425 311.237 246.912 317.951 252.009 319.66C256.381 321.453 261.976 320.716 265.92 319.95C265.947 324.275 266.131 334.709 266.15 335.93C266.154 336.201 266.262 336.458 266.452 336.648C266.644 336.838 266.9 336.946 267.17 336.948C268.076 336.961 287.464 337.176 289.586 337.198C292.351 346.077 297.446 354.05 304.34 360.29C313.295 367.856 328.406 371.461 339.488 370.337C353.779 368.891 367.846 357.453 374.491 341.87C377.892 333.679 379.877 324.97 380.361 316.114C382.701 300.401 382.8 288.987 380.69 277.949C379.664 272.458 377.455 267.257 374.215 262.706ZM257.34 306.313C258.656 306.079 258.136 304.091 256.844 304.328C251.491 305.302 247.924 304.565 246.241 302.138C245.611 301.251 245.313 300.171 245.396 299.086C245.772 297.104 247.417 295.917 250.571 295.324C252.142 295.034 253.739 294.796 255.302 294.568C256.482 294.394 256.229 292.489 255.046 292.553C252.252 292.764 249.445 292.344 246.834 291.319C244.481 290.339 242.472 287.978 243.385 285.532C244.908 281.449 252.562 279.768 253.946 279.244C254.66 278.898 255.241 278.327 255.6 277.62C255.959 276.912 256.075 276.105 255.931 275.326C255.785 274.544 255.39 273.833 254.803 273.3C254.216 272.766 253.468 272.441 252.678 272.371C251.439 272.394 250.239 272.802 249.24 273.535C246.386 275.254 243.199 276.344 239.889 276.733C238.643 276.973 237.353 276.775 236.239 276.169C235.126 275.56 234.258 274.584 233.785 273.408C233.19 271.439 234.208 269.298 236.93 266.86C239.423 264.702 242.103 262.769 244.942 261.09C251.458 256.952 259.235 255.269 266.879 256.344C270.444 256.904 273.952 257.78 277.361 258.967C290.539 263.341 302.378 271.013 311.756 281.25C320.87 291.311 324.048 299.219 329.377 311.503C329.8 312.475 331.312 312.01 331.297 311.011C331.297 311.011 331.181 303.734 331.152 301.605C331.109 298.484 331.686 295.385 332.848 292.485C334.009 289.587 335.733 286.947 337.919 284.719C340.105 282.488 342.712 280.714 345.586 279.495C348.461 278.279 351.549 277.641 354.671 277.622C357.792 277.603 360.889 278.201 363.778 279.383C366.668 280.564 369.295 282.307 371.509 284.51C373.724 286.71 375.48 289.33 376.677 292.213C377.875 295.096 378.49 298.188 378.487 301.31C378.779 311.353 378.57 324.448 374.343 336.676C368.831 352.625 356.464 364.814 342.834 367.725C336.914 368.939 330.797 368.808 324.933 367.34C319.355 366.538 314.02 364.52 309.306 361.428C304.593 358.338 300.616 354.251 297.655 349.454C290.148 337.652 287.926 323.5 285.96 310.979C285.899 310.766 285.768 310.576 285.59 310.443C285.413 310.308 285.195 310.234 284.971 310.234C283.915 310.234 276.476 315.677 266.881 317.723C261.617 318.847 254.596 319.59 251.027 316.756C250.416 316.264 249.969 315.599 249.745 314.847C249.521 314.095 249.533 313.292 249.776 312.546C250.334 310.907 251.335 309.456 252.672 308.354C254.007 307.253 255.625 306.548 257.34 306.313ZM344.735 277.558C340.458 279.331 336.751 282.241 334.014 285.975C331.276 289.708 329.616 294.12 329.211 298.731C329.063 301.118 329.044 303.511 329.156 305.897C328.49 304.36 327.827 302.82 327.149 301.289C322.614 291.076 316.018 281.912 307.776 274.365C299.535 266.82 289.825 261.058 279.254 257.438C281.351 256.152 283.611 255.15 285.973 254.46C295.701 251.583 305.685 249.644 315.784 248.668C327.229 247.513 338.785 248.265 349.984 250.899C360.148 253.296 367.008 257.024 371.57 262.628C374.789 266.645 377.06 271.338 378.211 276.357C379.765 283.097 380.405 290.014 380.112 296.923C379.48 293.087 377.985 289.448 375.737 286.275C373.49 283.105 370.552 280.486 367.143 278.621C363.732 276.754 359.943 275.689 356.06 275.505C352.178 275.322 348.305 276.023 344.735 277.558ZM284.177 312.857C285.229 320.393 286.817 327.845 288.932 335.155C280.284 335.058 268.266 334.893 268.178 334.893C268.044 328.73 267.966 323.971 267.954 319.529C273.629 318.023 279.085 315.78 284.177 312.857Z" fill="black"/>
<path d="M225.708 294.327C224.984 295.446 226.745 296.485 227.461 295.383C229.373 292.439 231.825 287.285 234.374 285.973C234.493 285.908 234.63 285.882 234.763 285.897C234.898 285.912 235.025 285.969 235.126 286.058C237.39 287.794 233.346 295.562 231.947 298.046C231.812 298.281 231.774 298.56 231.844 298.822C231.914 299.086 232.085 299.307 232.321 299.445C232.556 299.58 232.834 299.618 233.096 299.546C233.358 299.476 233.582 299.305 233.717 299.071C235.154 296.591 236.336 293.974 237.245 291.256C238.166 288.381 238.039 286.313 236.86 284.919C233.044 280.458 228.179 290.521 225.708 294.327Z" fill="black"/>
<path d="M228.143 297.702C225.019 296.293 221.57 295.769 218.169 296.188C208.908 297.297 200.596 301.633 192.01 309.836C189.581 312.16 187.393 314.673 185.057 317.17C184.951 317.282 184.87 317.417 184.823 317.563C184.775 317.711 184.761 317.867 184.781 318.019C184.801 318.173 184.855 318.319 184.94 318.45C185.024 318.579 185.136 318.689 185.268 318.769C195.347 324.894 205.226 331.423 215.124 337.662L214.279 347.953C214.167 349.279 216.216 349.307 216.321 347.995L217.073 338.889C218.526 339.787 223.811 343.04 226.367 344.554C226.481 344.634 226.612 344.687 226.751 344.71C226.888 344.736 227.03 344.727 227.165 344.691C227.3 344.653 227.425 344.588 227.53 344.497C227.636 344.406 227.723 344.292 227.78 344.166C230.83 337.464 233.303 330.515 235.172 323.394C237.284 315.315 236.955 308.89 234.177 303.751C232.809 301.181 230.709 299.075 228.143 297.702ZM233.692 320.854C231.901 328.166 229.463 335.303 226.413 342.186C215.88 335.951 193.675 321.513 187.37 317.656C190.854 313.693 194.67 310.037 198.775 306.725C208.048 299.223 224.493 293.469 231.434 303.196C234.583 307.612 235.343 313.558 233.692 320.854Z" fill="black"/>
<path d="M213.155 352.221C212.013 352.454 210.967 353.03 210.16 353.873C209.355 354.718 208.825 355.787 208.644 356.94C208.464 358.091 208.639 359.272 209.148 360.321C209.658 361.371 210.475 362.239 211.491 362.812C212.65 363.443 214.011 363.589 215.278 363.219C216.543 362.85 217.612 361.992 218.25 360.837C218.913 359.939 219.302 358.87 219.371 357.757C219.441 356.644 219.188 355.535 218.643 354.562C218.043 353.693 217.208 353.011 216.237 352.597C215.267 352.183 214.199 352.052 213.155 352.221ZM216.573 355.261C217.059 355.865 217.333 356.61 217.356 357.386C217.38 358.159 217.149 358.919 216.702 359.55C214.589 363.116 210.445 361.002 210.64 357.552C210.65 356.868 210.864 356.203 211.254 355.643C211.645 355.081 212.194 354.65 212.832 354.403C213.47 354.156 214.167 354.107 214.834 354.26C215.5 354.412 216.106 354.762 216.573 355.261Z" fill="black"/>
<path d="M244.576 351.968C244.153 350.701 242.2 351.277 242.609 352.534L248.811 371.543C249.22 372.798 251.191 372.245 250.777 370.975L244.576 351.968Z" fill="black"/>
<path d="M248.483 350.325C248.344 350.096 248.12 349.934 247.86 349.868C247.6 349.803 247.326 349.841 247.096 349.976C246.863 350.111 246.694 350.331 246.623 350.589C246.551 350.846 246.584 351.121 246.713 351.355C249.497 356.37 256.146 367.923 256.562 368.614C256.651 368.764 256.778 368.886 256.93 368.971C257.08 369.055 257.251 369.1 257.424 369.097C257.602 369.1 257.777 369.053 257.933 368.967C258.087 368.88 258.216 368.753 258.309 368.601C258.4 368.447 258.451 368.274 258.453 368.096C258.457 367.919 258.415 367.741 258.33 367.585C256.218 363.779 248.519 350.386 248.483 350.325Z" fill="black"/>
<path d="M292.351 307.057C295.652 303.475 298.521 299.514 300.899 295.263C301.019 295.028 301.047 294.758 300.975 294.504C300.901 294.253 300.734 294.037 300.506 293.904C300.278 293.771 300.01 293.731 299.754 293.792C299.497 293.854 299.275 294.01 299.131 294.232C292.583 305.215 290.222 305.234 290.661 306.618C290.704 306.791 290.792 306.949 290.919 307.078C291.044 307.205 291.202 307.296 291.375 307.34C291.548 307.386 291.73 307.382 291.901 307.334C292.074 307.283 292.229 307.188 292.351 307.057Z" fill="black"/>
<path d="M265.435 305.557C268.017 305.354 270.557 304.803 272.991 303.918C274.218 303.47 273.671 301.502 272.406 301.958C270.15 302.79 267.791 303.314 265.393 303.513C264.06 303.62 264.128 305.69 265.435 305.557Z" fill="black"/>
<path d="M263.235 293.841C263.446 293.841 263.102 293.894 269.474 292.574C270.786 292.301 270.249 290.322 268.963 290.593L262.952 291.845C262.721 291.919 262.525 292.071 262.396 292.276C262.267 292.481 262.217 292.724 262.25 292.962C262.284 293.201 262.4 293.421 262.582 293.581C262.762 293.742 262.994 293.835 263.235 293.841Z" fill="black"/>
<path d="M334.372 363.15C334.584 363.15 334.89 363.082 343.514 361.895C343.776 361.825 344 361.654 344.135 361.42C344.272 361.185 344.31 360.907 344.238 360.645C344.169 360.383 343.997 360.159 343.763 360.022C343.529 359.886 343.25 359.848 342.988 359.918L334.102 361.139C333.863 361.206 333.658 361.356 333.523 361.563C333.386 361.768 333.331 362.017 333.363 362.263C333.397 362.508 333.517 362.731 333.701 362.894C333.887 363.059 334.125 363.148 334.372 363.15Z" fill="black"/>
<path d="M134.815 298.819C132.171 300.995 129.56 303.278 127.059 305.608C126.086 306.516 127.526 307.969 128.491 307.067C136.095 299.985 136.729 300.41 136.566 299.464C136.53 299.28 136.448 299.107 136.326 298.965C136.205 298.822 136.049 298.712 135.872 298.648C135.696 298.583 135.507 298.564 135.321 298.596C135.136 298.625 134.962 298.703 134.815 298.819Z" fill="black"/>
<path d="M77.136 296.466C63.9432 307.281 49.9645 317.098 35.3152 325.838C35.2005 325.908 35.101 325.999 35.0228 326.109C34.9447 326.218 34.8898 326.341 34.861 326.472C34.8154 326.664 34.8266 326.867 34.8936 327.053C34.9603 327.241 35.0796 327.403 35.2372 327.524C35.3948 327.644 35.5838 327.714 35.7813 327.729C35.9788 327.746 36.1765 327.701 36.3501 327.606C51.1847 318.862 65.2967 308.945 78.5512 297.951C79.5798 297.102 78.1498 295.634 77.136 296.466Z" fill="black"/>
<path d="M164.013 239.841L169.125 234.829C169.307 234.635 169.406 234.379 169.402 234.113C169.398 233.847 169.291 233.594 169.104 233.406C168.916 233.218 168.663 233.108 168.397 233.104C168.132 233.099 167.875 233.197 167.68 233.378L162.571 238.39C162.394 238.585 162.299 238.84 162.305 239.102C162.311 239.364 162.418 239.615 162.603 239.801C162.788 239.987 163.037 240.095 163.3 240.103C163.563 240.11 163.818 240.017 164.013 239.841Z" fill="black"/>
<path d="M174.279 248.911L179.183 244.923C180.22 244.078 178.795 242.613 177.777 243.445L172.872 247.433C171.837 248.261 173.259 249.739 174.279 248.911Z" fill="black"/>
<path d="M15.6934 303.905C15.5754 303.834 15.4442 303.789 15.3077 303.77C15.1713 303.751 15.0325 303.762 14.8999 303.798C14.7672 303.836 14.6437 303.899 14.5364 303.986C14.4291 304.072 14.3406 304.178 14.2762 304.3L7.09481 321.261C6.99779 321.434 6.9535 321.633 6.96732 321.834C6.98115 322.032 7.05248 322.222 7.17266 322.381C7.29282 322.541 7.45666 322.662 7.6442 322.729C7.83176 322.797 8.03493 322.809 8.22904 322.763C8.36665 322.727 8.49555 322.664 8.60779 322.577C8.72005 322.49 8.81326 322.381 8.8817 322.256L16.0631 305.295C16.1919 305.061 16.2255 304.784 16.1566 304.526C16.0878 304.267 15.922 304.045 15.6934 303.905Z" fill="black"/>
<path d="M9.3695 302.461L0.253399 321.952C-0.310549 323.152 1.48268 324.14 2.04029 322.942L11.1585 303.451C11.714 302.262 9.93345 301.251 9.3695 302.461Z" fill="black"/>
</svg>
