<svg width="40" height="40" viewBox="0 0 40 40" fill="none" xmlns="http://www.w3.org/2000/svg">
<rect width="40" height="40" rx="20" fill="#F2F0E4"/>
<path d="M28.3057 19.6455C28.3057 19.3818 28.1914 19.1182 27.9893 18.9336L22.2061 13.1504C21.9863 12.9307 21.749 12.8428 21.5029 12.8428C20.958 12.8428 20.5625 13.2295 20.5625 13.7568C20.5625 14.0293 20.668 14.2666 20.8438 14.4424L22.8125 16.4375L25.3965 18.8105L23.3574 18.6875H12.6699C12.0898 18.6875 11.6943 19.0742 11.6943 19.6455C11.6943 20.208 12.0898 20.6035 12.6699 20.6035H23.3574L25.4053 20.4805L22.8125 22.8535L20.8438 24.8486C20.668 25.0156 20.5625 25.2529 20.5625 25.5254C20.5625 26.0527 20.958 26.4482 21.5029 26.4482C21.749 26.4482 21.9775 26.3516 22.1885 26.1494L27.9893 20.3574C28.1914 20.1641 28.3057 19.9092 28.3057 19.6455Z" fill="black"/>
</svg>
