<svg width="246" height="246" viewBox="0 0 246 246" fill="none" xmlns="http://www.w3.org/2000/svg">
<path d="M127.767 159.619C127.776 159.521 127.812 159.427 127.874 159.35C126.641 159.511 125.392 159.451 124.18 159.174C120.193 158.082 116.768 155.521 114.592 152.006C111.473 147.029 108.11 139.039 100.909 133.989L100.887 133.981C100.94 134.017 100.984 134.065 101.016 134.121C101.049 134.177 101.069 134.239 101.076 134.303C101.082 134.368 101.075 134.431 101.054 134.493C101.033 134.554 101 134.61 100.956 134.657C100.506 135.296 99.9036 135.813 99.2027 136.16C98.5016 136.507 97.7248 136.671 96.9436 136.639C95.828 136.369 94.8104 135.792 94.0069 134.973C93.2033 134.153 92.6462 133.126 92.3989 132.005C92.3825 131.941 92.3804 131.875 92.3928 131.81C92.405 131.745 92.4315 131.685 92.4701 131.631C92.5086 131.578 92.5585 131.534 92.6161 131.502C92.6737 131.471 92.7376 131.452 92.8031 131.448C92.7887 131.445 92.774 131.441 92.759 131.44C87.3123 131.387 81.8951 132.246 76.7324 133.983C65.1929 137.419 57.9053 141.324 50.4488 146.994C40.9883 154.107 32.423 162.341 24.9394 171.511C24.9232 171.534 24.9089 171.559 24.8965 171.584C24.9635 171.513 25.0442 171.456 25.1339 171.417C25.2236 171.376 25.3203 171.355 25.4183 171.354C27.9682 171.462 30.5067 171.757 33.0133 172.237C36.1763 172.791 54.6272 176.25 54.7191 176.269C54.7862 176.288 54.8479 176.323 54.8992 176.369C54.9505 176.417 54.9901 176.476 55.0146 176.541C55.0391 176.606 55.048 176.677 55.0405 176.745C55.0331 176.815 55.0094 176.881 54.9715 176.94C55.067 176.847 56.1401 175.671 60.7008 170.693C60.8368 173.711 61.9417 198.327 61.9968 199.55C61.9993 199.434 62.0468 199.322 62.1295 199.239C62.2121 199.157 62.3234 199.109 62.4403 199.106C63.3541 199.093 72.6825 199.106 73.7201 199.106V185.232C73.7231 185.135 73.7562 185.043 73.8147 184.966C73.8731 184.889 73.9539 184.833 74.0459 184.805L74.1256 184.779C74.2481 184.734 104.74 174.51 120.639 169.176C120.705 169.159 120.774 169.156 120.84 169.17C120.907 169.183 120.97 169.212 121.024 169.253C121.078 169.294 121.122 169.348 121.153 169.408C121.184 169.469 121.2 169.535 121.201 169.604C121.201 170.384 121.201 190.562 121.201 190.714C124.12 190.626 127.036 190.469 129.944 190.209C130.814 190.133 135.249 189.719 136.084 189.445C135.394 189.38 125.937 179.622 127.767 159.619Z" fill="white"/>
<path d="M104.441 110.971C104.39 110.425 104.21 109.898 103.916 109.434C103.622 108.97 103.222 108.583 102.749 108.303C101.827 107.824 100.756 107.716 99.7577 108.003C98.6241 108.345 97.5848 108.945 96.7209 109.755C95.9605 110.344 95.3763 111.13 95.0316 112.027C94.4554 111.726 93.8037 111.598 93.1562 111.66C92.7689 111.73 92.4122 111.916 92.1336 112.194C91.8552 112.472 91.6683 112.828 91.598 113.216C91.3918 115.113 91.6386 117.032 92.3183 118.815C92.3664 118.942 92.4622 119.045 92.5853 119.103C92.5853 118.93 92.5694 118.756 92.5853 118.584C92.8046 116.181 95.2485 114.203 97.7168 113.789C98.4395 113.674 99.1786 113.725 99.8788 113.937C100.579 114.149 101.222 114.517 101.759 115.014C102.461 114.679 103.123 114.268 103.734 113.789C104.081 113.418 104.328 112.964 104.452 112.472C104.575 111.979 104.572 111.462 104.441 110.971Z" fill="black"/>
<path d="M73.7163 233.327V199.104H62.434C62.3172 199.106 62.2058 199.154 62.1233 199.238C62.0406 199.32 61.993 199.431 61.9906 199.547C61.8509 200.666 57.7888 233.307 57.7852 233.327C57.7858 233.444 57.8327 233.557 57.9157 233.64C57.9988 233.724 58.1113 233.77 58.2286 233.77H74.1536C74.0376 233.768 73.9272 233.72 73.8458 233.637C73.7642 233.555 73.7179 233.443 73.7163 233.327Z" fill="#62908A"/>
<path d="M54.7127 176.269C54.6209 176.25 36.1699 172.791 33.007 172.237C30.5024 171.757 27.966 171.462 25.4181 171.354C25.3202 171.355 25.2236 171.377 25.1339 171.416C25.0443 171.456 24.9635 171.513 24.8962 171.584C24.6512 171.837 23.7778 173.068 23.4752 173.511C14.3037 186.973 6.60576 212.907 6.79441 218.292C7.02594 224.891 12.5629 228.95 15.0619 227.982C15.3285 227.782 15.5502 227.529 15.7127 227.238C15.8752 226.947 15.9748 226.626 16.0052 226.294C16.1974 225.056 16.3128 223.806 16.3506 222.553C18.0105 225.036 18.944 226.774 19.8541 227.496C22.5822 229.282 28.2846 227.307 28.5639 223.785C28.5564 222.931 28.4231 222.082 28.1682 221.268C27.6488 219.005 27.0253 216.762 26.6406 215.345C29.0441 218.32 32.069 220.735 35.5035 222.419C36.7123 222.935 38.0379 223.114 39.3402 222.939C40.2408 222.755 41.0904 222.376 41.8288 221.829C42.5672 221.283 43.1768 220.579 43.6142 219.771C43.76 219.379 43.8067 218.958 43.7503 218.543C43.6939 218.129 43.5361 217.735 43.2908 217.397C41.005 213.212 33.3414 206.66 34.4586 203.579C34.5223 203.456 34.5713 203.401 34.5419 203.448C34.5125 203.494 34.5419 203.448 34.5725 203.436C35.1447 203.529 35.6804 203.777 36.1209 204.153C40.5481 207.245 43.5224 211.396 50.0761 210.49C50.7915 210.446 51.4878 210.242 52.1139 209.894C52.7401 209.545 53.2802 209.059 53.6948 208.475C54.0522 207.887 54.2294 207.207 54.2041 206.52C54.1789 205.832 53.9524 205.166 53.5527 204.607C51.1027 201.966 49.4942 202.157 46.6424 199.478C46.2753 199.13 46.0228 198.678 45.9185 198.183C45.8038 196.665 45.9911 195.14 46.4697 193.694C48.4113 187.629 51.6147 182.459 54.9773 176.919C55.0118 176.86 55.0322 176.795 55.0371 176.727C55.042 176.659 55.0312 176.592 55.0056 176.528C54.98 176.466 54.9403 176.41 54.8895 176.364C54.8388 176.319 54.7783 176.287 54.7127 176.269ZM24.4197 211.364C23.8969 210.391 23.4706 209.368 23.1469 208.312C22.9791 207.765 23.8354 207.533 24.0044 208.077C24.3057 209.06 24.702 210.011 25.1878 210.917C25.4512 211.419 24.6904 211.865 24.4197 211.364ZM26.6762 174.887C25.8667 175.747 25.1754 176.71 24.6206 177.752C24.3523 178.257 23.5867 177.809 23.855 177.305C24.4483 176.196 25.1864 175.172 26.0502 174.26C26.4446 173.844 27.0706 174.473 26.6762 174.887ZM13.8565 217.664C13.1976 216.602 12.7219 215.437 12.449 214.217C12.3265 213.661 13.184 213.425 13.3065 213.982C13.5611 215.127 14.0067 216.22 14.6246 217.217C14.926 217.703 14.1591 218.148 13.859 217.664H13.8565Z" fill="white"/>
<path d="M103.742 118.546C103.162 118.78 102.568 118.978 101.964 119.14C101.42 119.316 101.189 118.46 101.729 118.282C102.316 118.041 102.924 117.852 103.544 117.717C103.095 116.372 102.203 115.219 101.015 114.445C100.035 113.829 98.8626 113.593 97.7206 113.784C95.2351 114.2 92.8072 116.194 92.5891 118.579C92.5732 118.751 92.5891 118.925 92.5891 119.098C92.5911 120.264 92.9085 121.407 93.5079 122.407C94.1073 123.408 94.9661 124.226 95.9934 124.777C99.9428 126.85 104.332 123.014 103.742 118.546ZM95.3907 119.393C95.6903 119.1 96.0451 118.87 96.4346 118.715C96.8241 118.56 97.2403 118.484 97.6594 118.492C97.7728 118.498 97.8796 118.547 97.9578 118.629C98.0359 118.712 98.0796 118.821 98.0796 118.934C98.0796 119.048 98.0359 119.157 97.9578 119.24C97.8796 119.322 97.7728 119.371 97.6594 119.377C97.3568 119.371 97.0558 119.424 96.774 119.534C96.4921 119.644 96.2347 119.809 96.0167 120.019C95.6063 120.416 94.9791 119.79 95.3907 119.393Z" fill="white"/>
<path d="M100.887 133.981C99.7077 133.165 98.4088 132.538 97.0367 132.121C95.6587 131.723 94.2366 131.497 92.8031 131.448C92.7376 131.453 92.6736 131.472 92.616 131.504C92.5585 131.534 92.5086 131.578 92.47 131.632C92.4314 131.685 92.405 131.746 92.3927 131.811C92.3803 131.875 92.3824 131.941 92.3988 132.005C92.6462 133.126 93.2033 134.155 94.0069 134.974C94.8104 135.794 95.828 136.371 96.9436 136.639C97.7249 136.672 98.5017 136.508 99.2027 136.161C99.9038 135.814 100.507 135.297 100.955 134.657C101 134.61 101.033 134.554 101.054 134.494C101.075 134.433 101.082 134.368 101.076 134.304C101.069 134.239 101.049 134.178 101.016 134.121C100.984 134.066 100.94 134.019 100.887 133.981Z" fill="white"/>
<path d="M185.631 173.557C185.66 172.731 185.389 171.921 184.864 171.281C183.992 170.439 182.91 169.846 181.731 169.566C179.577 168.817 177.33 168.37 175.054 168.236C176.57 167.833 178.056 167.329 179.521 166.814C180.836 166.366 182.097 165.771 183.28 165.04C183.879 164.624 184.382 164.081 184.749 163.452C185.118 162.821 185.344 162.118 185.413 161.391C185.482 160.663 185.391 159.931 185.147 159.242C184.905 158.554 184.514 157.927 184.003 157.405C182.741 156.596 181.249 156.228 179.756 156.354L172.406 156.181C176.066 155.027 181.603 151.736 180.326 148.085C179.44 145.556 176.212 144.578 173.815 144.369C168.562 143.909 161.131 146.728 155.453 148.122C155.306 145.917 154.985 143.74 154.63 141.563C154.329 139.563 153.749 137.615 152.909 135.774C151.349 132.466 147.012 130.642 144.325 133.159C142.61 134.771 142.687 137.021 141.661 144.312C141.225 147.405 140.233 152.597 138.22 154.984C136.837 156.31 135.179 157.314 133.364 157.924C131.699 158.537 129.968 158.953 128.208 159.167C128.094 159.178 127.987 159.228 127.907 159.309C127.826 159.389 127.776 159.496 127.766 159.61C126.84 170.168 128.353 180.477 135.096 188.649C135.367 188.976 135.622 189.431 136.076 189.436H136.09C145.032 189.146 173.265 182.086 180.291 179.22C182.73 178.236 185.559 176.504 185.631 173.557Z" fill="white"/>
<path d="M121.195 169.602C121.194 169.544 121.182 169.486 121.159 169.432C121.136 169.378 121.102 169.329 121.06 169.288C121.018 169.247 120.969 169.214 120.914 169.192C120.86 169.17 120.802 169.16 120.743 169.16C120.636 169.16 74.2614 184.734 74.0397 184.803C73.9477 184.832 73.8667 184.888 73.8084 184.965C73.75 185.042 73.7169 185.134 73.7139 185.231V233.327C73.7151 233.444 73.7623 233.556 73.8452 233.639C73.928 233.723 74.0401 233.769 74.1573 233.77C124.279 234.128 120.818 233.844 121.064 233.639C121.147 233.556 121.194 233.444 121.195 233.327C121.116 222.511 121.246 179.513 121.195 169.602Z" fill="#EAEAEA"/>
<path d="M105.502 156.485C104.501 154.602 97.172 140.396 96.8156 139.71C96.7757 139.644 96.7196 139.59 96.6525 139.552C96.5855 139.514 96.5098 139.494 96.4327 139.494C96.3557 139.494 96.28 139.514 96.213 139.552C96.1458 139.59 96.0897 139.644 96.0499 139.71C94.9474 141.59 86.8686 155.809 86.4655 156.492C86.4233 156.562 86.4028 156.642 86.4067 156.723C86.4108 156.805 86.4388 156.882 86.4876 156.947C86.566 157.082 86.1299 156.751 95.9348 163.676C96.0021 163.717 96.0794 163.738 96.1583 163.738C96.2371 163.738 96.3145 163.717 96.3819 163.676L105.343 157.095C105.442 157.034 105.514 156.936 105.544 156.822C105.574 156.708 105.559 156.588 105.502 156.485Z" fill="#62908A"/>
<path d="M239.359 226.687C238.046 212.739 234.796 199.041 229.704 185.99C229.114 184 227.876 182.264 226.186 181.057C221.941 178.523 217.009 181.958 214.458 185.318C210.325 190.758 208.35 197.2 206.827 203.794C209.231 202.566 211.801 201.694 214.455 201.207C215.966 200.927 217.503 200.818 219.038 200.883H219.053C221.754 200.911 224.399 201.664 226.708 203.066C229.018 204.466 230.908 206.463 232.181 208.845C235.466 215.138 235.339 222.667 233.869 229.564C235.054 229.553 236.236 229.457 237.407 229.276C239.074 229.015 239.509 228.313 239.359 226.687ZM223.493 193.285C223.006 193.91 222.321 194.353 221.55 194.541C220.781 194.728 219.969 194.651 219.249 194.32C218.471 193.939 217.825 193.333 217.398 192.58C216.969 191.826 216.779 190.961 216.85 190.098C217 189.256 217.414 188.484 218.033 187.896C218.652 187.307 219.445 186.932 220.292 186.827C223.628 186.32 225.771 190.493 223.493 193.283V193.285Z" fill="black"/>
<path d="M211.059 27.3945H28.5841C28.4671 27.3965 28.3554 27.4438 28.2726 27.5265C28.1899 27.6093 28.1425 27.721 28.1406 27.838V141.609C28.1406 141.726 28.1873 141.839 28.2705 141.922C28.3537 142.006 28.4665 142.052 28.5841 142.052C28.7017 142.052 28.8145 142.006 28.8977 141.922C28.9809 141.839 29.0275 141.726 29.0275 141.609V28.2814H210.615V171.782C210.615 171.899 210.662 172.012 210.745 172.095C210.829 172.179 210.941 172.225 211.059 172.225C211.176 172.225 211.289 172.179 211.372 172.095C211.456 172.012 211.502 171.899 211.502 171.782V27.838C211.5 27.721 211.453 27.6093 211.37 27.5265C211.288 27.4438 211.176 27.3965 211.059 27.3945Z" fill="black"/>
<path d="M180.915 197.08C180.015 195.777 178.186 194.495 176.573 195.34C176.202 195.532 175.898 195.831 175.698 196.197C175.435 196.705 175.209 197.233 175.024 197.775C174.531 197.339 173.937 197.029 173.296 196.873C172.997 196.828 172.692 196.854 172.405 196.949C172.119 197.045 171.859 197.206 171.647 197.422C171.435 197.636 171.277 197.899 171.186 198.188C171.096 198.476 171.074 198.781 171.124 199.078C171.302 199.712 172.048 200.139 172.536 200.507C173.161 200.975 173.803 201.419 174.452 201.854C175.523 199.219 179.475 198.294 181.149 201.044C181.562 201.618 181.799 202.299 181.828 203.004C182.082 202.006 182.131 200.967 181.974 199.949C181.817 198.932 181.457 197.956 180.915 197.08Z" fill="black"/>
<path d="M84.0068 25.1505C83.5303 25.4605 83.975 26.2298 84.4552 25.9162C112.63 7.55466 139.504 11.0655 154.97 26.0583C155.054 26.1358 155.165 26.1778 155.28 26.1756C155.394 26.1733 155.503 26.127 155.584 26.0461C155.664 25.9653 155.711 25.8562 155.713 25.742C155.716 25.6275 155.674 25.5166 155.597 25.4323C152.214 22.0072 148.236 19.2261 143.858 17.2248C124.157 8.00914 102.259 13.3036 84.0068 25.1505Z" fill="black"/>
<path d="M126.174 42.6671C116.843 42.5997 113.933 42.5936 112.996 42.6475C112.537 42.6732 112.384 42.6879 112.33 43.2674C112.189 44.8599 112.111 52.2944 112.362 87.1897C112.363 87.3067 112.41 87.4187 112.493 87.5015C112.575 87.5843 112.687 87.6316 112.804 87.6332H126.174C126.291 87.6314 126.403 87.5841 126.485 87.5013C126.568 87.4185 126.615 87.3069 126.617 87.1897V43.1106C126.616 42.9935 126.568 42.8816 126.486 42.7988C126.403 42.716 126.291 42.6687 126.174 42.6671Z" fill="#62908A"/>
<path d="M102.715 63.7822C88.027 63.6781 89.2484 63.721 89.034 63.9145C88.8331 64.1828 88.7241 62.1824 88.9029 87.1895C88.9041 87.3067 88.9513 87.4188 89.0342 87.5016C89.117 87.5846 89.2291 87.6317 89.3464 87.633H102.715C102.832 87.6311 102.943 87.5837 103.026 87.501C103.109 87.4182 103.156 87.3065 103.158 87.1895V64.2257C103.157 64.1084 103.11 63.9965 103.027 63.9135C102.944 63.8306 102.832 63.7836 102.715 63.7822Z" fill="#62908A"/>
<path d="M78.1451 74.126C63.5149 74.0219 64.6811 74.0598 64.4643 74.2571C64.2769 74.5021 64.2315 73.0774 64.3332 87.1894C64.3344 87.3066 64.3816 87.4187 64.4645 87.5015C64.5474 87.5844 64.6594 87.6316 64.7767 87.6328H78.1451C78.2622 87.6312 78.374 87.5841 78.4569 87.5012C78.5398 87.4183 78.587 87.3065 78.5885 87.1894V74.5719C78.5879 74.4543 78.541 74.3416 78.4581 74.2582C78.3752 74.1747 78.2627 74.1273 78.1451 74.126Z" fill="white"/>
<path d="M56.3021 79.6507C41.5641 79.5465 42.8528 79.5882 42.6213 79.783C42.4388 80.028 42.4326 79.1705 42.4902 87.1893C42.4914 87.3063 42.5385 87.4181 42.6211 87.501C42.7037 87.5839 42.8155 87.6312 42.9324 87.6328H56.3021C56.4191 87.6308 56.5308 87.5835 56.6136 87.5007C56.6963 87.418 56.7437 87.3063 56.7456 87.1893V80.0941C56.7437 79.977 56.6963 79.8654 56.6136 79.7826C56.5308 79.6998 56.4191 79.6525 56.3021 79.6507Z" fill="white"/>
<path d="M184.833 98.3159H141.492C141.375 98.3159 141.262 98.3627 141.179 98.4459C141.095 98.5289 141.049 98.6418 141.049 98.7594C141.049 98.877 141.095 98.9898 141.179 99.073C141.262 99.1561 141.375 99.2028 141.492 99.2028H184.833C184.95 99.2028 185.063 99.1561 185.146 99.073C185.23 98.9898 185.276 98.877 185.276 98.7594C185.276 98.6418 185.23 98.5289 185.146 98.4459C185.063 98.3627 184.95 98.3159 184.833 98.3159Z" fill="black"/>
<path d="M176.385 105.606C176.503 105.606 176.615 105.559 176.699 105.476C176.782 105.393 176.829 105.28 176.829 105.163C176.829 105.045 176.782 104.932 176.699 104.849C176.615 104.766 176.503 104.719 176.385 104.719H141.492C141.375 104.719 141.262 104.766 141.179 104.849C141.095 104.932 141.049 105.045 141.049 105.163C141.049 105.28 141.095 105.393 141.179 105.476C141.262 105.559 141.375 105.606 141.492 105.606C162.116 105.959 162.922 105.836 176.385 105.606Z" fill="black"/>
<path d="M141.492 112.254H178.676C178.79 112.248 178.896 112.199 178.975 112.116C179.052 112.034 179.096 111.925 179.096 111.811C179.096 111.698 179.052 111.589 178.975 111.506C178.896 111.424 178.79 111.374 178.676 111.368H141.492C141.432 111.366 141.372 111.375 141.316 111.396C141.259 111.417 141.208 111.45 141.165 111.491C141.121 111.532 141.087 111.582 141.062 111.637C141.039 111.692 141.025 111.752 141.025 111.812C141.024 111.872 141.035 111.933 141.059 111.989C141.082 112.044 141.117 112.095 141.16 112.137C141.204 112.178 141.257 112.21 141.315 112.23C141.371 112.251 141.432 112.259 141.492 112.254Z" fill="black"/>
<path d="M173.489 70.3028C173.175 65.4224 170.126 58.9103 165.68 55.7841C162.739 53.9402 159.249 53.1775 155.807 53.6269C147.599 54.3276 142.115 61.0577 141.444 68.6074C141.216 72.3969 142.347 76.1436 144.631 79.1757C146.916 82.2077 150.205 84.327 153.911 85.1535C163.924 87.405 174.053 79.1155 173.489 70.3028Z" fill="white"/>
<path d="M24.3232 37.6882V141.362C24.3232 141.48 24.3699 141.593 24.4531 141.676C24.5363 141.759 24.6491 141.806 24.7667 141.806C24.8843 141.806 24.9971 141.759 25.0803 141.676C25.1635 141.593 25.2101 141.48 25.2101 141.362V37.6882C25.2101 37.5706 25.1635 37.4578 25.0803 37.3747C24.9971 37.2915 24.8843 37.2448 24.7667 37.2448C24.6491 37.2448 24.5363 37.2915 24.4531 37.3747C24.3699 37.4578 24.3232 37.5706 24.3232 37.6882Z" fill="black"/>
<path d="M156.941 68.1248C156.941 67.1619 156.934 66.1979 156.924 65.2191C157.596 65.3709 158.255 65.5736 158.895 65.8255C159.429 66.03 159.662 65.1701 159.132 64.968C158.414 64.6934 157.672 64.4848 156.916 64.3444C156.906 63.5519 156.894 62.7519 156.879 61.9251C156.873 61.8116 156.824 61.7048 156.742 61.6266C156.658 61.5485 156.549 61.5049 156.436 61.5049C156.323 61.5049 156.214 61.5485 156.13 61.6266C156.048 61.7048 155.999 61.8116 155.993 61.9251V64.2648C155.157 64.25 154.342 64.5306 153.693 65.0574C153.398 65.2899 153.162 65.5903 153.007 65.933C152.852 66.2758 152.783 66.6509 152.803 67.0263C152.824 67.4018 152.936 67.7667 153.127 68.0901C153.319 68.4136 153.586 68.686 153.906 68.8843C154.574 69.1195 155.291 69.1756 155.988 69.0472V73.1375C155.177 72.9264 154.398 72.6072 153.672 72.1881C153.622 72.1587 153.567 72.1395 153.508 72.1315C153.45 72.1236 153.391 72.127 153.335 72.1417C153.279 72.1565 153.226 72.1821 153.179 72.2173C153.133 72.2525 153.095 72.2965 153.064 72.3467C153.035 72.397 153.017 72.4526 153.008 72.5103C153.001 72.568 153.004 72.6268 153.019 72.6831C153.034 72.7395 153.059 72.7924 153.094 72.8388C153.129 72.8853 153.173 72.9243 153.224 72.9537C154.077 73.4692 155.012 73.8355 155.988 74.0366V75.7149C155.995 75.8283 156.044 75.9351 156.126 76.0133C156.209 76.0914 156.318 76.1351 156.431 76.1351C156.545 76.1351 156.654 76.0914 156.737 76.0133C156.819 75.9351 156.868 75.8283 156.874 75.7149C156.884 75.193 156.892 74.6794 156.899 74.1738C163.838 74.9101 163.819 68.3122 156.941 68.1248ZM154.953 68.2167C154.77 68.2257 154.587 68.1935 154.418 68.1225C154.249 68.0513 154.098 67.9432 153.977 67.8059C153.854 67.6687 153.765 67.506 153.715 67.3296C153.665 67.1532 153.655 66.9679 153.685 66.7871C153.772 66.3638 153.994 65.9801 154.318 65.693C154.64 65.406 155.048 65.2312 155.478 65.1946C155.648 65.1649 155.821 65.1477 155.993 65.1431V68.1591C155.659 68.1909 155.285 68.2056 154.953 68.2167ZM159.932 73.0027C158.968 73.3552 157.931 73.4613 156.916 73.3114C156.933 71.8414 156.941 70.4192 156.943 69.0043C157.894 69.0087 158.834 69.2229 159.694 69.6315C160.066 69.7838 160.397 70.0211 160.661 70.3244C160.925 70.6278 161.114 70.9888 161.213 71.3784C161.208 71.7524 161.08 72.1144 160.848 72.4081C160.616 72.7018 160.294 72.9109 159.932 73.0027Z" fill="black"/>
<path d="M109.672 34.5341C106.173 35.5019 102.753 36.7281 99.2947 37.8269C98.7533 37.9997 98.9848 38.8559 99.5299 38.6844C102.079 37.8723 104.608 36.9952 107.159 36.2001C86.1708 50.2445 63.213 61.0939 39.037 68.3931C38.9806 68.4086 38.9279 68.435 38.8819 68.4708C38.8357 68.5067 38.7971 68.5512 38.7682 68.6019C38.7099 68.7044 38.6946 68.8258 38.7258 68.9395C38.7571 69.0533 38.8321 69.15 38.9346 69.2083C39.037 69.2666 39.1585 69.2819 39.2722 69.2506C63.7386 61.8633 86.9617 50.856 108.17 36.5946C106.445 38.989 104.515 41.2283 102.401 43.2868C101.992 43.6861 102.618 44.3121 103.029 43.914C105.707 41.3197 108.08 38.4265 110.099 35.2912C110.451 34.7485 109.938 34.4288 109.672 34.5341Z" fill="white"/>
<path d="M177.667 44.5573L170.704 52.1253C170.318 52.5455 170.943 53.1739 171.33 52.7525L178.294 45.1808C178.679 44.7643 178.054 44.1359 177.667 44.5573Z" fill="black"/>
<path d="M183.161 48.6952L172.841 54.1575C172.337 54.4245 172.785 55.1889 173.289 54.9231L183.608 49.4608C184.113 49.1852 183.666 48.422 183.161 48.6952Z" fill="black"/>
<path d="M181.884 56.1237C182.442 56.0539 182.45 55.167 181.884 55.2381L175.248 56.0723C174.689 56.1433 174.682 57.0302 175.248 56.9592L181.884 56.1237Z" fill="black"/>
<path d="M97.659 118.492C97.2399 118.484 96.8237 118.56 96.4342 118.715C96.0447 118.87 95.6899 119.101 95.3903 119.394C94.9787 119.79 95.6059 120.416 96.0163 120.02C96.2343 119.81 96.4917 119.645 96.7736 119.535C97.0554 119.424 97.3564 119.371 97.659 119.378C97.7724 119.372 97.8792 119.322 97.9574 119.24C98.0356 119.158 98.0792 119.048 98.0792 118.935C98.0792 118.821 98.0356 118.712 97.9574 118.63C97.8792 118.547 97.7724 118.498 97.659 118.492Z" fill="black"/>
<path d="M101.728 118.285C101.188 118.46 101.419 119.316 101.963 119.142C102.569 118.986 103.163 118.787 103.741 118.548C103.826 118.502 103.893 118.429 103.932 118.341C103.971 118.253 103.98 118.154 103.958 118.06C103.936 117.966 103.883 117.882 103.808 117.821C103.733 117.76 103.64 117.726 103.544 117.723C102.923 117.856 102.316 118.044 101.728 118.285Z" fill="black"/>
<path d="M147.829 192.068C147.943 192.037 148.04 191.961 148.097 191.859C148.156 191.756 148.171 191.635 148.139 191.521C148.108 191.407 148.032 191.311 147.931 191.253C147.828 191.194 147.706 191.18 147.593 191.21C141.36 192.882 134.963 193.871 128.516 194.159C127.947 194.182 127.943 195.069 128.516 195.044C135.044 194.766 141.52 193.768 147.829 192.068Z" fill="black"/>
<path d="M150.279 194.646C150.823 194.478 150.59 193.622 150.043 193.789C144.01 195.664 137.768 196.788 131.459 197.133C130.891 197.164 130.887 198.051 131.459 198.02C137.846 197.671 144.167 196.538 150.279 194.646Z" fill="black"/>
<path d="M123.139 129.493C120.464 129.693 118.171 129.6 116.376 127.656C114.668 125.807 114.131 123.254 113.638 120.867C116.517 120.814 119.409 119.876 119.409 117.422C119.409 114.879 116.752 114.197 114.665 114.073C114.123 114.041 113.464 114.031 112.835 114.031C111.12 109.765 107.866 104.916 103.665 103.053C99.2812 101.109 92.1688 102.176 87.1892 106.973C85.11 108.992 83.4422 111.395 82.2782 114.049C81.6069 114.03 80.8853 114.036 80.3427 114.028C79.3441 113.999 78.3482 114.149 77.4027 114.471C76.8956 114.659 76.447 114.977 76.1023 115.393C75.7577 115.81 75.5292 116.31 75.4397 116.843C75.3503 117.376 75.4033 117.924 75.5933 118.43C75.7833 118.936 76.1037 119.383 76.5219 119.725C78.0372 120.921 80.3084 120.828 82.1459 120.792C84.3692 120.748 87.5555 120.24 87.5555 117.417C87.5555 115.049 85.2427 114.295 83.2435 114.103C84.2685 111.716 85.7748 109.567 87.6679 107.789C89.561 106.011 91.8006 104.643 94.2464 103.77C96.8846 102.9 99.717 102.808 102.406 103.504C106.737 104.859 110.158 109.884 111.885 114.033C110.992 114.029 110.105 114.178 109.261 114.471C108.754 114.659 108.305 114.977 107.961 115.393C107.616 115.809 107.387 116.309 107.298 116.843C107.208 117.376 107.261 117.923 107.451 118.429C107.641 118.936 107.961 119.383 108.379 119.725C109.706 120.481 111.211 120.87 112.738 120.851C113.265 123.414 113.98 126.426 115.831 128.36C117.807 130.427 120.29 130.582 123.143 130.374C123.706 130.337 123.71 129.451 123.139 129.493Z" fill="black"/>
<path d="M128.4 127.261C123.15 127.084 125.104 134.127 129.039 132.726C132.019 131.664 131.807 127.377 128.4 127.261Z" fill="black"/>
<path d="M117.506 182.241C117.286 179.69 116.974 176.962 115.444 174.829C114.884 174.132 114.164 173.581 113.346 173.22C112.528 172.86 111.635 172.702 110.742 172.759C109.444 172.727 110.793 172.556 86.5879 180.614C86.1518 180.763 85.723 180.93 85.2955 181.104C85.2096 181.138 85.1359 181.198 85.0837 181.274C85.0314 181.351 85.003 181.441 85.002 181.534C85.0009 181.627 85.0273 181.718 85.0778 181.795C85.1283 181.873 85.2007 181.933 85.2857 181.97C85.4621 182.021 85.4437 181.992 86.8231 181.473C87.6098 181.11 88.4834 180.978 89.3423 181.092C90.2011 181.205 91.0099 181.562 91.6741 182.118C92.9277 183.293 93.7447 184.858 93.9905 186.559C94.7964 192.88 95.0075 199.262 94.6214 205.622C94.622 205.74 94.6689 205.852 94.752 205.936C94.8349 206.019 94.9474 206.066 95.0649 206.067C97.494 205.894 115.645 204.597 116.528 204.549C116.644 204.544 116.753 204.495 116.835 204.413C116.917 204.331 116.966 204.222 116.972 204.106C117.949 196.859 118.128 189.527 117.506 182.241Z" fill="white"/>
<path d="M101.196 183.69C101.082 183.696 100.975 183.745 100.897 183.828C100.819 183.91 100.775 184.019 100.775 184.133C100.775 184.247 100.819 184.356 100.897 184.438C100.975 184.52 101.082 184.571 101.196 184.576H111.78C111.893 184.571 112 184.52 112.078 184.438C112.156 184.356 112.2 184.247 112.2 184.133C112.2 184.019 112.156 183.91 112.078 183.828C112 183.745 111.893 183.696 111.78 183.69H101.196Z" fill="black"/>
<path d="M111.78 188.089H101.196C101.082 188.095 100.975 188.144 100.897 188.227C100.819 188.309 100.775 188.418 100.775 188.532C100.775 188.645 100.819 188.755 100.897 188.837C100.975 188.919 101.082 188.968 101.196 188.974H111.78C111.893 188.968 112 188.919 112.078 188.837C112.156 188.755 112.2 188.645 112.2 188.532C112.2 188.418 112.156 188.309 112.078 188.227C112 188.144 111.893 188.095 111.78 188.089Z" fill="black"/>
<path d="M111.727 192.244H101.192C101.075 192.244 100.962 192.291 100.879 192.374C100.796 192.457 100.749 192.57 100.749 192.687C100.749 192.805 100.796 192.918 100.879 193.001C100.962 193.084 101.075 193.131 101.192 193.131H111.727C111.845 193.131 111.958 193.084 112.041 193.001C112.124 192.918 112.171 192.805 112.171 192.687C112.171 192.57 112.124 192.457 112.041 192.374C111.958 192.291 111.845 192.244 111.727 192.244Z" fill="black"/>
<path d="M111.727 196.339H101.192C101.075 196.339 100.962 196.386 100.879 196.469C100.796 196.552 100.749 196.665 100.749 196.783C100.749 196.9 100.796 197.013 100.879 197.096C100.962 197.179 101.075 197.226 101.192 197.226H111.727C111.845 197.226 111.958 197.179 112.041 197.096C112.124 197.013 112.171 196.9 112.171 196.783C112.171 196.665 112.124 196.552 112.041 196.469C111.958 196.386 111.845 196.339 111.727 196.339Z" fill="black"/>
<path d="M181.419 201.49C181.107 200.782 180.571 200.195 179.894 199.821C179.218 199.445 178.437 199.3 177.67 199.408C176.973 199.518 176.314 199.8 175.752 200.227C175.19 200.655 174.744 201.215 174.452 201.858C174.145 202.821 174.196 203.861 174.596 204.788C174.995 205.717 175.717 206.467 176.627 206.905C179.839 208.467 183.014 204.498 181.419 201.49Z" fill="white"/>
<path d="M234.815 219.149C234.644 214.104 232.909 208.345 229.237 204.939C226.444 202.401 222.826 200.957 219.053 200.874H219.039C219.112 200.881 219.182 200.908 219.242 200.949C219.303 200.991 219.352 201.047 219.387 201.112C219.42 201.178 219.437 201.25 219.434 201.324C219.433 201.397 219.414 201.47 219.377 201.533C219.02 202.072 218.625 202.584 218.193 203.066C216.003 205.534 213.471 204.158 214.186 201.493C214.205 201.427 214.239 201.364 214.286 201.314C214.332 201.262 214.391 201.223 214.456 201.199C214.445 201.198 214.433 201.198 214.422 201.199C205.505 202.824 196.951 209.076 192.143 219.754C193.328 221.645 194.28 223.673 194.975 225.793C195.71 228.212 196.224 230.694 196.513 233.206C196.531 233.272 196.532 233.34 196.518 233.406C196.505 233.473 196.475 233.535 196.435 233.589C196.393 233.643 196.341 233.687 196.281 233.718C196.221 233.748 196.153 233.765 196.086 233.767H232.468C232.565 233.765 232.659 233.734 232.735 233.676C232.813 233.617 232.869 233.535 232.896 233.442C234.308 228.814 234.956 223.986 234.815 219.149ZM218.343 233.071C218.149 233.551 217.342 233.426 217.485 232.836C219.025 229.017 220.473 225.163 221.827 221.275C222.014 220.739 222.87 220.97 222.684 221.511C221.363 225.307 219.885 229.246 218.343 233.071Z" fill="#62908A"/>
<path d="M224.041 188.901C223.723 188.199 223.185 187.617 222.51 187.244C221.835 186.87 221.057 186.723 220.293 186.825C219.445 186.931 218.652 187.306 218.034 187.894C217.414 188.483 217 189.255 216.851 190.095C216.779 190.959 216.969 191.824 217.398 192.577C217.826 193.331 218.471 193.938 219.249 194.318C222.346 195.817 225.595 192.178 224.041 188.901Z" fill="white"/>
<path d="M196.461 232.883C196.066 228.595 194.783 224.436 192.692 220.67C190.634 216.994 187.384 214.129 183.48 212.546C181.939 211.899 180.329 211.427 178.683 211.141C178.745 211.163 178.802 211.197 178.848 211.243C178.895 211.289 178.932 211.344 178.955 211.405C178.978 211.467 178.988 211.533 178.983 211.598C178.979 211.663 178.96 211.726 178.928 211.784C178.126 213.297 176.987 215.336 175.085 215.519C173.328 215.689 171.729 214.145 172.362 211.154C172.465 210.794 172.837 210.86 172.715 210.835C159.258 211.905 148.293 220.88 142.58 233.104C142.55 233.155 142.532 233.213 142.526 233.272C142.518 233.33 142.523 233.389 142.539 233.447C142.556 233.503 142.583 233.557 142.62 233.604C142.657 233.649 142.703 233.688 142.755 233.716C142.898 233.796 142.364 233.773 149.679 233.773C149.608 233.758 149.541 233.729 149.483 233.685C149.425 233.642 149.377 233.587 149.344 233.522C149.31 233.458 149.29 233.387 149.288 233.315C149.284 233.242 149.296 233.171 149.325 233.104C149.325 233.104 150.937 229.511 151.695 227.823C151.928 227.303 152.692 227.754 152.459 228.271C149.879 234.02 150.083 233.711 149.842 233.773H196.079C196.138 233.771 196.197 233.758 196.251 233.735C196.305 233.711 196.354 233.677 196.395 233.634C196.436 233.591 196.469 233.541 196.49 233.486C196.512 233.43 196.521 233.371 196.52 233.312C196.526 233.295 196.467 232.904 196.461 232.883ZM180.256 233.346C180.224 233.46 180.149 233.557 180.046 233.615C179.945 233.673 179.822 233.688 179.709 233.658C179.596 233.626 179.499 233.551 179.44 233.448C179.382 233.345 179.366 233.224 179.398 233.11C179.398 233.11 180.348 229.653 180.825 228.048C180.856 227.934 180.932 227.838 181.034 227.78C181.137 227.721 181.258 227.707 181.372 227.737C181.486 227.769 181.582 227.844 181.64 227.945C181.699 228.048 181.714 228.17 181.683 228.283C181.285 229.826 180.259 233.346 180.259 233.346H180.256Z" fill="#62908A"/>
<path d="M178.686 211.141L178.672 211.132C176.733 210.802 174.76 210.7 172.798 210.83C172.701 210.832 172.608 210.865 172.532 210.923C172.455 210.982 172.399 211.062 172.37 211.154C171.739 214.137 173.331 215.687 175.094 215.519C176.996 215.335 178.134 213.297 178.936 211.784C178.968 211.726 178.987 211.663 178.99 211.598C178.995 211.532 178.985 211.465 178.961 211.404C178.938 211.343 178.901 211.288 178.853 211.243C178.805 211.197 178.749 211.163 178.686 211.141Z" fill="white"/>
<path d="M219.038 200.88C217.517 200.801 215.992 200.905 214.496 201.189C214.422 201.21 214.355 201.25 214.3 201.304C214.246 201.358 214.207 201.425 214.186 201.499C213.464 204.185 216.023 205.519 218.193 203.072C218.624 202.592 219.02 202.078 219.376 201.539C219.413 201.476 219.434 201.405 219.435 201.33C219.436 201.256 219.42 201.184 219.386 201.118C219.353 201.053 219.304 200.997 219.243 200.955C219.181 200.913 219.112 200.888 219.038 200.88Z" fill="white"/>
<path d="M72.9042 119.28L63.3162 116.991C62.7612 116.859 62.5248 117.714 63.081 117.849L72.669 120.137C73.2264 120.267 73.4604 119.412 72.9042 119.28Z" fill="black"/>
<path d="M54.5958 123.583H71.8021C71.9197 123.583 72.0326 123.536 72.1157 123.453C72.1989 123.37 72.2456 123.257 72.2456 123.14C72.2456 123.022 72.1989 122.909 72.1157 122.826C72.0326 122.743 71.9197 122.696 71.8021 122.696H54.5958C54.4782 122.696 54.3654 122.743 54.2822 122.826C54.199 122.909 54.1523 123.022 54.1523 123.14C54.1523 123.257 54.199 123.37 54.2822 123.453C54.3654 123.536 54.4782 123.583 54.5958 123.583Z" fill="black"/>
<path d="M63.3161 129.564C66.321 128.774 69.299 127.885 72.2758 126.992C72.3894 126.961 72.4861 126.885 72.5443 126.784C72.6026 126.681 72.6177 126.56 72.5863 126.446C72.5549 126.332 72.4797 126.235 72.3771 126.177C72.2745 126.119 72.153 126.104 72.0393 126.134C69.0344 126.925 66.0564 127.813 63.0809 128.707C62.9672 128.739 62.8706 128.814 62.8121 128.916C62.7538 129.018 62.7385 129.141 62.7698 129.253C62.801 129.367 62.876 129.464 62.9785 129.523C63.0809 129.58 63.2024 129.596 63.3161 129.564Z" fill="black"/>
<path d="M26.084 213.176C26.0978 213.189 26.1106 213.204 26.1223 213.22C26.0779 213.162 26.0643 213.15 26.084 213.176Z" fill="black"/>
<path d="M14.6115 228.187C14.9743 228.112 15.3106 227.942 15.5855 227.693C15.8605 227.446 16.0642 227.128 16.1758 226.774C16.6056 225.697 16.8215 224.548 16.8116 223.388C17.5257 224.515 18.2362 225.646 19.0276 226.723C19.2522 227.036 19.5181 227.318 19.8177 227.559C22.5972 229.376 28.3535 227.383 28.6377 223.785C28.6305 222.925 28.4967 222.07 28.2408 221.248C27.703 218.907 27.0354 216.526 26.7953 215.638C29.1473 218.281 32.1963 221.169 35.4842 222.49C36.7034 223.018 38.045 223.198 39.3601 223.01C40.2692 222.822 41.1263 222.438 41.872 221.885C42.6178 221.332 43.2341 220.624 43.6783 219.808C45.1556 217.022 36.9628 210.65 34.7358 205.636C34.6 205.309 34.5003 204.968 34.4381 204.619C34.412 204.353 34.4203 204.084 34.4626 203.819C34.486 203.753 34.5048 203.685 34.5189 203.617C34.532 203.592 34.5439 203.568 34.5545 203.542L34.5949 203.498C34.6021 203.492 34.6113 203.489 34.6206 203.489L34.6133 203.502C36.1433 203.469 40.6158 208.861 45.3994 210.32C48.1042 210.99 52.3439 210.933 53.7539 208.513C54.1216 207.912 54.3033 207.215 54.2761 206.51C54.2488 205.806 54.0138 205.126 53.6008 204.554C51.3125 201.973 49.7004 202.22 46.6905 199.425C46.3314 199.087 46.0845 198.647 45.9837 198.164C45.2022 193.003 52.1271 181.315 55.0156 176.989C55.1381 176.867 55.2214 176.771 60.6249 170.871C60.7572 173.829 61.8573 198.324 61.9112 199.546C60.914 207.501 58.6784 225.319 57.707 233.327C57.7076 233.464 57.7623 233.595 57.8591 233.692C57.9559 233.789 58.087 233.844 58.2239 233.844C125.453 234.127 120.874 233.906 121.075 233.721C121.367 233.526 121.264 233.678 121.264 190.787C139.67 190.229 158.3 186.292 176.021 180.777C180.072 179.517 185.602 177.837 185.699 173.56C185.728 172.715 185.448 171.887 184.91 171.233C184.028 170.384 182.934 169.787 181.743 169.503C179.722 168.802 177.62 168.364 175.487 168.201C176.858 167.822 178.204 167.361 179.53 166.894C180.851 166.443 182.119 165.846 183.307 165.113C183.917 164.691 184.427 164.14 184.802 163.501C185.177 162.86 185.407 162.146 185.477 161.408C185.548 160.67 185.455 159.925 185.207 159.225C184.96 158.527 184.562 157.89 184.042 157.361C182.767 156.539 181.256 156.162 179.744 156.289L172.828 156.126C176.428 154.901 181.638 151.652 180.386 148.074C179.488 145.509 176.238 144.522 173.804 144.304C168.573 143.845 161.215 146.631 155.509 148.037C155.36 145.862 155.043 143.705 154.69 141.553C154.383 139.547 153.801 137.593 152.962 135.745C151.332 132.34 146.959 130.585 144.264 133.114C142.859 134.431 142.634 136.506 142.379 138.318C141.766 142.718 141.038 151.516 138.159 154.94C136.793 156.269 135.143 157.269 133.334 157.866C126.068 160.494 119.467 159.627 114.645 151.973C112.562 148.638 111.079 145.19 107.376 140.246C104.803 136.728 101.186 133.352 97.0454 132.054C90.8518 130.293 82.893 132.068 76.7006 133.914C67.1807 136.53 58.252 140.948 50.3998 146.932C39.7975 154.877 25.7247 167.968 19.5641 179.951C15.2774 188.35 11.816 197.145 9.22881 206.213C8.48401 208.717 6.70898 215.441 6.70898 218.012C6.70898 224.106 11.5894 228.513 14.6115 228.187ZM73.6405 232.812C73.6405 232.812 59.2982 232.78 58.818 232.788C58.818 232.788 62.8605 200.355 62.9022 200.067H73.6442L73.6405 232.812ZM120.235 232.812C120.235 232.812 75.1338 232.795 74.6744 232.802C74.6744 232.802 74.6867 185.848 74.6855 185.603C74.6855 185.603 85.9126 181.901 86.4773 181.677C87.477 181.236 88.5767 181.07 89.6623 181.196C92.0658 181.698 93.5762 184.267 93.918 186.577C94.7343 192.891 94.9448 199.268 94.5464 205.621C94.5468 205.758 94.6013 205.889 94.698 205.987C94.7949 206.084 94.9263 206.139 95.0633 206.139C97.4925 205.968 115.643 204.669 116.527 204.621C116.662 204.615 116.79 204.559 116.885 204.463C116.981 204.368 117.037 204.24 117.044 204.104C118.02 196.859 118.199 189.528 117.578 182.243C117.238 178.323 116.444 173.68 112.544 172.904C113.41 172.613 119.822 170.479 120.233 170.34L120.235 232.812ZM110.067 173.744C111.222 173.622 112.389 173.814 113.443 174.3C114.336 174.862 115.019 175.703 115.387 176.691C116.075 178.466 116.467 180.342 116.546 182.243C117.155 189.365 116.996 196.531 116.071 203.619L95.606 205.066C95.9778 198.76 95.7382 192.433 94.8906 186.173C94.7284 184.894 94.2303 183.68 93.447 182.655C92.6636 181.629 91.6228 180.831 90.4304 180.338C111.667 173.201 109.942 173.8 110.066 173.742L110.067 173.744ZM128.687 160.068C132.246 159.669 136.711 158.076 139.1 155.449C139.635 154.755 140.069 153.99 140.387 153.174C142.946 146.831 142.633 141.887 143.777 136.292C143.943 135.416 144.338 134.6 144.92 133.924C146.655 132.136 149.79 133.036 151.271 135.001C152.479 136.791 153.253 138.838 153.533 140.978C154.072 143.52 154.404 146.101 154.529 148.695C154.532 148.835 154.59 148.967 154.689 149.063C154.789 149.159 154.924 149.213 155.063 149.211C155.58 149.202 162.038 147.286 163.805 146.812C166.399 146.032 169.068 145.529 171.768 145.311C174.114 145.194 176.923 145.571 178.693 147.3C179.103 147.686 179.376 148.194 179.473 148.749C179.569 149.304 179.483 149.875 179.227 150.376C178.627 151.444 177.77 152.346 176.735 152.999C174.284 154.667 171.462 155.707 168.514 156.028C168.377 156.028 168.246 156.083 168.149 156.18C168.051 156.277 167.997 156.408 167.997 156.545C167.997 156.682 168.051 156.815 168.149 156.911C168.246 157.008 168.377 157.062 168.514 157.062L179.101 157.307C181.093 157.355 182.503 157.264 183.703 158.456C184.289 159.291 184.551 160.311 184.442 161.325C184.332 162.338 183.857 163.278 183.108 163.969C182.183 164.642 181.167 165.18 180.091 165.567C176.855 166.861 173.482 167.773 170.036 168.288C169.135 168.495 169.496 169.322 170.014 169.324C173.779 168.831 177.606 169.2 181.208 170.406C182.319 170.644 183.344 171.179 184.174 171.956C184.498 172.444 184.671 173.019 184.671 173.606C184.671 174.192 184.498 174.767 184.174 175.256C183.408 176.373 182.345 177.251 181.104 177.791C176.106 180.401 146.263 187.959 136.206 188.475C129.576 181.052 127.723 170.116 128.69 160.066L128.687 160.068ZM99.8421 134.457C99.5143 134.84 99.1094 135.149 98.6538 135.365C98.1982 135.58 97.7024 135.698 97.1985 135.708C96.3583 135.541 95.5783 135.152 94.9396 134.581C94.3009 134.01 93.8267 133.279 93.5664 132.462C95.792 132.593 97.9493 133.279 99.8421 134.457ZM49.2336 149.112C56.837 142.968 65.5624 138.361 74.9243 135.547C80.5042 133.744 86.4651 132.18 92.3806 132.387C92.6702 133.482 93.2655 134.473 94.0969 135.242C94.9285 136.012 95.9616 136.529 97.076 136.732C97.7738 136.74 98.4647 136.595 99.0998 136.306C99.735 136.016 100.299 135.591 100.751 135.06C107.266 139.618 110.96 147.996 113.762 152.489C116.654 157.073 122.068 160.874 127.63 160.329C126.747 170.427 128.517 180.806 135.022 188.682C130.458 189.276 125.867 189.637 121.267 189.763V169.602C121.266 169.464 121.209 169.333 121.111 169.236C121.012 169.139 120.879 169.085 120.741 169.087C120.607 169.087 76.8954 183.773 74.0191 184.732C73.9111 184.765 73.8162 184.83 73.748 184.92C73.6796 185.009 73.6416 185.118 73.6393 185.231V199.029C73.6393 199.029 63.2182 198.978 62.9255 198.99C62.7809 195.795 61.6049 169.602 61.6049 169.602C61.6021 169.512 61.5751 169.422 61.527 169.344C61.4787 169.267 61.4109 169.203 61.3301 169.159C61.2495 169.116 61.1588 169.094 61.0673 169.098C60.9757 169.1 60.8866 169.127 60.8087 169.175C60.7168 169.224 54.5452 175.982 54.408 176.133C53.2945 175.909 36.3356 172.703 33.1616 172.187C30.9123 171.771 28.643 171.469 26.3629 171.284C33.1548 163.082 40.824 155.646 49.2336 149.112ZM25.5385 172.307C28.8925 172.134 53.1353 176.916 53.7465 177.065C50.3639 181.981 47.6531 187.327 45.686 192.961C45.05 194.712 44.8127 196.584 44.9915 198.439C45.4986 201.406 51.8074 203.281 53.0605 205.585C53.2197 206.011 53.2745 206.466 53.2206 206.917C53.1666 207.367 53.0055 207.797 52.7506 208.171C52.3875 208.653 51.8888 209.014 51.3186 209.21C49.9331 209.634 48.4729 209.754 47.0368 209.564C45.6008 209.373 44.2223 208.877 42.9947 208.108C38.4267 205.235 35.3679 201.281 33.8464 202.786C33.5808 203.175 33.4173 203.624 33.3711 204.093C33.3248 204.561 33.3973 205.034 33.5818 205.467C34.9293 209.456 41.1854 214.993 42.6284 218.221C43.6354 220.08 39.9445 222.372 37.6476 222.019C36.3438 221.807 35.1001 221.321 33.9995 220.589C30.9811 218.557 28.3086 216.054 26.0836 213.174C25.7332 212.807 25.0154 213.035 25.1808 213.62C26.0383 216.667 26.8664 219.754 27.5266 222.851C27.6143 223.223 27.6227 223.61 27.5511 223.986C27.4796 224.362 27.3298 224.72 27.1114 225.034C26.3234 226.004 25.2418 226.69 24.0295 226.991C22.8172 227.292 21.5399 227.192 20.3898 226.704C18.8438 225.112 17.8994 222.961 16.5335 221.133C16.4673 221.03 16.3668 220.953 16.2495 220.918C16.1324 220.881 16.0061 220.887 15.8929 220.935C15.7799 220.982 15.6873 221.068 15.6314 221.177C15.5755 221.286 15.5601 221.412 15.5878 221.531C15.8148 222.512 15.8534 223.527 15.7017 224.521C15.5792 227.29 14.4289 227.656 12.5351 226.654C11.0122 225.709 9.76755 224.376 8.92823 222.792C8.08891 221.207 7.68494 219.429 7.75758 217.637C8.09691 211.202 16.1133 184.692 25.5385 172.307Z" fill="black"/>
<path d="M104.513 110.952C104.46 110.396 104.276 109.86 103.976 109.389C103.677 108.918 103.27 108.524 102.79 108.239C101.848 107.757 100.76 107.647 99.7406 107.931C98.5982 108.284 97.5493 108.888 96.6707 109.7C95.9272 110.28 95.3485 111.045 94.9925 111.918C94.4199 111.631 93.777 111.515 93.1403 111.583C92.7411 111.657 92.3736 111.85 92.0863 112.137C91.7989 112.423 91.6052 112.791 91.5306 113.19C91.3207 115.099 91.5675 117.03 92.2509 118.825C92.3015 118.957 92.3946 119.069 92.5155 119.143C92.5266 120.313 92.8516 121.459 93.4566 122.461C94.0617 123.463 94.9246 124.283 95.9553 124.837C99.9599 126.934 104.381 123.099 103.825 118.575C103.91 118.514 103.974 118.429 104.01 118.331C104.046 118.233 104.052 118.126 104.027 118.025C104.001 117.924 103.946 117.832 103.869 117.763C103.791 117.693 103.694 117.648 103.591 117.634C103.244 116.64 102.66 115.746 101.892 115.027C102.571 114.705 103.211 114.305 103.798 113.835C104.151 113.454 104.402 112.99 104.527 112.486C104.652 111.981 104.647 111.454 104.513 110.952ZM102.587 117.928L101.709 118.213C101.08 118.417 101.342 119.416 101.984 119.211L102.828 118.937C102.922 120.09 102.63 121.241 101.998 122.209C101.508 123.033 100.762 123.673 99.873 124.033C98.9842 124.392 98.0022 124.45 97.0774 124.198C95.9605 123.77 95.0126 122.991 94.3763 121.978C93.7401 120.965 93.4498 119.773 93.5494 118.581C93.7332 116.743 95.6148 115.411 97.2428 114.883C99.6438 114.11 101.736 115.566 102.587 117.928ZM103.239 112.921C102.559 113.648 101.982 113.71 101.015 114.358C100.025 113.745 98.8454 113.516 97.6985 113.715C96.6628 113.879 95.6817 114.289 94.8379 114.912C93.9942 115.534 93.3128 116.351 92.8512 117.292C92.5511 116.214 92.4188 115.095 92.4592 113.976C92.4861 113.447 92.6184 112.784 93.2052 112.623C93.8655 112.56 94.5265 112.734 95.0709 113.113C95.333 113.25 95.7802 113.154 95.8304 112.804C96.0274 111.887 96.5533 111.073 97.309 110.517C98.0201 109.851 98.8585 109.336 99.7737 109.003C100.555 108.724 101.414 108.755 102.172 109.091C102.559 109.304 102.885 109.613 103.119 109.988C103.353 110.362 103.488 110.79 103.511 111.231C103.586 111.516 103.601 111.814 103.554 112.105C103.507 112.396 103.4 112.674 103.239 112.921Z" fill="black"/>
<path d="M151.483 166.393C151.572 166.436 151.556 166.441 151.646 166.482C154.129 167.481 156.402 168.935 158.35 170.77C159.657 172.025 160.5 173.688 160.741 175.484C160.981 177.279 160.607 179.105 159.677 180.66C159.644 180.72 159.623 180.785 159.616 180.854C159.608 180.921 159.614 180.99 159.634 181.055C159.654 181.121 159.685 181.181 159.729 181.234C159.772 181.286 159.826 181.329 159.886 181.361C160.001 181.424 160.136 181.441 160.264 181.406C160.39 181.373 160.5 181.294 160.57 181.182C161.213 180.101 161.625 178.899 161.78 177.651C161.934 176.402 161.83 175.134 161.471 173.929C160.525 171.36 158.703 169.207 156.326 167.847C155.097 167.029 153.799 166.318 152.447 165.724C154.255 161.145 156.162 156.353 156.083 151.371C156.077 151.238 156.019 151.112 155.922 151.02C155.827 150.93 155.698 150.878 155.566 150.878C155.432 150.878 155.304 150.93 155.208 151.02C155.111 151.112 155.054 151.238 155.048 151.371C154.952 156.364 153.141 161.171 151.33 165.755C151.294 165.806 151.268 165.864 151.257 165.925C151.245 165.985 151.246 166.049 151.261 166.109C151.276 166.17 151.303 166.226 151.341 166.275C151.379 166.324 151.428 166.365 151.483 166.393Z" fill="black"/>
<path d="M95.8973 163.736C95.9758 163.784 96.0661 163.809 96.1582 163.809C96.2503 163.809 96.3406 163.784 96.4191 163.736L105.38 157.155C105.495 157.083 105.577 156.97 105.612 156.838C105.646 156.707 105.629 156.568 105.565 156.448C103.155 151.907 97.1125 140.123 96.8785 139.666C96.8071 139.548 96.6917 139.462 96.5575 139.429C96.4234 139.396 96.2815 139.417 96.1631 139.488C95.9793 139.601 96.6445 138.517 86.4011 156.446C86.3512 156.527 86.3271 156.621 86.3316 156.715C86.3362 156.81 86.3694 156.902 86.4268 156.976C86.6313 157.333 95.0398 163.131 95.8973 163.736ZM96.4105 141.015L104.464 156.556C99.8883 159.916 97.6956 161.526 96.7633 162.212L96.1631 162.652C93.5318 160.793 87.778 156.735 87.5354 156.563L96.4105 141.015Z" fill="black"/>
<path d="M239.433 226.687C238.121 212.731 234.871 199.027 229.775 185.968C229.178 183.959 227.928 182.209 226.223 180.991C221.935 178.436 216.971 181.885 214.394 185.279C210.289 190.681 208.293 197.192 206.772 203.739C200.243 207.225 195.083 212.815 192.133 219.603C190.617 217.333 188.644 215.403 186.343 213.935C184.041 212.466 181.459 211.492 178.761 211.073C176.775 210.735 174.755 210.632 172.745 210.767H172.722C159.197 211.842 148.222 220.876 142.523 233.072C142.479 233.15 142.456 233.24 142.457 233.329C142.457 233.42 142.482 233.508 142.526 233.587C142.571 233.665 142.636 233.731 142.713 233.776C142.79 233.823 142.878 233.847 142.969 233.85C154.484 233.972 227.89 233.85 232.468 233.85C232.58 233.849 232.689 233.811 232.78 233.742C232.869 233.674 232.934 233.578 232.966 233.47C233.331 232.207 233.652 230.928 233.929 229.633C235.1 229.627 236.27 229.531 237.426 229.344C237.871 229.288 238.3 229.15 238.693 228.935C239.477 228.487 239.506 227.493 239.433 226.687ZM173.238 211.774C174.743 211.696 176.254 211.761 177.747 211.967C177.51 212.415 177.235 212.842 176.926 213.244C176.526 213.83 175.951 214.274 175.285 214.516C174.992 214.597 174.683 214.592 174.393 214.503C174.102 214.415 173.844 214.246 173.646 214.017C173.428 213.691 173.279 213.324 173.209 212.937C173.14 212.551 173.148 212.155 173.238 211.773V211.774ZM180.487 232.812C180.911 231.31 181.364 229.816 181.758 228.306C181.794 228.173 181.776 228.032 181.709 227.912C181.641 227.794 181.528 227.707 181.396 227.67C181.264 227.633 181.123 227.651 181.003 227.719C180.884 227.786 180.797 227.899 180.76 228.031L179.413 232.809H150.509C151.182 231.308 151.855 229.807 152.53 228.304C152.8 227.702 151.909 227.176 151.637 227.782L149.381 232.805C149.381 232.805 144.249 232.793 143.807 232.79C149.275 221.556 159.583 213.081 172.114 211.843C171.981 212.704 172.136 213.586 172.558 214.349C172.822 214.768 173.196 215.107 173.639 215.33C174.082 215.552 174.578 215.65 175.071 215.612C176.909 215.463 178.1 213.67 178.902 212.145C189.355 214.147 194.256 222.356 195.49 232.801L180.487 232.812ZM233.661 224.914C233.348 227.585 232.816 230.228 232.068 232.812H218.526C220.006 229.085 221.234 225.891 222.757 221.533C222.975 220.903 221.977 220.632 221.759 221.258C220.405 225.144 218.958 228.995 217.418 232.812H196.529C196.096 228.554 194.821 224.426 192.779 220.665C194.499 216.727 196.905 213.124 199.884 210.027C203.713 206.14 208.59 203.45 213.92 202.285C213.879 202.614 213.924 202.948 214.05 203.256C214.175 203.562 214.377 203.831 214.637 204.037C214.895 204.244 215.204 204.38 215.531 204.433C215.858 204.487 216.193 204.455 216.505 204.341C217.704 203.869 218.701 202.992 219.322 201.863C222.74 202.017 226.001 203.343 228.556 205.617C230.646 207.701 232.144 210.304 232.896 213.158C233.911 216.989 234.17 220.981 233.661 224.911V224.914ZM215.051 202.065C216.024 201.901 217.009 201.816 217.997 201.81C217.414 202.561 216.49 203.61 215.634 203.371C215.029 203.208 214.97 202.603 215.051 202.065ZM238.268 227.96C237.822 228.45 234.776 228.573 234.14 228.582C234.764 225.479 235.016 222.313 234.888 219.15C234.752 214.221 232.971 208.305 229.289 204.89C227.29 203.143 224.906 201.891 222.332 201.236C219.759 200.581 217.068 200.541 214.476 201.119L214.448 201.13C214.432 201.13 214.417 201.13 214.4 201.13C212.175 201.543 210.011 202.23 207.957 203.176C208.747 199.565 209.869 196.035 211.307 192.63C212.37 190.185 213.719 187.874 215.326 185.747C216.753 183.782 218.741 182.296 221.03 181.485C222.108 181.081 223.286 181.032 224.394 181.344C225.502 181.655 226.481 182.313 227.189 183.221C227.818 184.074 228.321 185.013 228.686 186.009C233.53 198.357 236.72 211.29 238.176 224.474C238.479 227.212 238.511 227.545 238.268 227.965V227.96Z" fill="black"/>
<path d="M211.077 172.281C211.208 172.277 211.331 172.223 211.424 172.13C211.518 172.036 211.571 171.913 211.575 171.782V27.8392C211.573 27.7025 211.519 27.572 211.422 27.4753C211.325 27.3785 211.195 27.3232 211.058 27.321H28.5834C28.4468 27.3232 28.3163 27.3785 28.2198 27.4753C28.1234 27.572 28.0682 27.7025 28.0664 27.8392V141.609C28.0664 141.746 28.1209 141.877 28.2178 141.974C28.3147 142.07 28.4463 142.126 28.5834 142.126C28.7204 142.126 28.852 142.07 28.9489 141.974C29.0458 141.877 29.1003 141.746 29.1003 141.609V28.3598H210.541V171.782C210.546 171.919 210.605 172.049 210.705 172.142C210.806 172.236 210.939 172.286 211.077 172.281Z" fill="black"/>
<path d="M175.636 196.165C175.387 196.648 175.172 197.148 174.993 197.661C174.509 197.247 173.935 196.953 173.316 196.803C173.005 196.754 172.686 196.781 172.387 196.879C172.089 196.979 171.818 197.148 171.597 197.372C171.376 197.596 171.211 197.869 171.117 198.169C171.023 198.471 171.002 198.789 171.055 199.099C171.237 199.753 171.995 200.192 172.501 200.569C173.114 201.025 173.726 201.458 174.362 201.882C174.067 202.856 174.129 203.903 174.539 204.834C174.948 205.767 175.675 206.523 176.592 206.965C179.211 208.24 182.021 205.906 181.903 203.008C183.275 196.062 177.265 193.206 175.636 196.165ZM180.403 204.886C180.116 205.414 179.658 205.828 179.104 206.062C178.549 206.295 177.933 206.333 177.355 206.17C176.666 205.9 176.083 205.415 175.693 204.787C175.302 204.16 175.127 203.421 175.19 202.685C175.416 201.901 175.93 201.231 176.631 200.812C177.332 200.394 178.165 200.257 178.962 200.431C179.374 200.6 179.745 200.856 180.047 201.183C180.35 201.51 180.578 201.898 180.714 202.322C180.851 202.746 180.894 203.195 180.84 203.636C180.786 204.079 180.635 204.504 180.4 204.882L180.403 204.886ZM174.874 200.983C173.886 200.362 172.95 199.661 172.076 198.888C172.056 198.827 172.041 198.763 172.033 198.698C172.059 198.476 172.16 198.267 172.316 198.107C172.473 197.945 172.679 197.841 172.902 197.81C173.36 197.841 173.794 198.024 174.137 198.329C174.383 198.494 174.616 198.679 174.834 198.881C174.89 198.936 174.959 198.978 175.032 199.002C175.107 199.027 175.187 199.035 175.265 199.026C175.342 199.016 175.418 198.988 175.483 198.945C175.549 198.902 175.606 198.845 175.646 198.778C175.913 198.166 176.174 197.553 176.419 196.931C176.884 195.447 178.912 195.97 179.979 197.421C180.699 198.413 181.085 199.607 181.081 200.834C179.576 198.643 176.528 198.929 174.872 200.983H174.874Z" fill="black"/>
<path d="M83.9698 25.0867C83.4137 25.4481 83.9318 26.3436 84.4917 25.9798C101.754 14.673 122.712 9.33075 141.768 17.3374C146.676 19.3861 151.141 22.3654 154.918 26.1108C155.016 26.2082 155.147 26.263 155.286 26.263C155.424 26.263 155.555 26.2082 155.653 26.1108C155.751 26.0133 155.805 25.8812 155.805 25.7433C155.805 25.6054 155.751 25.4732 155.653 25.3758C148.996 18.5158 139.345 14.3668 130.109 13.0327C113.767 10.6733 97.6996 16.1602 83.9698 25.0867Z" fill="black"/>
<path d="M126.69 87.1892V43.11C126.689 42.9734 126.634 42.8428 126.537 42.7462C126.44 42.6497 126.31 42.5947 126.173 42.5931C111.695 42.4865 112.626 42.5085 112.415 42.7793C112.214 42.9912 111.989 39.9128 112.293 87.1892C112.294 87.3259 112.349 87.4566 112.446 87.5534C112.542 87.6502 112.673 87.7054 112.81 87.7074H126.179C126.315 87.7032 126.444 87.6471 126.538 87.5507C126.634 87.4542 126.688 87.3247 126.69 87.1892ZM125.656 86.6698H113.322V43.627H125.656V86.6698Z" fill="black"/>
<path d="M102.715 63.7083C88.2535 63.6177 89.1673 63.6238 88.9578 63.8945C88.7569 64.1052 88.6736 62.6965 88.8353 87.1891C88.8366 87.3257 88.8913 87.4564 88.9877 87.5533C89.084 87.6501 89.2145 87.7053 89.3511 87.7073H102.715C102.851 87.7047 102.981 87.6494 103.078 87.5527C103.174 87.4561 103.229 87.3257 103.232 87.1891V64.2253C103.23 64.0888 103.175 63.9584 103.078 63.8618C102.982 63.7653 102.851 63.7103 102.715 63.7083ZM102.198 86.6697H89.8631V64.7422H102.198V86.6697Z" fill="black"/>
<path d="M78.6628 87.1891V74.5716C78.6603 74.435 78.6049 74.3048 78.5082 74.2084C78.4116 74.112 78.2811 74.0569 78.1447 74.0547H64.7738C64.6376 74.0575 64.5077 74.1129 64.4113 74.2092C64.315 74.3054 64.2597 74.4354 64.2568 74.5716V87.1891C64.2587 87.3257 64.3138 87.4562 64.4102 87.553C64.5067 87.6497 64.6372 87.705 64.7738 87.7073H78.1447C78.2814 87.705 78.412 87.6497 78.5086 87.5531C78.6053 87.4563 78.6606 87.3258 78.6628 87.1891ZM77.6277 86.6722H65.2932V75.0861H77.6277V86.6722Z" fill="black"/>
<path d="M42.9327 87.7073H56.3023C56.4389 87.7049 56.569 87.6494 56.6655 87.5527C56.7619 87.4561 56.8171 87.3257 56.8193 87.1891V80.0939C56.8177 79.9573 56.7627 79.8268 56.6661 79.7302C56.5695 79.6336 56.4389 79.5786 56.3023 79.577C47.1589 79.5096 44.1662 79.4925 43.1446 79.5586C42.646 79.5905 42.4317 79.6113 42.401 80.2863C42.3704 80.9612 42.3839 82.6713 42.4157 87.1891C42.4176 87.3258 42.4727 87.4563 42.5692 87.5531C42.6656 87.6497 42.7961 87.7051 42.9327 87.7073ZM43.4508 80.6121H55.7842V86.6697H43.4508V80.6121Z" fill="black"/>
<path d="M185.333 98.7422C185.328 98.611 185.274 98.4866 185.181 98.3938C185.089 98.3011 184.964 98.247 184.833 98.2424H141.493C141.355 98.2424 141.224 98.2968 141.127 98.3938C141.029 98.4907 140.976 98.6222 140.976 98.7594C140.976 98.8965 141.029 99.0279 141.127 99.1249C141.224 99.2218 141.355 99.2763 141.493 99.2763H184.833C184.9 99.2741 184.968 99.2584 185.029 99.2305C185.092 99.2025 185.147 99.1624 185.193 99.1128C185.24 99.0632 185.276 99.005 185.3 98.9414C185.324 98.8777 185.335 98.8101 185.333 98.7422Z" fill="black"/>
<path d="M141.493 105.679H176.387C176.524 105.679 176.655 105.625 176.752 105.528C176.85 105.431 176.904 105.3 176.904 105.162C176.904 105.025 176.85 104.894 176.752 104.797C176.655 104.7 176.524 104.646 176.387 104.646H141.493C141.355 104.646 141.224 104.7 141.127 104.797C141.029 104.894 140.976 105.025 140.976 105.162C140.976 105.3 141.029 105.431 141.127 105.528C141.224 105.625 141.355 105.679 141.493 105.679Z" fill="black"/>
<path d="M141.492 112.329H178.675C178.808 112.322 178.934 112.265 179.026 112.169C179.118 112.072 179.168 111.944 179.168 111.811C179.168 111.678 179.118 111.55 179.026 111.454C178.934 111.358 178.808 111.3 178.675 111.294H141.492C141.422 111.291 141.351 111.302 141.286 111.326C141.22 111.351 141.16 111.388 141.108 111.437C141.058 111.485 141.016 111.543 140.988 111.608C140.961 111.672 140.945 111.742 140.945 111.812C140.944 111.883 140.958 111.953 140.985 112.019C141.012 112.084 141.052 112.143 141.103 112.192C141.155 112.24 141.216 112.278 141.283 112.301C141.35 112.325 141.421 112.334 141.492 112.329Z" fill="black"/>
<path d="M165.714 55.7202C162.766 53.8603 159.26 53.093 155.804 53.552C146.788 54.2686 141.227 62.5582 141.314 69.9498C141.449 73.5213 142.754 76.9495 145.026 79.7086C147.299 82.4676 150.413 84.4053 153.892 85.2244C163.738 87.324 174.017 79.6126 173.563 70.3026C173.154 65.1001 170.157 58.8403 165.714 55.7202ZM172.337 73.0981C170.873 80.1541 163.501 84.8017 156.561 84.5249C152.808 84.285 149.277 82.6615 146.653 79.9687C144.028 77.2759 142.496 73.7051 142.351 69.9474C142.401 63.2858 146.639 56.6831 153.508 54.9742C156.611 54.2493 159.853 54.38 162.887 55.3527C167.391 57.0873 170.492 62.1601 171.859 66.7624C172.542 68.8016 172.708 70.9788 172.34 73.0981H172.337Z" fill="black"/>
<path d="M24.25 37.6881V141.361C24.2565 141.494 24.3138 141.62 24.4102 141.712C24.5065 141.803 24.6345 141.854 24.7676 141.854C24.9006 141.854 25.0286 141.803 25.1249 141.712C25.2213 141.62 25.2786 141.494 25.2851 141.361V37.6881C25.2786 37.5552 25.2213 37.4299 25.1249 37.3381C25.0286 37.2464 24.9006 37.1952 24.7676 37.1952C24.6345 37.1952 24.5065 37.2464 24.4102 37.3381C24.3138 37.4299 24.2565 37.5552 24.25 37.6881Z" fill="black"/>
<path d="M156.954 68.0499V65.2973C157.609 65.4464 158.253 65.6467 158.876 65.8964C159.502 66.1254 159.773 65.1258 159.152 64.898C158.44 64.624 157.704 64.4164 156.954 64.2781V61.9249C156.954 61.7878 156.9 61.6564 156.802 61.5594C156.705 61.4625 156.574 61.408 156.437 61.408C156.3 61.408 156.169 61.4625 156.072 61.5594C155.974 61.6564 155.92 61.7878 155.92 61.9249V64.1948C155.088 64.188 154.281 64.4747 153.64 65.0046C153.338 65.2455 153.097 65.5557 152.938 65.9091C152.78 66.2625 152.709 66.6488 152.731 67.0354C152.754 67.4219 152.869 67.7974 153.067 68.1303C153.264 68.4631 153.54 68.7435 153.868 68.9478C154.524 69.1916 155.233 69.2505 155.92 69.1181V73.0479C155.148 72.8378 154.406 72.5273 153.715 72.1243C153.598 72.0607 153.459 72.0454 153.33 72.0816C153.201 72.1178 153.092 72.2027 153.024 72.3183C152.956 72.4339 152.936 72.5713 152.968 72.7015C153 72.8316 153.081 72.9444 153.193 73.0161C154.037 73.5239 154.959 73.8886 155.921 74.0953V75.7147C155.921 75.8518 155.975 75.9834 156.073 76.0803C156.17 76.1773 156.301 76.2317 156.438 76.2317C156.576 76.2317 156.707 76.1773 156.803 76.0803C156.901 75.9834 156.955 75.8518 156.955 75.7147V74.2447C163.914 74.9418 163.924 68.2692 156.954 68.0499ZM155.92 68.0805C155.598 68.1185 155.277 68.1308 154.954 68.1418C154.651 68.157 154.353 68.0525 154.127 67.8507C153.9 67.6491 153.762 67.3665 153.742 67.0638C153.764 66.6009 153.954 66.1617 154.277 65.8295C154.601 65.4973 155.034 65.2949 155.496 65.2606C155.636 65.2344 155.778 65.2172 155.92 65.2091V68.0805ZM159.912 72.9303C158.967 73.2772 157.95 73.3833 156.954 73.239V69.074C157.89 69.0766 158.812 69.2858 159.658 69.6865C160.018 69.8338 160.339 70.0625 160.596 70.3547C160.853 70.6469 161.039 70.9948 161.14 71.3709C161.232 72.1488 160.557 72.678 159.912 72.9315V72.9303Z" fill="black"/>
<path d="M38.6815 68.9724C38.7207 69.097 38.8057 69.2022 38.9192 69.2668C39.0329 69.3314 39.1668 69.3505 39.294 69.3203C63.6421 61.9695 86.7594 51.0332 107.885 36.8713C106.222 39.1441 104.37 41.2725 102.348 43.234C101.874 43.7019 102.606 44.4332 103.083 43.969C105.808 41.333 108.214 38.3868 110.252 35.1906C110.295 35.1018 110.311 35.0027 110.299 34.9049C110.287 34.8072 110.248 34.7148 110.185 34.6388C110.123 34.5628 110.04 34.5061 109.946 34.4756C109.852 34.4451 109.752 34.442 109.657 34.4666C106.158 35.4344 102.737 36.6606 99.2785 37.7594C98.6464 37.9603 98.9171 38.9587 99.5541 38.7566C101.939 37.9995 104.307 37.1849 106.695 36.4291C85.8278 50.3319 63.0233 61.0789 39.0183 68.3232C38.9535 68.3436 38.8935 68.3767 38.8414 68.4205C38.7895 68.4641 38.7466 68.5176 38.7154 68.578C38.684 68.6383 38.6649 68.7042 38.6592 68.7718C38.6533 68.8395 38.6609 68.9076 38.6815 68.9724Z" fill="black"/>
<path d="M188.041 82.7353C188.036 82.6044 187.982 82.4802 187.89 82.3877C187.797 82.2952 187.673 82.2412 187.542 82.2367H170.55C170.413 82.2367 170.282 82.2911 170.185 82.3881C170.087 82.485 170.033 82.6164 170.033 82.7536C170.033 82.8907 170.087 83.0222 170.185 83.1192C170.282 83.2161 170.413 83.2706 170.55 83.2706H187.542C187.61 83.2681 187.677 83.2525 187.738 83.2243C187.801 83.196 187.856 83.1559 187.902 83.1062C187.949 83.0565 187.984 82.9982 188.009 82.9345C188.032 82.8709 188.043 82.8031 188.041 82.7353Z" fill="black"/>
<path d="M188.229 78.3201C188.229 78.183 188.175 78.0515 188.077 77.9545C187.98 77.8576 187.849 77.8031 187.712 77.8031H173.257C173.12 77.8031 172.989 77.8576 172.892 77.9545C172.794 78.0515 172.74 78.183 172.74 78.3201C172.74 78.4571 172.794 78.5887 172.892 78.6856C172.989 78.7826 173.12 78.837 173.257 78.837H187.712C187.78 78.8371 187.847 78.8239 187.911 78.798C187.973 78.7721 188.029 78.734 188.078 78.686C188.126 78.6379 188.164 78.5809 188.19 78.5181C188.216 78.4553 188.229 78.388 188.229 78.3201Z" fill="black"/>
<path d="M174.483 74.3979C174.488 74.5289 174.542 74.6534 174.635 74.7463C174.727 74.839 174.851 74.8931 174.983 74.8977H187.542C187.68 74.8977 187.811 74.8432 187.908 74.7463C188.006 74.6494 188.059 74.5178 188.059 74.3807C188.059 74.2436 188.006 74.1121 187.908 74.0152C187.811 73.9183 187.68 73.8638 187.542 73.8638H174.983C174.845 73.8685 174.716 73.9275 174.622 74.0275C174.528 74.1276 174.478 74.2608 174.483 74.3979Z" fill="black"/>
<path d="M177.615 44.5042L170.652 52.0759C170.202 52.5659 170.931 53.3009 171.387 52.8109L178.35 45.2392C178.796 44.7468 178.067 44.013 177.615 44.5042Z" fill="black"/>
<path d="M183.124 48.6252L172.804 54.085C172.215 54.3974 172.738 55.2904 173.326 54.9792L183.646 49.517C184.234 49.207 183.712 48.3128 183.124 48.6252Z" fill="black"/>
<path d="M181.884 56.198C182.02 56.1942 182.149 56.1386 182.246 56.0424C182.341 55.9461 182.397 55.8169 182.4 55.681C182.4 55.613 182.388 55.5458 182.362 55.4829C182.335 55.42 182.299 55.3629 182.25 55.3147C182.202 55.2666 182.145 55.2284 182.083 55.2023C182.019 55.1762 181.952 55.1628 181.884 55.1628L175.247 55.9983C175.111 56.0017 174.982 56.0572 174.886 56.1535C174.789 56.2497 174.734 56.3791 174.73 56.5152C174.73 56.5832 174.744 56.6506 174.77 56.7134C174.795 56.7763 174.833 56.8334 174.881 56.8815C174.929 56.9297 174.986 56.9679 175.049 56.994C175.113 57.0199 175.179 57.0334 175.247 57.0334L181.884 56.198Z" fill="black"/>
<path d="M97.6594 118.417C96.7938 118.415 95.9607 118.746 95.3319 119.341C94.8505 119.803 95.5769 120.533 96.0669 120.076C96.2777 119.872 96.5271 119.712 96.8007 119.605C97.0741 119.499 97.366 119.448 97.6594 119.456C97.7295 119.459 97.7995 119.448 97.8653 119.424C97.931 119.4 97.9911 119.362 98.042 119.314C98.0928 119.265 98.1332 119.207 98.1608 119.142C98.1885 119.078 98.2027 119.009 98.2027 118.938C98.2027 118.868 98.1885 118.799 98.1608 118.734C98.1332 118.67 98.0928 118.612 98.042 118.563C97.9911 118.515 97.931 118.477 97.8653 118.453C97.7995 118.428 97.7295 118.417 97.6594 118.421V118.417Z" fill="black"/>
<path d="M13.7956 217.701C14.1447 218.267 15.0402 217.747 14.6886 217.179C14.0737 216.188 13.6305 215.101 13.3779 213.962C13.2321 213.313 12.235 213.587 12.3795 214.238C12.6553 215.463 13.1339 216.634 13.7956 217.701Z" fill="black"/>
<path d="M24.3563 211.4C24.6723 211.987 25.5653 211.465 25.2493 210.879C24.7665 209.979 24.3726 209.036 24.0733 208.061C23.8785 207.427 22.8801 207.694 23.0761 208.336C23.402 209.396 23.8307 210.423 24.3563 211.4Z" fill="black"/>
<path d="M24.6869 177.79C25.2376 176.753 25.9253 175.793 26.7314 174.94C27.1883 174.45 26.4582 173.723 25.9964 174.205C25.1285 175.122 24.387 176.152 23.7914 177.267C23.4802 177.855 24.3733 178.378 24.6869 177.79Z" fill="black"/>
<path d="M163.191 166.588C163.559 167.14 164.452 166.623 164.084 166.066C162.742 164.033 161.766 161.783 161.197 159.415C161.042 158.768 160.044 159.042 160.2 159.69C160.789 162.145 161.801 164.479 163.191 166.588Z" fill="black"/>
<path d="M148.181 191.491C148.142 191.366 148.058 191.26 147.944 191.195C147.83 191.13 147.696 191.111 147.569 191.141C141.346 192.828 134.954 193.814 128.512 194.081C127.848 194.11 127.845 195.145 128.512 195.117C135.045 194.84 141.527 193.843 147.841 192.142C147.907 192.123 147.967 192.09 148.02 192.046C148.072 192.003 148.116 191.949 148.148 191.887C148.18 191.827 148.199 191.761 148.205 191.693C148.211 191.624 148.202 191.556 148.181 191.491Z" fill="black"/>
<path d="M131.457 198.097C137.851 197.747 144.179 196.612 150.297 194.719C150.932 194.521 150.665 193.523 150.023 193.721C143.994 195.594 137.759 196.717 131.457 197.063C130.801 197.099 130.79 198.134 131.457 198.097Z" fill="black"/>
<path d="M115.774 128.419C117.75 130.492 120.25 130.664 123.139 130.454C123.8 130.405 123.804 129.37 123.139 129.419C120.492 129.617 118.194 129.531 116.427 127.604C114.729 125.78 114.203 123.242 113.715 120.878C116.488 120.826 119.446 120.225 119.484 117.424C119.448 114.835 116.789 114.126 114.664 113.994C114.074 113.959 113.481 113.954 112.888 113.954C112.236 112.328 111.425 110.769 110.469 109.3C106.583 103.322 101.815 100.863 94.9517 102.572C92.1008 103.375 89.4723 104.822 87.2686 106.801C85.065 108.781 83.3451 111.239 82.2411 113.988C81.609 113.967 80.9732 113.975 80.3424 113.967C79.3361 113.941 78.3331 114.092 77.3791 114.413C76.8589 114.604 76.3986 114.929 76.0447 115.356C75.6909 115.782 75.456 116.294 75.364 116.841C75.272 117.387 75.326 117.948 75.5206 118.467C75.7154 118.986 76.0438 119.444 76.4726 119.795C78.0026 121.003 80.2848 120.916 82.1419 120.879C84.4094 120.834 87.5858 120.3 87.6262 117.43C87.5931 115.059 85.3673 114.267 83.3559 114.054C84.373 111.694 85.8664 109.571 87.7423 107.816C89.6184 106.06 91.8368 104.711 94.2584 103.853C96.8828 102.983 99.7031 102.89 102.379 103.587C106.725 105.013 110.046 109.847 111.772 113.978C110.907 113.973 110.048 114.12 109.234 114.413C108.712 114.602 108.25 114.926 107.894 115.353C107.539 115.779 107.303 116.292 107.211 116.839C107.118 117.387 107.173 117.949 107.369 118.468C107.565 118.987 107.895 119.445 108.326 119.795C109.628 120.617 111.158 121.001 112.693 120.892C112.977 123.645 114.046 126.258 115.774 128.419ZM86.5911 117.424C86.5641 119.405 84.2146 119.744 82.6711 119.821C81.0337 120.013 79.3744 119.856 77.8017 119.362C77.4112 119.234 77.0665 118.995 76.8101 118.673C76.5537 118.352 76.3968 117.963 76.3585 117.554C76.3204 117.145 76.4028 116.733 76.5953 116.37C76.788 116.007 77.0825 115.708 77.4428 115.51C78.915 114.968 80.4979 114.795 82.0525 115.008C83.6976 115.034 86.5617 115.213 86.5911 117.424ZM109.657 119.362C109.266 119.234 108.921 118.995 108.665 118.674C108.408 118.352 108.251 117.963 108.213 117.554C108.174 117.145 108.257 116.733 108.449 116.37C108.642 116.007 108.936 115.708 109.296 115.51C110.769 114.968 112.352 114.795 113.906 115.008C115.555 115.034 118.419 115.211 118.448 117.424C118.421 119.405 116.072 119.744 114.528 119.821C112.89 120.013 111.23 119.857 109.657 119.362Z" fill="black"/>
<path d="M129.059 132.797C132.122 131.723 131.901 127.307 128.399 127.188C127.792 127.097 127.171 127.199 126.623 127.478C126.077 127.758 125.629 128.201 125.346 128.746C125.125 129.279 125.061 129.865 125.162 130.433C125.261 131.001 125.522 131.531 125.911 131.956C126.302 132.381 126.805 132.687 127.363 132.835C127.92 132.985 128.509 132.971 129.059 132.797ZM126.197 129.59C126.244 129.219 126.424 128.877 126.704 128.628C126.983 128.38 127.343 128.239 127.717 128.234C128.788 128.13 130.03 128.423 130.167 129.667C130.197 130.056 130.118 130.445 129.937 130.789C129.755 131.135 129.48 131.421 129.143 131.616C128.805 131.811 128.42 131.907 128.03 131.892C127.641 131.876 127.264 131.751 126.943 131.531C126.667 131.294 126.455 130.994 126.324 130.655C126.194 130.317 126.15 129.95 126.197 129.59Z" fill="black"/>
<path d="M101.196 184.65H111.78C111.917 184.65 112.048 184.595 112.145 184.498C112.242 184.402 112.297 184.27 112.297 184.133C112.297 183.996 112.242 183.865 112.145 183.767C112.048 183.67 111.917 183.616 111.78 183.616H101.196C101.059 183.616 100.927 183.67 100.83 183.767C100.733 183.865 100.679 183.996 100.679 184.133C100.679 184.27 100.733 184.402 100.83 184.498C100.927 184.595 101.059 184.65 101.196 184.65Z" fill="black"/>
<path d="M101.196 189.049H111.78C111.913 189.043 112.038 188.985 112.13 188.889C112.222 188.793 112.273 188.665 112.273 188.532C112.273 188.399 112.222 188.271 112.13 188.175C112.038 188.078 111.913 188.02 111.78 188.014H101.196C101.063 188.02 100.938 188.078 100.846 188.175C100.754 188.271 100.703 188.399 100.703 188.532C100.703 188.665 100.754 188.793 100.846 188.889C100.938 188.985 101.063 189.043 101.196 189.049Z" fill="black"/>
<path d="M101.196 193.204H111.731C111.868 193.204 111.999 193.151 112.096 193.054C112.193 192.956 112.248 192.825 112.248 192.687C112.248 192.55 112.193 192.419 112.096 192.322C111.999 192.226 111.868 192.171 111.731 192.171H101.196C101.059 192.171 100.927 192.226 100.83 192.322C100.733 192.419 100.679 192.55 100.679 192.687C100.679 192.825 100.733 192.956 100.83 193.054C100.927 193.151 101.059 193.204 101.196 193.204Z" fill="black"/>
<path d="M101.196 197.3H111.731C111.868 197.3 111.999 197.246 112.096 197.148C112.193 197.051 112.248 196.92 112.248 196.783C112.248 196.645 112.193 196.514 112.096 196.418C111.999 196.32 111.868 196.266 111.731 196.266H101.196C101.059 196.266 100.927 196.32 100.83 196.418C100.733 196.514 100.679 196.645 100.679 196.783C100.679 196.92 100.733 197.051 100.83 197.148C100.927 197.246 101.059 197.3 101.196 197.3Z" fill="black"/>
<path d="M220.273 186.752C219.412 186.867 218.609 187.253 217.98 187.854C217.352 188.454 216.93 189.239 216.776 190.094C216.705 190.971 216.899 191.849 217.333 192.614C217.768 193.378 218.422 193.994 219.213 194.382C222.398 195.931 225.725 192.129 224.105 188.869C223.779 188.151 223.231 187.558 222.54 187.176C221.85 186.795 221.055 186.647 220.273 186.752ZM223.022 192.295C222.736 192.823 222.278 193.237 221.724 193.471C221.17 193.704 220.554 193.742 219.976 193.578C219.287 193.31 218.703 192.825 218.313 192.197C217.923 191.569 217.748 190.832 217.811 190.094C218.035 189.31 218.551 188.64 219.251 188.221C219.951 187.802 220.786 187.666 221.583 187.84C221.996 188.009 222.367 188.266 222.671 188.593C222.973 188.921 223.201 189.31 223.338 189.734C223.476 190.159 223.518 190.607 223.463 191.051C223.409 191.493 223.259 191.918 223.022 192.297V192.295Z" fill="black"/>
<path d="M63.0943 167.626C64.5286 166.347 66.1331 165.273 67.862 164.434C68.4598 164.142 67.9355 163.251 67.3402 163.541C65.5338 164.424 63.8587 165.552 62.363 166.896C61.8657 167.34 62.5994 168.07 63.0943 167.626Z" fill="black"/>
<path d="M113.315 170.791C113.215 168.529 112.989 163.358 112.974 163.034C112.946 162.371 111.911 162.367 111.94 163.034C111.94 163.034 112.266 170.466 112.281 170.791C112.31 171.453 113.344 171.457 113.315 170.791Z" fill="black"/>
<path d="M72.9243 119.207L63.3362 116.92C62.6894 116.766 62.4126 117.763 63.0606 117.917L72.6499 120.206C73.2967 120.357 73.5723 119.363 72.9243 119.207Z" fill="black"/>
<path d="M54.5951 123.656H71.8014C71.9385 123.656 72.0701 123.601 72.167 123.504C72.2639 123.408 72.3184 123.276 72.3184 123.139C72.3184 123.002 72.2639 122.871 72.167 122.773C72.0701 122.677 71.9385 122.622 71.8014 122.622H54.5951C54.458 122.622 54.3266 122.677 54.2295 122.773C54.1326 122.871 54.0781 123.002 54.0781 123.139C54.0781 123.276 54.1326 123.408 54.2295 123.504C54.3266 123.601 54.458 123.656 54.5951 123.656Z" fill="black"/>
<path d="M63.3357 129.635C66.3407 128.844 69.3088 127.92 72.2954 127.063C72.4276 127.026 72.5399 126.939 72.6075 126.819C72.6753 126.7 72.6926 126.558 72.6561 126.426C72.6196 126.295 72.532 126.182 72.4126 126.115C72.2933 126.046 72.1519 126.029 72.0198 126.066L63.0589 128.638C62.9338 128.681 62.8298 128.769 62.7681 128.887C62.7063 129.003 62.6915 129.139 62.7268 129.267C62.7619 129.394 62.8445 129.503 62.9574 129.572C63.0704 129.64 63.2053 129.664 63.3345 129.635H63.3357Z" fill="black"/>
</svg>
